G04*
G04 #@! TF.GenerationSoftware,Altium Limited,Altium Designer,22.3.1 (43)*
G04*
G04 Layer_Color=8388736*
%FSLAX44Y44*%
%MOMM*%
G71*
G04*
G04 #@! TF.SameCoordinates,7F8165CF-3773-49E2-9DAE-D3442CBB466A*
G04*
G04*
G04 #@! TF.FilePolarity,Positive*
G04*
G01*
G75*
%ADD30C,0.2540*%
D30*
X10828Y809500D02*
G03*
X6000Y807500I0J-6828D01*
G01*
D02*
G03*
X1000Y795429I12071J-12071D01*
G01*
X820500Y807250D02*
G03*
X815068Y809500I-5432J-5432D01*
G01*
X823500Y800007D02*
G03*
X820500Y807250I-10243J0D01*
G01*
X810550Y1500D02*
G03*
X823250Y14200I0J12700D01*
G01*
X5159Y4591D02*
G03*
X12621Y1500I7462J7462D01*
G01*
X0Y17046D02*
G03*
X5159Y4591I17614J0D01*
G01*
X10828Y809500D02*
X13096D01*
X1000Y794750D02*
Y795429D01*
Y785500D02*
Y794750D01*
X0Y17046D02*
X1000Y785500D01*
X0Y17046D02*
Y447250D01*
X13096Y809500D02*
X18000D01*
X76250D01*
X236250D01*
X359000D01*
X384500D01*
X501000D01*
X732500D01*
X815068D01*
X823500Y796500D02*
Y800007D01*
Y118500D02*
Y796500D01*
X823250Y14200D02*
X823500Y118500D01*
X804000Y1500D02*
X810550D01*
X261250D02*
X804000D01*
X12621D02*
X261250D01*
X0Y17046D02*
Y447250D01*
M02*
