G04*
G04 #@! TF.GenerationSoftware,Altium Limited,Altium Designer,22.3.1 (43)*
G04*
G04 Layer_Physical_Order=1*
G04 Layer_Color=255*
%FSLAX44Y44*%
%MOMM*%
G71*
G04*
G04 #@! TF.SameCoordinates,7F8165CF-3773-49E2-9DAE-D3442CBB466A*
G04*
G04*
G04 #@! TF.FilePolarity,Positive*
G04*
G01*
G75*
%ADD10R,1.4700X1.0200*%
%ADD11R,1.0000X0.7000*%
%ADD12C,1.2000*%
%ADD13C,0.3000*%
%ADD14C,0.8000*%
%ADD15C,0.5000*%
%ADD16C,1.0000*%
G04:AMPARAMS|DCode=17|XSize=1.8mm|YSize=2mm|CornerRadius=0.45mm|HoleSize=0mm|Usage=FLASHONLY|Rotation=180.000|XOffset=0mm|YOffset=0mm|HoleType=Round|Shape=RoundedRectangle|*
%AMROUNDEDRECTD17*
21,1,1.8000,1.1000,0,0,180.0*
21,1,0.9000,2.0000,0,0,180.0*
1,1,0.9000,-0.4500,0.5500*
1,1,0.9000,0.4500,0.5500*
1,1,0.9000,0.4500,-0.5500*
1,1,0.9000,-0.4500,-0.5500*
%
%ADD17ROUNDEDRECTD17*%
%ADD18R,1.8000X1.8000*%
%ADD19C,3.0000*%
G04:AMPARAMS|DCode=20|XSize=1.8mm|YSize=2.4mm|CornerRadius=0.81mm|HoleSize=0mm|Usage=FLASHONLY|Rotation=270.000|XOffset=0mm|YOffset=0mm|HoleType=Round|Shape=RoundedRectangle|*
%AMROUNDEDRECTD20*
21,1,1.8000,0.7800,0,0,270.0*
21,1,0.1800,2.4000,0,0,270.0*
1,1,1.6200,-0.3900,-0.0900*
1,1,1.6200,-0.3900,0.0900*
1,1,1.6200,0.3900,0.0900*
1,1,1.6200,0.3900,-0.0900*
%
%ADD20ROUNDEDRECTD20*%
%ADD21R,2.0000X2.0000*%
%ADD22R,2.6000X2.6000*%
%ADD23O,2.8000X2.6000*%
%ADD24C,1.5300*%
%ADD25R,1.5300X1.5300*%
G04:AMPARAMS|DCode=26|XSize=1.8mm|YSize=2.4mm|CornerRadius=0.81mm|HoleSize=0mm|Usage=FLASHONLY|Rotation=180.000|XOffset=0mm|YOffset=0mm|HoleType=Round|Shape=RoundedRectangle|*
%AMROUNDEDRECTD26*
21,1,1.8000,0.7800,0,0,180.0*
21,1,0.1800,2.4000,0,0,180.0*
1,1,1.6200,-0.0900,0.3900*
1,1,1.6200,0.0900,0.3900*
1,1,1.6200,0.0900,-0.3900*
1,1,1.6200,-0.0900,-0.3900*
%
%ADD26ROUNDEDRECTD26*%
%ADD27R,2.0000X2.0000*%
%ADD28C,1.2000*%
%ADD29C,1.2700*%
D10*
X472000Y738250D02*
D03*
Y722250D02*
D03*
X382000Y764000D02*
D03*
Y780000D02*
D03*
D11*
X430000Y719250D02*
D03*
Y738250D02*
D03*
X406000Y719250D02*
D03*
Y728750D02*
D03*
Y738250D02*
D03*
D12*
X758250Y238500D02*
Y713000D01*
X733000Y738250D02*
X758250Y713000D01*
X681500Y738250D02*
X733000D01*
X472000D02*
X681500D01*
X221750Y651000D02*
X255500Y684750D01*
X138500Y651000D02*
X221750D01*
X475936Y792750D02*
X489750D01*
X471250Y788064D02*
X475936Y792750D01*
D13*
X241375Y192375D02*
X363250Y70500D01*
X422000D01*
X459000Y107500D01*
Y143500D01*
X478950Y111200D02*
Y170300D01*
X428500Y60750D02*
X478950Y111200D01*
X356000Y60750D02*
X428500D01*
X193061Y52500D02*
X432250D01*
X507250Y127500D01*
Y310750D01*
X524000Y131750D02*
Y310500D01*
X175000Y43750D02*
X436000D01*
X524000Y131750D01*
X220750Y196000D02*
Y355000D01*
Y196000D02*
X356000Y60750D01*
X217062Y394938D02*
X241375Y370625D01*
Y192375D02*
Y370625D01*
X155250Y90311D02*
X193061Y52500D01*
X136250Y82500D02*
X175000Y43750D01*
X112000Y63250D02*
X142250Y33000D01*
X438750D02*
X537250Y131500D01*
X142250Y33000D02*
X438750D01*
X219500Y623250D02*
X267250Y671000D01*
X629000D01*
X219500Y505500D02*
Y623250D01*
X365000Y743000D02*
Y750000D01*
X396500Y718500D02*
X405250D01*
X394000Y716000D02*
X396500Y718500D01*
X405250D02*
X406000Y719250D01*
X366000Y716000D02*
X394000D01*
X363000Y719000D02*
X366000Y716000D01*
X363000Y719000D02*
Y741000D01*
X365000Y743000D01*
X367000Y752000D02*
X379000D01*
X382000Y749000D01*
X365000Y750000D02*
X367000Y752000D01*
X392000Y656000D02*
X654500D01*
X347000Y611000D02*
X392000Y656000D01*
X372500Y619250D02*
X394750Y641500D01*
X372500Y335500D02*
Y619250D01*
X347000Y339250D02*
Y611000D01*
Y339250D02*
X348000Y338250D01*
X394750Y641500D02*
X606000D01*
X606250Y641250D01*
X94750Y55500D02*
X128250Y22000D01*
X446500D02*
X706800Y282300D01*
X128250Y22000D02*
X446500D01*
X94750Y282250D02*
X142000Y329500D01*
X94750Y55500D02*
Y282250D01*
X706800Y282300D02*
Y412750D01*
X537250Y131500D02*
Y308000D01*
X594500Y365250D02*
X683500D01*
X537250Y308000D02*
X594500Y365250D01*
X606000Y392500D02*
X630750D01*
X524000Y310500D02*
X606000Y392500D01*
X112000Y198500D02*
X113000Y199500D01*
X112000Y63250D02*
Y198500D01*
X507250Y310750D02*
X611500Y415000D01*
X136250Y82500D02*
Y237750D01*
X155250Y90311D02*
Y179000D01*
X136000Y238000D02*
X136250Y237750D01*
X611500Y415000D02*
X657500D01*
X605200Y695500D02*
Y698500D01*
D14*
X382000Y749000D02*
Y752000D01*
X392750Y738250D02*
X405000D01*
X382000Y749000D02*
X392750Y738250D01*
X382000Y752000D02*
Y764000D01*
X127000Y623500D02*
X127765Y624265D01*
X451000Y689436D02*
Y738250D01*
X472000D01*
X430000D02*
X451000D01*
X471250Y739000D02*
X472000Y738250D01*
X338000Y764000D02*
X382000D01*
Y780000D02*
Y800000D01*
X472000Y698000D02*
Y722250D01*
D15*
X382250Y728750D02*
X406000D01*
X382000Y729000D02*
X382250Y728750D01*
D16*
X127765Y624265D02*
Y640265D01*
X138500Y651000D01*
X255500Y684750D02*
X446314D01*
X451000Y689436D01*
X471250Y739000D02*
Y788064D01*
D17*
X26000Y623000D02*
D03*
D18*
X76000Y623000D02*
D03*
D19*
X571000Y293000D02*
D03*
Y73000D02*
D03*
X791000D02*
D03*
Y293000D02*
D03*
D20*
X796000Y144900D02*
D03*
Y170300D02*
D03*
Y195700D02*
D03*
X538750Y793150D02*
D03*
X283000Y764000D02*
D03*
D21*
X796000Y221100D02*
D03*
X538750Y767750D02*
D03*
X283000Y789400D02*
D03*
D22*
X159750Y745500D02*
D03*
D23*
Y694700D02*
D03*
D24*
X186700Y89300D02*
D03*
X415300D02*
D03*
X186700Y114700D02*
D03*
Y140100D02*
D03*
Y165500D02*
D03*
Y190900D02*
D03*
Y216300D02*
D03*
Y241700D02*
D03*
Y267100D02*
D03*
Y292500D02*
D03*
Y317900D02*
D03*
Y343300D02*
D03*
Y368700D02*
D03*
Y394100D02*
D03*
Y419500D02*
D03*
Y444900D02*
D03*
Y470300D02*
D03*
Y495700D02*
D03*
Y521100D02*
D03*
Y546500D02*
D03*
Y571900D02*
D03*
Y597300D02*
D03*
X415300Y114700D02*
D03*
Y140100D02*
D03*
Y165500D02*
D03*
Y190900D02*
D03*
Y216300D02*
D03*
Y241700D02*
D03*
Y267100D02*
D03*
Y292500D02*
D03*
Y317900D02*
D03*
Y343300D02*
D03*
Y368700D02*
D03*
Y394100D02*
D03*
Y419500D02*
D03*
Y444900D02*
D03*
Y470300D02*
D03*
Y495700D02*
D03*
Y521100D02*
D03*
Y546500D02*
D03*
Y571900D02*
D03*
Y597300D02*
D03*
Y622700D02*
D03*
D25*
X186700D02*
D03*
D26*
X732200Y448500D02*
D03*
X706800D02*
D03*
X681400D02*
D03*
X656000D02*
D03*
X630600D02*
D03*
X605200D02*
D03*
X579800D02*
D03*
X554400D02*
D03*
X605200Y698500D02*
D03*
X630600D02*
D03*
X656000D02*
D03*
X681400D02*
D03*
X706800D02*
D03*
X554400D02*
D03*
X579800D02*
D03*
D27*
X732200D02*
D03*
D28*
X758250Y238500D02*
D03*
X459000Y143500D02*
D03*
X127000Y623500D02*
D03*
X681500Y738250D02*
D03*
X220750Y355000D02*
D03*
X219750Y393750D02*
D03*
X478950Y170300D02*
D03*
X372500Y335500D02*
D03*
X348000Y338250D02*
D03*
X654500Y656000D02*
D03*
X606250Y641250D02*
D03*
X629000Y671000D02*
D03*
X220250Y505750D02*
D03*
X142000Y329500D02*
D03*
X683500Y365250D02*
D03*
X113000Y199500D02*
D03*
X155250Y179000D02*
D03*
X136000Y238000D02*
D03*
X657500Y415000D02*
D03*
X630750Y392500D02*
D03*
X706800Y412750D02*
D03*
D29*
X338000Y764000D02*
D03*
X382000Y729000D02*
D03*
Y800000D02*
D03*
X472000Y698000D02*
D03*
X489750Y792750D02*
D03*
M02*
