M48
;Layer_Color=9474304
;FILE_FORMAT=4:4
METRIC,LZ
;TYPE=PLATED
T1F00S00C0.7000
T2F00S00C1.0000
T3F00S00C1.0200
T4F00S00C1.6000
T5F00S00C2.0000
T6F00S00C3.5000
%
T01
X0105725Y005055
X009825Y0063225
X010058Y0067975
X009565Y00682
X0092975Y006595
X006715Y006025
X00647Y0060525
X0051975Y00622
X0051875Y0066075
X0051925Y0077275
X00441Y005965
X00435Y00505
X00412Y004665
X0045425Y00446
X0077795Y004373
X00758Y004105
X00771Y00965
X0078875Y0105975
X00681Y01067
Y00996
X00637Y01031
X00426Y008905
X0090525Y0090825
X00928Y00938
X009535Y00923
X009805Y0100525
T02
X01095Y004119
Y004373
Y004627
Y004881
X010312Y007155
X010058
X009804
X00955
X009296
X009042
X008788
X008534
X00375Y0089
X00325Y0089
X00582Y01031
Y010564
X0083775Y0106015
Y0103475
X008534Y009655
X008788
X009042
X009296
X00955
X009804
X010058
X010312
T03
X004857Y003563
Y003817
X007143
Y003563
Y004071
Y004325
Y004579
Y004833
Y005087
Y005341
Y005595
Y005849
Y006103
Y006357
Y006611
Y006865
Y007119
Y007373
Y007627
Y007881
X004857
Y007627
Y007373
Y007119
Y006865
Y006611
Y006357
Y006103
Y005849
Y005595
Y005341
Y005087
Y004833
Y004579
Y004325
Y004071
Y008135
Y008389
Y008643
Y008897
X007143
Y008643
Y008389
Y008135
T04
X0045875Y009617
Y010125
T05
X0087Y0034
X0109
Y0056
X0087
T06
X0035416Y0032159
X00355Y010245
X010695Y0102425
M30
