M48
;Layer_Color=9474304
;FILE_FORMAT=2:5
INCH,LZ
;TYPE=PLATED
T1F00S00C0.02362
T2F00S00C0.02800
T3F00S00C0.03937
T4F00S00C0.04016
T5F00S00C0.06299
T6F00S00C0.07874
T7F00S00C0.13780
%
T01
X029685Y0084055
X0269094Y0143799
X0278268Y01625
X0258858Y0163386
X0248327Y0154528
X0146653Y0132087
X0137008Y0133169
X0086909Y0139764
X0086516Y015502
X0086713Y0199114
X0055905Y0129724
X0053543Y0093701
X0044488Y0078543
X0061122Y0070472
X0188563Y0067047
X0175787Y0098425
X005Y0245472
X0238681Y0252461
X0247638Y0264173
X0257677Y0258268
X0268307Y029065
T02
X0133071Y0300787
X0150394Y0287008
Y0314961
X0192815Y0312106
X0185827Y0274803
T03
X0313386Y0057047
Y0067047
Y0077047
Y0087047
X0288268Y0176575
X0278268
X0268268
X0258268
X0248268
X0238268
X0228268
X0218268
X0029921Y0245276
X0010236Y0245276
X0111417Y0300787
Y0310787
X0212106Y0312264
Y0302264
X0218268Y0275
X0228268
X0238268
X0248268
X0258268
X0268268
X0278268
X0288268
T04
X0073504Y0035157
Y0045158
X0163504
Y0035157
Y0055158
Y0065158
Y0075157
Y0085158
Y0095157
Y0105157
Y0115157
Y0125157
Y0135158
Y0145158
Y0155157
Y0165157
Y0175157
Y0185158
Y0195158
Y0205157
X0073504
Y0195158
Y0185158
Y0175157
Y0165157
Y0155157
Y0145158
Y0135158
Y0125157
Y0115157
Y0105157
Y0095157
Y0085158
Y0075157
Y0065158
Y0055158
Y0215158
Y0225157
Y0235157
Y0245158
X0163504
Y0235157
Y0225157
Y0215158
T05
X0062894Y0273504
Y0293504
T06
X0224803Y002874
X0311417
Y0115354
X0224803
T07
X0021716Y0021492
X0022047Y0298228
X0303346Y029813
M30
