G04*
G04 #@! TF.GenerationSoftware,Altium Limited,Altium Designer,22.3.1 (43)*
G04*
G04 Layer_Physical_Order=2*
G04 Layer_Color=16711680*
%FSLAX44Y44*%
%MOMM*%
G71*
G04*
G04 #@! TF.SameCoordinates,7F8165CF-3773-49E2-9DAE-D3442CBB466A*
G04*
G04*
G04 #@! TF.FilePolarity,Positive*
G04*
G01*
G75*
%ADD13C,0.3000*%
%ADD14C,0.8000*%
%ADD15C,0.5000*%
%ADD16C,1.0000*%
G04:AMPARAMS|DCode=17|XSize=1.8mm|YSize=2mm|CornerRadius=0.45mm|HoleSize=0mm|Usage=FLASHONLY|Rotation=180.000|XOffset=0mm|YOffset=0mm|HoleType=Round|Shape=RoundedRectangle|*
%AMROUNDEDRECTD17*
21,1,1.8000,1.1000,0,0,180.0*
21,1,0.9000,2.0000,0,0,180.0*
1,1,0.9000,-0.4500,0.5500*
1,1,0.9000,0.4500,0.5500*
1,1,0.9000,0.4500,-0.5500*
1,1,0.9000,-0.4500,-0.5500*
%
%ADD17ROUNDEDRECTD17*%
%ADD18R,1.8000X1.8000*%
%ADD19C,3.0000*%
G04:AMPARAMS|DCode=20|XSize=1.8mm|YSize=2.4mm|CornerRadius=0.81mm|HoleSize=0mm|Usage=FLASHONLY|Rotation=270.000|XOffset=0mm|YOffset=0mm|HoleType=Round|Shape=RoundedRectangle|*
%AMROUNDEDRECTD20*
21,1,1.8000,0.7800,0,0,270.0*
21,1,0.1800,2.4000,0,0,270.0*
1,1,1.6200,-0.3900,-0.0900*
1,1,1.6200,-0.3900,0.0900*
1,1,1.6200,0.3900,0.0900*
1,1,1.6200,0.3900,-0.0900*
%
%ADD20ROUNDEDRECTD20*%
%ADD21R,2.0000X2.0000*%
%ADD22R,2.6000X2.6000*%
%ADD23O,2.8000X2.6000*%
%ADD24C,1.5300*%
%ADD25R,1.5300X1.5300*%
G04:AMPARAMS|DCode=26|XSize=1.8mm|YSize=2.4mm|CornerRadius=0.81mm|HoleSize=0mm|Usage=FLASHONLY|Rotation=180.000|XOffset=0mm|YOffset=0mm|HoleType=Round|Shape=RoundedRectangle|*
%AMROUNDEDRECTD26*
21,1,1.8000,0.7800,0,0,180.0*
21,1,0.1800,2.4000,0,0,180.0*
1,1,1.6200,-0.0900,0.3900*
1,1,1.6200,0.0900,0.3900*
1,1,1.6200,0.0900,-0.3900*
1,1,1.6200,-0.0900,-0.3900*
%
%ADD26ROUNDEDRECTD26*%
%ADD27R,2.0000X2.0000*%
%ADD28C,1.2000*%
%ADD29C,1.2700*%
G36*
X824250Y854D02*
X824000Y750D01*
X1148D01*
X250Y1648D01*
X500Y810646D01*
X750Y810750D01*
X824250D01*
Y854D01*
D02*
G37*
%LPC*%
G36*
X542650Y805246D02*
X534850D01*
X531952Y804864D01*
X529252Y803746D01*
X526933Y801967D01*
X525586Y800210D01*
X495513D01*
X495491Y800232D01*
X493359Y801463D01*
X490981Y802100D01*
X488519D01*
X486141Y801463D01*
X484009Y800232D01*
X482268Y798491D01*
X481037Y796359D01*
X480400Y793981D01*
Y791519D01*
X481037Y789141D01*
X482268Y787009D01*
X484009Y785268D01*
X486141Y784037D01*
X488519Y783400D01*
X490981D01*
X493359Y784037D01*
X495491Y785268D01*
X496312Y786090D01*
X525586D01*
X526933Y784333D01*
X529252Y782554D01*
X531952Y781436D01*
X534850Y781054D01*
X542650D01*
X545548Y781436D01*
X548248Y782554D01*
X550567Y784333D01*
X552346Y786652D01*
X553464Y789352D01*
X553846Y792250D01*
Y794050D01*
X553464Y796948D01*
X552346Y799648D01*
X550567Y801967D01*
X548248Y803746D01*
X545548Y804864D01*
X542650Y805246D01*
D02*
G37*
G36*
X286900Y776096D02*
X279100D01*
X276202Y775714D01*
X273502Y774596D01*
X271183Y772817D01*
X269404Y770498D01*
X268286Y767798D01*
X267904Y764900D01*
Y763100D01*
X268286Y760202D01*
X269404Y757502D01*
X271183Y755183D01*
X273502Y753404D01*
X276202Y752286D01*
X279100Y751904D01*
X286900D01*
X289798Y752286D01*
X292498Y753404D01*
X294817Y755183D01*
X296164Y756940D01*
X330040D01*
Y751525D01*
X322326Y743810D01*
X276776D01*
X276000Y743913D01*
X175750D01*
Y761500D01*
X143750D01*
Y729500D01*
X175750D01*
Y729792D01*
X275326D01*
X276102Y729690D01*
X325250D01*
X327077Y729930D01*
X328780Y730636D01*
X330242Y731758D01*
X342093Y743608D01*
X343215Y745070D01*
X343921Y746773D01*
X344161Y748601D01*
Y756938D01*
X345482Y758259D01*
X346713Y760391D01*
X347350Y762769D01*
Y765231D01*
X346713Y767609D01*
X345482Y769741D01*
X343741Y771482D01*
X341609Y772713D01*
X339231Y773350D01*
X336769D01*
X334391Y772713D01*
X332259Y771482D01*
X331838Y771060D01*
X296164D01*
X294817Y772817D01*
X292498Y774596D01*
X289798Y775714D01*
X286900Y776096D01*
D02*
G37*
G36*
X58019Y778000D02*
X53981D01*
X50020Y777212D01*
X46290Y775667D01*
X42932Y773423D01*
X40077Y770568D01*
X37833Y767210D01*
X36288Y763480D01*
X35500Y759519D01*
Y755481D01*
X36288Y751520D01*
X37833Y747790D01*
X40077Y744432D01*
X42932Y741577D01*
X46290Y739333D01*
X50020Y737788D01*
X53981Y737000D01*
X58019D01*
X61980Y737788D01*
X65710Y739333D01*
X69068Y741577D01*
X71923Y744432D01*
X74167Y747790D01*
X75712Y751520D01*
X76500Y755481D01*
Y759519D01*
X75712Y763480D01*
X74167Y767210D01*
X71923Y770568D01*
X69068Y773423D01*
X65710Y775667D01*
X61980Y777212D01*
X58019Y778000D01*
D02*
G37*
G36*
X772519Y777750D02*
X768481D01*
X764520Y776962D01*
X760790Y775417D01*
X757432Y773173D01*
X754577Y770318D01*
X752333Y766960D01*
X750788Y763230D01*
X750000Y759269D01*
Y755231D01*
X750788Y751270D01*
X752333Y747540D01*
X754577Y744182D01*
X757432Y741327D01*
X760790Y739083D01*
X764520Y737538D01*
X768481Y736750D01*
X772519D01*
X776480Y737538D01*
X780210Y739083D01*
X783568Y741327D01*
X786423Y744182D01*
X788667Y747540D01*
X790212Y751270D01*
X791000Y755231D01*
Y759269D01*
X790212Y763230D01*
X788667Y766960D01*
X786423Y770318D01*
X783568Y773173D01*
X780210Y775417D01*
X776480Y776962D01*
X772519Y777750D01*
D02*
G37*
G36*
X682685Y747250D02*
X680315D01*
X678026Y746637D01*
X675974Y745452D01*
X674298Y743776D01*
X673113Y741724D01*
X672500Y739435D01*
Y737065D01*
X673113Y734776D01*
X674298Y732724D01*
X675842Y731180D01*
Y712485D01*
X674902Y712096D01*
X672583Y710317D01*
X670804Y707998D01*
X669686Y705298D01*
X669341Y702675D01*
X668059D01*
X667714Y705298D01*
X666596Y707998D01*
X664817Y710317D01*
X662498Y712096D01*
X659798Y713214D01*
X656900Y713596D01*
X655100D01*
X652202Y713214D01*
X649502Y712096D01*
X647183Y710317D01*
X645404Y707998D01*
X644286Y705298D01*
X643941Y702675D01*
X642660D01*
X642314Y705298D01*
X641196Y707998D01*
X639417Y710317D01*
X637098Y712096D01*
X634398Y713214D01*
X631500Y713596D01*
X629700D01*
X626802Y713214D01*
X624102Y712096D01*
X621783Y710317D01*
X620004Y707998D01*
X618886Y705298D01*
X618540Y702675D01*
X617259D01*
X616914Y705298D01*
X615796Y707998D01*
X614017Y710317D01*
X611698Y712096D01*
X608998Y713214D01*
X606100Y713596D01*
X604300D01*
X601402Y713214D01*
X598702Y712096D01*
X596383Y710317D01*
X594604Y707998D01*
X593486Y705298D01*
X593140Y702675D01*
X591860D01*
X591514Y705298D01*
X590396Y707998D01*
X588617Y710317D01*
X586298Y712096D01*
X583598Y713214D01*
X580700Y713596D01*
X578900D01*
X576002Y713214D01*
X573302Y712096D01*
X570983Y710317D01*
X569204Y707998D01*
X568086Y705298D01*
X567741Y702675D01*
X566460D01*
X566114Y705298D01*
X564996Y707998D01*
X563217Y710317D01*
X560898Y712096D01*
X558198Y713214D01*
X555300Y713596D01*
X553500D01*
X550602Y713214D01*
X547902Y712096D01*
X545583Y710317D01*
X543804Y707998D01*
X542686Y705298D01*
X542304Y702400D01*
Y694600D01*
X542686Y691702D01*
X543804Y689002D01*
X545583Y686683D01*
X547902Y684904D01*
X550602Y683786D01*
X553500Y683404D01*
X555300D01*
X558198Y683786D01*
X560898Y684904D01*
X563217Y686683D01*
X564996Y689002D01*
X566114Y691702D01*
X566460Y694325D01*
X567741D01*
X568086Y691702D01*
X569204Y689002D01*
X570983Y686683D01*
X573302Y684904D01*
X576002Y683786D01*
X578900Y683404D01*
X580700D01*
X583598Y683786D01*
X586298Y684904D01*
X588617Y686683D01*
X590396Y689002D01*
X591514Y691702D01*
X591860Y694325D01*
X593140D01*
X593486Y691702D01*
X594604Y689002D01*
X596383Y686683D01*
X598702Y684904D01*
X600887Y683999D01*
Y648546D01*
X600724Y648452D01*
X599048Y646776D01*
X597863Y644724D01*
X597250Y642435D01*
Y640065D01*
X597863Y637776D01*
X599048Y635724D01*
X600724Y634048D01*
X602776Y632863D01*
X605065Y632250D01*
X607435D01*
X609724Y632863D01*
X611776Y634048D01*
X613452Y635724D01*
X614637Y637776D01*
X615250Y640065D01*
Y642435D01*
X614637Y644724D01*
X613452Y646776D01*
X611776Y648452D01*
X610063Y649441D01*
Y684227D01*
X611698Y684904D01*
X614017Y686683D01*
X615796Y689002D01*
X616914Y691702D01*
X617259Y694325D01*
X618540D01*
X618886Y691702D01*
X620004Y689002D01*
X621783Y686683D01*
X624102Y684904D01*
X625212Y684445D01*
Y679205D01*
X623474Y678202D01*
X621798Y676526D01*
X620613Y674474D01*
X620000Y672185D01*
Y669815D01*
X620613Y667526D01*
X621798Y665474D01*
X623474Y663798D01*
X625526Y662613D01*
X627815Y662000D01*
X630185D01*
X632474Y662613D01*
X634526Y663798D01*
X636202Y665474D01*
X637387Y667526D01*
X638000Y669815D01*
Y672185D01*
X637387Y674474D01*
X636202Y676526D01*
X634526Y678202D01*
X634388Y678281D01*
Y683784D01*
X634398Y683786D01*
X637098Y684904D01*
X639417Y686683D01*
X641196Y689002D01*
X642314Y691702D01*
X642660Y694325D01*
X643941D01*
X644286Y691702D01*
X645404Y689002D01*
X647183Y686683D01*
X649502Y684904D01*
X650662Y684424D01*
Y664176D01*
X648974Y663202D01*
X647298Y661526D01*
X646113Y659474D01*
X645500Y657185D01*
Y654815D01*
X646113Y652526D01*
X647298Y650474D01*
X648974Y648798D01*
X651026Y647613D01*
X653315Y647000D01*
X655685D01*
X657974Y647613D01*
X660026Y648798D01*
X661702Y650474D01*
X662887Y652526D01*
X663500Y654815D01*
Y657185D01*
X662887Y659474D01*
X661702Y661526D01*
X660026Y663202D01*
X659838Y663310D01*
Y683802D01*
X662498Y684904D01*
X664817Y686683D01*
X666596Y689002D01*
X667714Y691702D01*
X668059Y694325D01*
X669341D01*
X669686Y691702D01*
X670804Y689002D01*
X672583Y686683D01*
X674902Y684904D01*
X677602Y683786D01*
X680500Y683404D01*
X682300D01*
X685198Y683786D01*
X687898Y684904D01*
X690217Y686683D01*
X691996Y689002D01*
X693114Y691702D01*
X693496Y694600D01*
Y702400D01*
X693114Y705298D01*
X691996Y707998D01*
X690217Y710317D01*
X687898Y712096D01*
X687058Y712444D01*
Y731080D01*
X688702Y732724D01*
X689887Y734776D01*
X690500Y737065D01*
Y739435D01*
X689887Y741724D01*
X688702Y743776D01*
X687026Y745452D01*
X684974Y746637D01*
X682685Y747250D01*
D02*
G37*
G36*
X416702Y607950D02*
X413898D01*
X411189Y607224D01*
X408761Y605822D01*
X406778Y603839D01*
X405376Y601411D01*
X404650Y598702D01*
Y595898D01*
X405376Y593189D01*
X406778Y590761D01*
X408761Y588778D01*
X411189Y587376D01*
X413898Y586650D01*
X416702D01*
X419411Y587376D01*
X421839Y588778D01*
X423822Y590761D01*
X425224Y593189D01*
X425950Y595898D01*
Y598702D01*
X425224Y601411D01*
X423822Y603839D01*
X421839Y605822D01*
X419411Y607224D01*
X416702Y607950D01*
D02*
G37*
G36*
X88000Y635000D02*
X64000D01*
Y611000D01*
X88000D01*
Y614931D01*
X124207D01*
X125815Y614500D01*
X128185D01*
X129793Y614931D01*
X176050D01*
Y612050D01*
X178631D01*
Y604292D01*
X178178Y603839D01*
X176776Y601411D01*
X176050Y598702D01*
Y595898D01*
X176776Y593189D01*
X178178Y590761D01*
X180161Y588778D01*
X182589Y587376D01*
X185298Y586650D01*
X188102D01*
X190811Y587376D01*
X193239Y588778D01*
X195222Y590761D01*
X196624Y593189D01*
X197350Y595898D01*
Y598702D01*
X196624Y601411D01*
X195222Y603839D01*
X194769Y604292D01*
Y612050D01*
X197350D01*
Y633350D01*
X176050D01*
Y631069D01*
X131890D01*
X130474Y631887D01*
X128185Y632500D01*
X125815D01*
X123526Y631887D01*
X122110Y631069D01*
X88000D01*
Y635000D01*
D02*
G37*
G36*
X416702Y582550D02*
X413898D01*
X411189Y581824D01*
X408761Y580422D01*
X406778Y578439D01*
X405376Y576011D01*
X404650Y573302D01*
Y570498D01*
X405376Y567789D01*
X406778Y565361D01*
X408761Y563378D01*
X411189Y561976D01*
X413898Y561250D01*
X416702D01*
X419411Y561976D01*
X421839Y563378D01*
X423822Y565361D01*
X425224Y567789D01*
X425950Y570498D01*
Y573302D01*
X425224Y576011D01*
X423822Y578439D01*
X421839Y580422D01*
X419411Y581824D01*
X416702Y582550D01*
D02*
G37*
G36*
X188102D02*
X185298D01*
X182589Y581824D01*
X180161Y580422D01*
X178178Y578439D01*
X176776Y576011D01*
X176050Y573302D01*
Y570498D01*
X176776Y567789D01*
X178178Y565361D01*
X180161Y563378D01*
X182589Y561976D01*
X185298Y561250D01*
X188102D01*
X190811Y561976D01*
X193239Y563378D01*
X195222Y565361D01*
X196624Y567789D01*
X197350Y570498D01*
Y573302D01*
X196624Y576011D01*
X195222Y578439D01*
X193239Y580422D01*
X190811Y581824D01*
X188102Y582550D01*
D02*
G37*
G36*
X416702Y557150D02*
X413898D01*
X411189Y556424D01*
X408761Y555022D01*
X406778Y553039D01*
X405376Y550611D01*
X404650Y547902D01*
Y545098D01*
X405376Y542389D01*
X406778Y539961D01*
X408761Y537978D01*
X411189Y536576D01*
X413898Y535850D01*
X416702D01*
X419411Y536576D01*
X421839Y537978D01*
X423822Y539961D01*
X425224Y542389D01*
X425950Y545098D01*
Y547902D01*
X425224Y550611D01*
X423822Y553039D01*
X421839Y555022D01*
X419411Y556424D01*
X416702Y557150D01*
D02*
G37*
G36*
X188102D02*
X185298D01*
X182589Y556424D01*
X180161Y555022D01*
X178178Y553039D01*
X176776Y550611D01*
X176050Y547902D01*
Y545098D01*
X176776Y542389D01*
X178178Y539961D01*
X180161Y537978D01*
X182589Y536576D01*
X185298Y535850D01*
X188102D01*
X190811Y536576D01*
X193239Y537978D01*
X195222Y539961D01*
X196624Y542389D01*
X197350Y545098D01*
Y547902D01*
X196624Y550611D01*
X195222Y553039D01*
X193239Y555022D01*
X190811Y556424D01*
X188102Y557150D01*
D02*
G37*
G36*
X416702Y531750D02*
X413898D01*
X411189Y531024D01*
X408761Y529622D01*
X406778Y527639D01*
X405376Y525211D01*
X404650Y522502D01*
Y519698D01*
X405376Y516989D01*
X406778Y514561D01*
X408761Y512578D01*
X411189Y511176D01*
X413898Y510450D01*
X416702D01*
X419411Y511176D01*
X421839Y512578D01*
X423822Y514561D01*
X425224Y516989D01*
X425950Y519698D01*
Y522502D01*
X425224Y525211D01*
X423822Y527639D01*
X421839Y529622D01*
X419411Y531024D01*
X416702Y531750D01*
D02*
G37*
G36*
X188102D02*
X185298D01*
X182589Y531024D01*
X180161Y529622D01*
X178178Y527639D01*
X176776Y525211D01*
X176050Y522502D01*
Y519698D01*
X176776Y516989D01*
X178178Y514561D01*
X180161Y512578D01*
X182589Y511176D01*
X185298Y510450D01*
X188102D01*
X190811Y511176D01*
X193239Y512578D01*
X195222Y514561D01*
X196624Y516989D01*
X197350Y519698D01*
Y522502D01*
X196624Y525211D01*
X195222Y527639D01*
X193239Y529622D01*
X190811Y531024D01*
X188102Y531750D01*
D02*
G37*
G36*
X221435Y514750D02*
X219065D01*
X216776Y514137D01*
X214724Y512952D01*
X213048Y511276D01*
X211863Y509224D01*
X211250Y506935D01*
Y504565D01*
X211530Y503519D01*
X208300Y500288D01*
X196349D01*
X195222Y502239D01*
X193239Y504222D01*
X190811Y505624D01*
X188102Y506350D01*
X185298D01*
X182589Y505624D01*
X180161Y504222D01*
X178178Y502239D01*
X176776Y499811D01*
X176050Y497102D01*
Y494298D01*
X176776Y491589D01*
X178178Y489161D01*
X180161Y487178D01*
X182589Y485776D01*
X185298Y485050D01*
X188102D01*
X190811Y485776D01*
X193239Y487178D01*
X195222Y489161D01*
X196349Y491112D01*
X210200D01*
X211956Y491461D01*
X213444Y492456D01*
X218019Y497030D01*
X219065Y496750D01*
X221435D01*
X223724Y497363D01*
X225776Y498548D01*
X227452Y500224D01*
X228637Y502276D01*
X229250Y504565D01*
Y506935D01*
X228637Y509224D01*
X227452Y511276D01*
X225776Y512952D01*
X223724Y514137D01*
X221435Y514750D01*
D02*
G37*
G36*
X416702Y506350D02*
X413898D01*
X411189Y505624D01*
X408761Y504222D01*
X406778Y502239D01*
X405376Y499811D01*
X404650Y497102D01*
Y494298D01*
X405376Y491589D01*
X406778Y489161D01*
X408761Y487178D01*
X411189Y485776D01*
X413898Y485050D01*
X416702D01*
X419411Y485776D01*
X421839Y487178D01*
X423822Y489161D01*
X425224Y491589D01*
X425950Y494298D01*
Y497102D01*
X425224Y499811D01*
X423822Y502239D01*
X421839Y504222D01*
X419411Y505624D01*
X416702Y506350D01*
D02*
G37*
G36*
Y480950D02*
X413898D01*
X411189Y480224D01*
X408761Y478822D01*
X406778Y476839D01*
X405376Y474411D01*
X404650Y471702D01*
Y468898D01*
X405376Y466189D01*
X406778Y463761D01*
X408761Y461778D01*
X411189Y460376D01*
X413898Y459650D01*
X416702D01*
X419411Y460376D01*
X421839Y461778D01*
X423822Y463761D01*
X425224Y466189D01*
X425950Y468898D01*
Y471702D01*
X425224Y474411D01*
X423822Y476839D01*
X421839Y478822D01*
X419411Y480224D01*
X416702Y480950D01*
D02*
G37*
G36*
X188102D02*
X185298D01*
X182589Y480224D01*
X180161Y478822D01*
X178178Y476839D01*
X176776Y474411D01*
X176050Y471702D01*
Y468898D01*
X176776Y466189D01*
X178178Y463761D01*
X180161Y461778D01*
X182589Y460376D01*
X185298Y459650D01*
X188102D01*
X190811Y460376D01*
X193239Y461778D01*
X195222Y463761D01*
X196624Y466189D01*
X197350Y468898D01*
Y471702D01*
X196624Y474411D01*
X195222Y476839D01*
X193239Y478822D01*
X190811Y480224D01*
X188102Y480950D01*
D02*
G37*
G36*
X707700Y463596D02*
X705900D01*
X703002Y463214D01*
X700302Y462096D01*
X697983Y460317D01*
X696204Y457998D01*
X695086Y455298D01*
X694741Y452675D01*
X693459D01*
X693114Y455298D01*
X691996Y457998D01*
X690217Y460317D01*
X687898Y462096D01*
X685198Y463214D01*
X682300Y463596D01*
X680500D01*
X677602Y463214D01*
X674902Y462096D01*
X672583Y460317D01*
X670804Y457998D01*
X669686Y455298D01*
X669341Y452675D01*
X668059D01*
X667714Y455298D01*
X666596Y457998D01*
X664817Y460317D01*
X662498Y462096D01*
X659798Y463214D01*
X656900Y463596D01*
X655100D01*
X652202Y463214D01*
X649502Y462096D01*
X647183Y460317D01*
X645404Y457998D01*
X644286Y455298D01*
X643941Y452675D01*
X642660D01*
X642314Y455298D01*
X641196Y457998D01*
X639417Y460317D01*
X637098Y462096D01*
X634398Y463214D01*
X631500Y463596D01*
X629700D01*
X626802Y463214D01*
X624102Y462096D01*
X621783Y460317D01*
X620004Y457998D01*
X618886Y455298D01*
X618540Y452675D01*
X617259D01*
X616914Y455298D01*
X615796Y457998D01*
X614017Y460317D01*
X611698Y462096D01*
X608998Y463214D01*
X606100Y463596D01*
X604300D01*
X601402Y463214D01*
X598702Y462096D01*
X596383Y460317D01*
X594604Y457998D01*
X593486Y455298D01*
X593140Y452675D01*
X591860D01*
X591514Y455298D01*
X590396Y457998D01*
X588617Y460317D01*
X586298Y462096D01*
X583598Y463214D01*
X580700Y463596D01*
X578900D01*
X576002Y463214D01*
X573302Y462096D01*
X570983Y460317D01*
X569204Y457998D01*
X568086Y455298D01*
X567704Y452400D01*
Y444600D01*
X568086Y441702D01*
X569204Y439002D01*
X570983Y436683D01*
X573302Y434904D01*
X576002Y433786D01*
X578900Y433404D01*
X580700D01*
X583598Y433786D01*
X586298Y434904D01*
X588617Y436683D01*
X590396Y439002D01*
X591514Y441702D01*
X591860Y444325D01*
X593140D01*
X593486Y441702D01*
X594604Y439002D01*
X596383Y436683D01*
X598702Y434904D01*
X601402Y433786D01*
X604300Y433404D01*
X606100D01*
X608998Y433786D01*
X611698Y434904D01*
X614017Y436683D01*
X615796Y439002D01*
X616914Y441702D01*
X617259Y444325D01*
X618540D01*
X618886Y441702D01*
X620004Y439002D01*
X621783Y436683D01*
X624102Y434904D01*
X626087Y434082D01*
Y400200D01*
X625224Y399702D01*
X623548Y398026D01*
X622363Y395974D01*
X621750Y393685D01*
Y391315D01*
X622363Y389026D01*
X623548Y386974D01*
X625224Y385298D01*
X627276Y384113D01*
X629565Y383500D01*
X631935D01*
X634224Y384113D01*
X636276Y385298D01*
X637952Y386974D01*
X639137Y389026D01*
X639750Y391315D01*
Y393685D01*
X639137Y395974D01*
X637952Y398026D01*
X636276Y399702D01*
X635263Y400287D01*
Y434144D01*
X637098Y434904D01*
X639417Y436683D01*
X641196Y439002D01*
X642314Y441702D01*
X642660Y444325D01*
X643941D01*
X644286Y441702D01*
X645404Y439002D01*
X647183Y436683D01*
X649502Y434904D01*
X651662Y434010D01*
Y421890D01*
X650298Y420526D01*
X649113Y418474D01*
X648500Y416185D01*
Y413815D01*
X649113Y411526D01*
X650298Y409474D01*
X651974Y407798D01*
X654026Y406613D01*
X656315Y406000D01*
X658685D01*
X660974Y406613D01*
X663026Y407798D01*
X664702Y409474D01*
X665887Y411526D01*
X666500Y413815D01*
Y416185D01*
X665887Y418474D01*
X664702Y420526D01*
X663026Y422202D01*
X660974Y423387D01*
X660838Y423423D01*
Y434217D01*
X662498Y434904D01*
X664817Y436683D01*
X666596Y439002D01*
X667714Y441702D01*
X668059Y444325D01*
X669341D01*
X669686Y441702D01*
X670804Y439002D01*
X672583Y436683D01*
X674902Y434904D01*
X677602Y433786D01*
X677862Y433751D01*
Y372340D01*
X676298Y370776D01*
X675113Y368724D01*
X674500Y366435D01*
Y364065D01*
X675113Y361776D01*
X676298Y359724D01*
X677974Y358048D01*
X680026Y356863D01*
X682315Y356250D01*
X684685D01*
X686974Y356863D01*
X689026Y358048D01*
X690702Y359724D01*
X691887Y361776D01*
X692500Y364065D01*
Y366435D01*
X691887Y368724D01*
X690702Y370776D01*
X689026Y372452D01*
X687038Y373600D01*
Y434548D01*
X687898Y434904D01*
X690217Y436683D01*
X691996Y439002D01*
X693114Y441702D01*
X693459Y444325D01*
X694741D01*
X695086Y441702D01*
X696204Y439002D01*
X697983Y436683D01*
X700302Y434904D01*
X702212Y434113D01*
Y420493D01*
X701274Y419952D01*
X699598Y418276D01*
X698413Y416224D01*
X697800Y413935D01*
Y411565D01*
X698413Y409276D01*
X699598Y407224D01*
X701274Y405548D01*
X703326Y404363D01*
X705615Y403750D01*
X707985D01*
X710274Y404363D01*
X712326Y405548D01*
X714002Y407224D01*
X715187Y409276D01*
X715800Y411565D01*
Y413935D01*
X715187Y416224D01*
X714002Y418276D01*
X712326Y419952D01*
X711388Y420493D01*
Y434113D01*
X713298Y434904D01*
X715617Y436683D01*
X717396Y439002D01*
X718514Y441702D01*
X718896Y444600D01*
Y452400D01*
X718514Y455298D01*
X717396Y457998D01*
X715617Y460317D01*
X713298Y462096D01*
X710598Y463214D01*
X707700Y463596D01*
D02*
G37*
G36*
X416702Y455550D02*
X413898D01*
X411189Y454824D01*
X408761Y453422D01*
X406778Y451439D01*
X405376Y449011D01*
X404650Y446302D01*
Y443498D01*
X405376Y440789D01*
X406778Y438361D01*
X408761Y436378D01*
X411189Y434976D01*
X413898Y434250D01*
X416702D01*
X419411Y434976D01*
X421839Y436378D01*
X423822Y438361D01*
X425224Y440789D01*
X425950Y443498D01*
Y446302D01*
X425224Y449011D01*
X423822Y451439D01*
X421839Y453422D01*
X419411Y454824D01*
X416702Y455550D01*
D02*
G37*
G36*
X188102D02*
X185298D01*
X182589Y454824D01*
X180161Y453422D01*
X178178Y451439D01*
X176776Y449011D01*
X176050Y446302D01*
Y443498D01*
X176776Y440789D01*
X178178Y438361D01*
X180161Y436378D01*
X182589Y434976D01*
X185298Y434250D01*
X188102D01*
X190811Y434976D01*
X193239Y436378D01*
X195222Y438361D01*
X196624Y440789D01*
X197350Y443498D01*
Y446302D01*
X196624Y449011D01*
X195222Y451439D01*
X193239Y453422D01*
X190811Y454824D01*
X188102Y455550D01*
D02*
G37*
G36*
X416702Y430150D02*
X413898D01*
X411189Y429424D01*
X408761Y428022D01*
X406778Y426039D01*
X405376Y423611D01*
X404650Y420902D01*
Y418098D01*
X405376Y415389D01*
X406778Y412961D01*
X408761Y410978D01*
X411189Y409576D01*
X413898Y408850D01*
X416702D01*
X419411Y409576D01*
X421839Y410978D01*
X423822Y412961D01*
X425224Y415389D01*
X425950Y418098D01*
Y420902D01*
X425224Y423611D01*
X423822Y426039D01*
X421839Y428022D01*
X419411Y429424D01*
X416702Y430150D01*
D02*
G37*
G36*
X188102D02*
X185298D01*
X182589Y429424D01*
X180161Y428022D01*
X178178Y426039D01*
X176776Y423611D01*
X176050Y420902D01*
Y418098D01*
X176776Y415389D01*
X178178Y412961D01*
X180161Y410978D01*
X182589Y409576D01*
X185298Y408850D01*
X188102D01*
X190811Y409576D01*
X193239Y410978D01*
X195222Y412961D01*
X196624Y415389D01*
X197350Y418098D01*
Y420902D01*
X196624Y423611D01*
X195222Y426039D01*
X193239Y428022D01*
X190811Y429424D01*
X188102Y430150D01*
D02*
G37*
G36*
Y404750D02*
X185298D01*
X182589Y404024D01*
X180161Y402622D01*
X178178Y400639D01*
X176776Y398211D01*
X176050Y395502D01*
Y392698D01*
X176776Y389989D01*
X178178Y387561D01*
X180161Y385578D01*
X182589Y384176D01*
X185298Y383450D01*
X188102D01*
X190811Y384176D01*
X193239Y385578D01*
X195222Y387561D01*
X196248Y389337D01*
X211906D01*
X212548Y388224D01*
X214224Y386548D01*
X216276Y385363D01*
X218565Y384750D01*
X220935D01*
X223224Y385363D01*
X225276Y386548D01*
X226952Y388224D01*
X228137Y390276D01*
X228750Y392565D01*
Y394935D01*
X228137Y397224D01*
X226952Y399276D01*
X225276Y400952D01*
X223224Y402137D01*
X220935Y402750D01*
X218565D01*
X216276Y402137D01*
X214224Y400952D01*
X212548Y399276D01*
X212108Y398513D01*
X196450D01*
X195222Y400639D01*
X193239Y402622D01*
X190811Y404024D01*
X188102Y404750D01*
D02*
G37*
G36*
X416702D02*
X413898D01*
X411189Y404024D01*
X408761Y402622D01*
X406778Y400639D01*
X405376Y398211D01*
X404650Y395502D01*
Y392698D01*
X405376Y389989D01*
X406778Y387561D01*
X408761Y385578D01*
X411189Y384176D01*
X413898Y383450D01*
X416702D01*
X419411Y384176D01*
X421839Y385578D01*
X423822Y387561D01*
X425224Y389989D01*
X425950Y392698D01*
Y395502D01*
X425224Y398211D01*
X423822Y400639D01*
X421839Y402622D01*
X419411Y404024D01*
X416702Y404750D01*
D02*
G37*
G36*
Y379350D02*
X413898D01*
X411189Y378624D01*
X408761Y377222D01*
X406778Y375239D01*
X405376Y372811D01*
X404650Y370102D01*
Y367298D01*
X405376Y364589D01*
X406778Y362161D01*
X408761Y360178D01*
X411189Y358776D01*
X413898Y358050D01*
X416702D01*
X419411Y358776D01*
X421839Y360178D01*
X423822Y362161D01*
X425224Y364589D01*
X425950Y367298D01*
Y370102D01*
X425224Y372811D01*
X423822Y375239D01*
X421839Y377222D01*
X419411Y378624D01*
X416702Y379350D01*
D02*
G37*
G36*
X188102D02*
X185298D01*
X182589Y378624D01*
X180161Y377222D01*
X178178Y375239D01*
X176776Y372811D01*
X176050Y370102D01*
Y367298D01*
X176776Y364589D01*
X178178Y362161D01*
X180161Y360178D01*
X182589Y358776D01*
X185298Y358050D01*
X188102D01*
X190811Y358776D01*
X193239Y360178D01*
X195222Y362161D01*
X196349Y364112D01*
X205149D01*
X212030Y357231D01*
X211750Y356185D01*
Y353815D01*
X212363Y351526D01*
X213548Y349474D01*
X215224Y347798D01*
X217276Y346613D01*
X219565Y346000D01*
X221935D01*
X224224Y346613D01*
X226276Y347798D01*
X227952Y349474D01*
X229137Y351526D01*
X229750Y353815D01*
Y356185D01*
X229137Y358474D01*
X227952Y360526D01*
X226276Y362202D01*
X224224Y363387D01*
X221935Y364000D01*
X219565D01*
X218519Y363720D01*
X210294Y371944D01*
X208806Y372939D01*
X207050Y373288D01*
X196349D01*
X195222Y375239D01*
X193239Y377222D01*
X190811Y378624D01*
X188102Y379350D01*
D02*
G37*
G36*
X416702Y353950D02*
X413898D01*
X411189Y353224D01*
X408761Y351822D01*
X406778Y349839D01*
X405376Y347411D01*
X404650Y344702D01*
Y341898D01*
X405376Y339189D01*
X406778Y336761D01*
X408761Y334778D01*
X411189Y333376D01*
X413898Y332650D01*
X416702D01*
X419411Y333376D01*
X421839Y334778D01*
X423822Y336761D01*
X425224Y339189D01*
X425950Y341898D01*
Y344702D01*
X425224Y347411D01*
X423822Y349839D01*
X421839Y351822D01*
X419411Y353224D01*
X416702Y353950D01*
D02*
G37*
G36*
X188102D02*
X185298D01*
X182589Y353224D01*
X180161Y351822D01*
X178178Y349839D01*
X177051Y347888D01*
X155800D01*
X154044Y347539D01*
X152556Y346544D01*
X144231Y338220D01*
X143185Y338500D01*
X140815D01*
X138526Y337887D01*
X136474Y336702D01*
X134798Y335026D01*
X133613Y332974D01*
X133000Y330685D01*
Y328315D01*
X133613Y326026D01*
X134798Y323974D01*
X136474Y322298D01*
X138526Y321113D01*
X140815Y320500D01*
X143185D01*
X145474Y321113D01*
X147526Y322298D01*
X149202Y323974D01*
X150387Y326026D01*
X151000Y328315D01*
Y330685D01*
X150720Y331731D01*
X157701Y338712D01*
X177051D01*
X178178Y336761D01*
X180161Y334778D01*
X182589Y333376D01*
X185298Y332650D01*
X188102D01*
X190811Y333376D01*
X193239Y334778D01*
X195222Y336761D01*
X196624Y339189D01*
X197350Y341898D01*
Y344702D01*
X196624Y347411D01*
X195222Y349839D01*
X193239Y351822D01*
X190811Y353224D01*
X188102Y353950D01*
D02*
G37*
G36*
X349185Y347250D02*
X346815D01*
X344526Y346637D01*
X342474Y345452D01*
X340798Y343776D01*
X339613Y341724D01*
X339000Y339435D01*
Y337065D01*
X339280Y336019D01*
X199385Y196124D01*
X195982D01*
X195222Y197439D01*
X193239Y199422D01*
X190811Y200824D01*
X188102Y201550D01*
X185298D01*
X182589Y200824D01*
X180161Y199422D01*
X178178Y197439D01*
X176776Y195011D01*
X176050Y192302D01*
Y189498D01*
X176776Y186789D01*
X178178Y184361D01*
X180161Y182378D01*
X182589Y180976D01*
X185298Y180250D01*
X188102D01*
X190811Y180976D01*
X193239Y182378D01*
X195222Y184361D01*
X196624Y186789D01*
X196667Y186947D01*
X201285D01*
X203041Y187297D01*
X204530Y188291D01*
X345769Y329530D01*
X346815Y329250D01*
X349185D01*
X351474Y329863D01*
X353526Y331048D01*
X355202Y332724D01*
X356387Y334776D01*
X357000Y337065D01*
Y339435D01*
X356387Y341724D01*
X355202Y343776D01*
X353526Y345452D01*
X351474Y346637D01*
X349185Y347250D01*
D02*
G37*
G36*
X416702Y328550D02*
X413898D01*
X411189Y327824D01*
X408761Y326422D01*
X406778Y324439D01*
X405376Y322011D01*
X404650Y319302D01*
Y316498D01*
X405376Y313789D01*
X406778Y311361D01*
X408761Y309378D01*
X411189Y307976D01*
X413898Y307250D01*
X416702D01*
X419411Y307976D01*
X421839Y309378D01*
X423822Y311361D01*
X425224Y313789D01*
X425950Y316498D01*
Y319302D01*
X425224Y322011D01*
X423822Y324439D01*
X421839Y326422D01*
X419411Y327824D01*
X416702Y328550D01*
D02*
G37*
G36*
X188102D02*
X185298D01*
X182589Y327824D01*
X180161Y326422D01*
X178178Y324439D01*
X176776Y322011D01*
X176050Y319302D01*
Y316498D01*
X176776Y313789D01*
X178178Y311361D01*
X180161Y309378D01*
X182589Y307976D01*
X185298Y307250D01*
X188102D01*
X190811Y307976D01*
X193239Y309378D01*
X195222Y311361D01*
X196624Y313789D01*
X197350Y316498D01*
Y319302D01*
X196624Y322011D01*
X195222Y324439D01*
X193239Y326422D01*
X190811Y327824D01*
X188102Y328550D01*
D02*
G37*
G36*
X416702Y303150D02*
X413898D01*
X411189Y302424D01*
X408761Y301022D01*
X406778Y299039D01*
X405376Y296611D01*
X404650Y293902D01*
Y291098D01*
X405376Y288389D01*
X406778Y285961D01*
X408761Y283978D01*
X411189Y282576D01*
X413898Y281850D01*
X416702D01*
X419411Y282576D01*
X421839Y283978D01*
X423822Y285961D01*
X425224Y288389D01*
X425950Y291098D01*
Y293902D01*
X425224Y296611D01*
X423822Y299039D01*
X421839Y301022D01*
X419411Y302424D01*
X416702Y303150D01*
D02*
G37*
G36*
X188102D02*
X185298D01*
X182589Y302424D01*
X180161Y301022D01*
X178178Y299039D01*
X176776Y296611D01*
X176050Y293902D01*
Y291098D01*
X176776Y288389D01*
X178178Y285961D01*
X180161Y283978D01*
X182589Y282576D01*
X185298Y281850D01*
X188102D01*
X190811Y282576D01*
X193239Y283978D01*
X195222Y285961D01*
X196624Y288389D01*
X197350Y291098D01*
Y293902D01*
X196624Y296611D01*
X195222Y299039D01*
X193239Y301022D01*
X190811Y302424D01*
X188102Y303150D01*
D02*
G37*
G36*
X792773Y311000D02*
X789227D01*
X785750Y310308D01*
X782474Y308951D01*
X779526Y306982D01*
X777019Y304474D01*
X775049Y301526D01*
X773692Y298250D01*
X773000Y294773D01*
Y291227D01*
X773692Y287750D01*
X775049Y284474D01*
X777019Y281526D01*
X779526Y279018D01*
X782474Y277049D01*
X785750Y275692D01*
X789227Y275000D01*
X792773D01*
X796250Y275692D01*
X799526Y277049D01*
X802474Y279018D01*
X804982Y281526D01*
X806951Y284474D01*
X808308Y287750D01*
X809000Y291227D01*
Y294773D01*
X808308Y298250D01*
X806951Y301526D01*
X804982Y304474D01*
X802474Y306982D01*
X799526Y308951D01*
X796250Y310308D01*
X792773Y311000D01*
D02*
G37*
G36*
X572773D02*
X569227D01*
X565750Y310308D01*
X562474Y308951D01*
X559526Y306982D01*
X557019Y304474D01*
X555049Y301526D01*
X553692Y298250D01*
X553000Y294773D01*
Y291227D01*
X553692Y287750D01*
X555049Y284474D01*
X557019Y281526D01*
X559526Y279018D01*
X562474Y277049D01*
X565750Y275692D01*
X569227Y275000D01*
X572773D01*
X576250Y275692D01*
X579526Y277049D01*
X582474Y279018D01*
X584981Y281526D01*
X586951Y284474D01*
X588308Y287750D01*
X589000Y291227D01*
Y294773D01*
X588308Y298250D01*
X586951Y301526D01*
X584981Y304474D01*
X582474Y306982D01*
X579526Y308951D01*
X576250Y310308D01*
X572773Y311000D01*
D02*
G37*
G36*
X416702Y277750D02*
X413898D01*
X411189Y277024D01*
X408761Y275622D01*
X406778Y273639D01*
X405376Y271211D01*
X404650Y268502D01*
Y265698D01*
X405376Y262989D01*
X406778Y260561D01*
X408761Y258578D01*
X411189Y257176D01*
X413898Y256450D01*
X416702D01*
X419411Y257176D01*
X421839Y258578D01*
X423822Y260561D01*
X425224Y262989D01*
X425950Y265698D01*
Y268502D01*
X425224Y271211D01*
X423822Y273639D01*
X421839Y275622D01*
X419411Y277024D01*
X416702Y277750D01*
D02*
G37*
G36*
X188102D02*
X185298D01*
X182589Y277024D01*
X180161Y275622D01*
X178178Y273639D01*
X177051Y271688D01*
X150350D01*
X148594Y271339D01*
X147106Y270344D01*
X132756Y255994D01*
X131761Y254506D01*
X131412Y252750D01*
Y245743D01*
X130474Y245202D01*
X128798Y243526D01*
X127613Y241474D01*
X127000Y239185D01*
Y236815D01*
X127613Y234526D01*
X128798Y232474D01*
X130474Y230798D01*
X132526Y229613D01*
X134815Y229000D01*
X137185D01*
X139474Y229613D01*
X141526Y230798D01*
X143202Y232474D01*
X144387Y234526D01*
X145000Y236815D01*
Y239185D01*
X144387Y241474D01*
X143202Y243526D01*
X141526Y245202D01*
X140588Y245743D01*
Y250849D01*
X152250Y262512D01*
X177051D01*
X178178Y260561D01*
X180161Y258578D01*
X182589Y257176D01*
X185298Y256450D01*
X188102D01*
X190811Y257176D01*
X193239Y258578D01*
X195222Y260561D01*
X196624Y262989D01*
X197350Y265698D01*
Y268502D01*
X196624Y271211D01*
X195222Y273639D01*
X193239Y275622D01*
X190811Y277024D01*
X188102Y277750D01*
D02*
G37*
G36*
X416702Y252350D02*
X413898D01*
X411189Y251624D01*
X408761Y250222D01*
X406778Y248239D01*
X405376Y245811D01*
X404650Y243102D01*
Y240298D01*
X405376Y237589D01*
X406778Y235161D01*
X408761Y233178D01*
X411189Y231776D01*
X413898Y231050D01*
X416702D01*
X419411Y231776D01*
X421839Y233178D01*
X423822Y235161D01*
X425224Y237589D01*
X425950Y240298D01*
Y243102D01*
X425224Y245811D01*
X423822Y248239D01*
X421839Y250222D01*
X419411Y251624D01*
X416702Y252350D01*
D02*
G37*
G36*
X188102D02*
X185298D01*
X182589Y251624D01*
X180161Y250222D01*
X178178Y248239D01*
X176776Y245811D01*
X176050Y243102D01*
Y240298D01*
X176633Y238122D01*
X142599Y204088D01*
X120743D01*
X120202Y205026D01*
X118526Y206702D01*
X116474Y207887D01*
X114185Y208500D01*
X111815D01*
X109526Y207887D01*
X107474Y206702D01*
X105798Y205026D01*
X104613Y202974D01*
X104000Y200685D01*
Y198315D01*
X104613Y196026D01*
X105798Y193974D01*
X107474Y192298D01*
X109526Y191113D01*
X111815Y190500D01*
X114185D01*
X116474Y191113D01*
X118526Y192298D01*
X120202Y193974D01*
X120743Y194912D01*
X144500D01*
X146256Y195261D01*
X147744Y196256D01*
X183122Y231633D01*
X185298Y231050D01*
X188102D01*
X190811Y231776D01*
X193239Y233178D01*
X195222Y235161D01*
X196624Y237589D01*
X197350Y240298D01*
Y243102D01*
X196624Y245811D01*
X195222Y248239D01*
X193239Y250222D01*
X190811Y251624D01*
X188102Y252350D01*
D02*
G37*
G36*
X416702Y226950D02*
X413898D01*
X411189Y226224D01*
X408761Y224822D01*
X406778Y222839D01*
X405376Y220411D01*
X404650Y217702D01*
Y214898D01*
X405376Y212189D01*
X406778Y209761D01*
X408761Y207778D01*
X411189Y206376D01*
X413898Y205650D01*
X416702D01*
X419411Y206376D01*
X421839Y207778D01*
X423822Y209761D01*
X425224Y212189D01*
X425950Y214898D01*
Y217702D01*
X425224Y220411D01*
X423822Y222839D01*
X421839Y224822D01*
X419411Y226224D01*
X416702Y226950D01*
D02*
G37*
G36*
X188102D02*
X185298D01*
X182589Y226224D01*
X180161Y224822D01*
X178178Y222839D01*
X176776Y220411D01*
X176050Y217702D01*
Y214898D01*
X176633Y212722D01*
X153728Y189816D01*
X152733Y188328D01*
X152589Y187605D01*
X151776Y187387D01*
X149724Y186202D01*
X148048Y184526D01*
X146863Y182474D01*
X146250Y180185D01*
Y177815D01*
X146863Y175526D01*
X148048Y173474D01*
X149724Y171798D01*
X151776Y170613D01*
X154065Y170000D01*
X156435D01*
X158724Y170613D01*
X160776Y171798D01*
X162452Y173474D01*
X163637Y175526D01*
X164250Y177815D01*
Y180185D01*
X163637Y182474D01*
X162452Y184526D01*
X161933Y185045D01*
X183122Y206233D01*
X185298Y205650D01*
X188102D01*
X190811Y206376D01*
X193239Y207778D01*
X195222Y209761D01*
X196624Y212189D01*
X197350Y214898D01*
Y217702D01*
X196624Y220411D01*
X195222Y222839D01*
X193239Y224822D01*
X190811Y226224D01*
X188102Y226950D01*
D02*
G37*
G36*
X416702Y201550D02*
X413898D01*
X411189Y200824D01*
X408761Y199422D01*
X406778Y197439D01*
X405376Y195011D01*
X404650Y192302D01*
Y189498D01*
X405376Y186789D01*
X406778Y184361D01*
X408761Y182378D01*
X411189Y180976D01*
X413898Y180250D01*
X416702D01*
X419411Y180976D01*
X421839Y182378D01*
X423822Y184361D01*
X425224Y186789D01*
X425950Y189498D01*
Y192302D01*
X425224Y195011D01*
X423822Y197439D01*
X421839Y199422D01*
X419411Y200824D01*
X416702Y201550D01*
D02*
G37*
G36*
X759435Y247500D02*
X757065D01*
X754776Y246887D01*
X752724Y245702D01*
X751048Y244026D01*
X749863Y241974D01*
X749250Y239685D01*
Y237315D01*
X749863Y235026D01*
X751048Y232974D01*
X751190Y232833D01*
Y209250D01*
X751430Y207423D01*
X752135Y205720D01*
X753258Y204258D01*
X766808Y190707D01*
X768270Y189585D01*
X769973Y188880D01*
X771800Y188640D01*
X782836D01*
X784183Y186883D01*
X786502Y185104D01*
X789202Y183986D01*
X791825Y183640D01*
Y182360D01*
X789202Y182014D01*
X786502Y180896D01*
X784183Y179117D01*
X782404Y176798D01*
X781613Y174888D01*
X486693D01*
X486152Y175826D01*
X484476Y177502D01*
X482424Y178687D01*
X480135Y179300D01*
X477765D01*
X475476Y178687D01*
X473424Y177502D01*
X471748Y175826D01*
X470563Y173774D01*
X469950Y171485D01*
Y169115D01*
X470563Y166826D01*
X471748Y164774D01*
X473424Y163098D01*
X475476Y161913D01*
X477765Y161300D01*
X480135D01*
X482424Y161913D01*
X484476Y163098D01*
X486152Y164774D01*
X486693Y165712D01*
X781613D01*
X782404Y163802D01*
X784183Y161483D01*
X786502Y159704D01*
X789202Y158586D01*
X791825Y158240D01*
Y156959D01*
X789202Y156614D01*
X786502Y155496D01*
X784183Y153717D01*
X782404Y151398D01*
X781323Y148788D01*
X466339D01*
X466202Y149026D01*
X464526Y150702D01*
X462474Y151887D01*
X460185Y152500D01*
X457815D01*
X455526Y151887D01*
X453474Y150702D01*
X451798Y149026D01*
X450613Y146974D01*
X450000Y144685D01*
Y142315D01*
X450613Y140026D01*
X451798Y137974D01*
X453474Y136298D01*
X455526Y135113D01*
X457815Y134500D01*
X460185D01*
X462474Y135113D01*
X464526Y136298D01*
X466202Y137974D01*
X467147Y139612D01*
X781903D01*
X782404Y138402D01*
X784183Y136083D01*
X786502Y134304D01*
X789202Y133186D01*
X792100Y132804D01*
X799900D01*
X802798Y133186D01*
X805498Y134304D01*
X807817Y136083D01*
X809596Y138402D01*
X810714Y141102D01*
X811096Y144000D01*
Y145800D01*
X810714Y148698D01*
X809596Y151398D01*
X807817Y153717D01*
X805498Y155496D01*
X802798Y156614D01*
X800175Y156959D01*
Y158240D01*
X802798Y158586D01*
X805498Y159704D01*
X807817Y161483D01*
X809596Y163802D01*
X810714Y166502D01*
X811096Y169400D01*
Y171200D01*
X810714Y174098D01*
X809596Y176798D01*
X807817Y179117D01*
X805498Y180896D01*
X802798Y182014D01*
X800175Y182360D01*
Y183640D01*
X802798Y183986D01*
X805498Y185104D01*
X807817Y186883D01*
X809596Y189202D01*
X810714Y191902D01*
X811096Y194800D01*
Y196600D01*
X810714Y199498D01*
X809596Y202198D01*
X807817Y204517D01*
X805498Y206296D01*
X802798Y207414D01*
X799900Y207796D01*
X792100D01*
X789202Y207414D01*
X786502Y206296D01*
X784183Y204517D01*
X782836Y202760D01*
X774725D01*
X765310Y212174D01*
Y232833D01*
X765452Y232974D01*
X766637Y235026D01*
X767250Y237315D01*
Y239685D01*
X766637Y241974D01*
X765452Y244026D01*
X763776Y245702D01*
X761724Y246887D01*
X759435Y247500D01*
D02*
G37*
G36*
X416702Y176150D02*
X413898D01*
X411189Y175424D01*
X408761Y174022D01*
X406778Y172039D01*
X405376Y169611D01*
X404650Y166902D01*
Y164098D01*
X405376Y161389D01*
X406778Y158961D01*
X408761Y156978D01*
X411189Y155576D01*
X413898Y154850D01*
X416702D01*
X419411Y155576D01*
X421839Y156978D01*
X423822Y158961D01*
X425224Y161389D01*
X425950Y164098D01*
Y166902D01*
X425224Y169611D01*
X423822Y172039D01*
X421839Y174022D01*
X419411Y175424D01*
X416702Y176150D01*
D02*
G37*
G36*
X188102D02*
X185298D01*
X182589Y175424D01*
X180161Y174022D01*
X178178Y172039D01*
X176776Y169611D01*
X176050Y166902D01*
Y164098D01*
X176776Y161389D01*
X178178Y158961D01*
X180161Y156978D01*
X182589Y155576D01*
X185298Y154850D01*
X188102D01*
X190811Y155576D01*
X193239Y156978D01*
X195222Y158961D01*
X196624Y161389D01*
X197350Y164098D01*
Y166902D01*
X196624Y169611D01*
X195222Y172039D01*
X193239Y174022D01*
X190811Y175424D01*
X188102Y176150D01*
D02*
G37*
G36*
X373685Y344500D02*
X371315D01*
X369026Y343887D01*
X366974Y342702D01*
X365298Y341026D01*
X364113Y338974D01*
X363500Y336685D01*
Y334315D01*
X364113Y332026D01*
X365298Y329974D01*
X366974Y328298D01*
X367912Y327757D01*
Y155400D01*
X357775Y145263D01*
X196017D01*
X195222Y146639D01*
X193239Y148622D01*
X190811Y150024D01*
X188102Y150750D01*
X185298D01*
X182589Y150024D01*
X180161Y148622D01*
X178178Y146639D01*
X176776Y144211D01*
X176050Y141502D01*
Y138698D01*
X176776Y135989D01*
X178178Y133561D01*
X180161Y131578D01*
X182589Y130176D01*
X185298Y129450D01*
X188102D01*
X190811Y130176D01*
X193239Y131578D01*
X195222Y133561D01*
X196624Y135989D01*
X196650Y136087D01*
X359675D01*
X361431Y136436D01*
X362919Y137431D01*
X375744Y150256D01*
X376739Y151744D01*
X377088Y153500D01*
Y327757D01*
X378026Y328298D01*
X379702Y329974D01*
X380887Y332026D01*
X381500Y334315D01*
Y336685D01*
X380887Y338974D01*
X379702Y341026D01*
X378026Y342702D01*
X375974Y343887D01*
X373685Y344500D01*
D02*
G37*
G36*
X416702Y150750D02*
X413898D01*
X411189Y150024D01*
X408761Y148622D01*
X406778Y146639D01*
X405376Y144211D01*
X404650Y141502D01*
Y138698D01*
X405376Y135989D01*
X406778Y133561D01*
X408761Y131578D01*
X411189Y130176D01*
X413898Y129450D01*
X416702D01*
X419411Y130176D01*
X421839Y131578D01*
X423822Y133561D01*
X425224Y135989D01*
X425950Y138698D01*
Y141502D01*
X425224Y144211D01*
X423822Y146639D01*
X421839Y148622D01*
X419411Y150024D01*
X416702Y150750D01*
D02*
G37*
G36*
X188102Y125350D02*
X185298D01*
X182589Y124624D01*
X180161Y123222D01*
X178178Y121239D01*
X176776Y118811D01*
X176050Y116102D01*
Y113298D01*
X176776Y110589D01*
X178178Y108161D01*
X180161Y106178D01*
X182589Y104776D01*
X185298Y104050D01*
X188102D01*
X190811Y104776D01*
X193239Y106178D01*
X195222Y108161D01*
X196624Y110589D01*
X197350Y113298D01*
Y116102D01*
X196624Y118811D01*
X195222Y121239D01*
X193239Y123222D01*
X190811Y124624D01*
X188102Y125350D01*
D02*
G37*
G36*
X792773Y91000D02*
X789227D01*
X785750Y90308D01*
X782474Y88951D01*
X779526Y86981D01*
X777019Y84474D01*
X775049Y81526D01*
X773692Y78250D01*
X773000Y74773D01*
Y71227D01*
X773692Y67750D01*
X775049Y64474D01*
X777019Y61526D01*
X779526Y59019D01*
X782474Y57049D01*
X785750Y55692D01*
X789227Y55000D01*
X792773D01*
X796250Y55692D01*
X799526Y57049D01*
X802474Y59019D01*
X804982Y61526D01*
X806951Y64474D01*
X808308Y67750D01*
X809000Y71227D01*
Y74773D01*
X808308Y78250D01*
X806951Y81526D01*
X804982Y84474D01*
X802474Y86981D01*
X799526Y88951D01*
X796250Y90308D01*
X792773Y91000D01*
D02*
G37*
G36*
X572773D02*
X569227D01*
X565750Y90308D01*
X562474Y88951D01*
X559526Y86981D01*
X557019Y84474D01*
X555049Y81526D01*
X553692Y78250D01*
X553000Y74773D01*
Y71227D01*
X553692Y67750D01*
X555049Y64474D01*
X557019Y61526D01*
X559526Y59019D01*
X562474Y57049D01*
X565750Y55692D01*
X569227Y55000D01*
X572773D01*
X576250Y55692D01*
X579526Y57049D01*
X582474Y59019D01*
X584981Y61526D01*
X586951Y64474D01*
X588308Y67750D01*
X589000Y71227D01*
Y74773D01*
X588308Y78250D01*
X586951Y81526D01*
X584981Y84474D01*
X582474Y86981D01*
X579526Y88951D01*
X576250Y90308D01*
X572773Y91000D01*
D02*
G37*
G36*
X57179Y75090D02*
X53141D01*
X49180Y74302D01*
X45450Y72757D01*
X42092Y70513D01*
X39237Y67658D01*
X36993Y64300D01*
X35448Y60570D01*
X34660Y56609D01*
Y52571D01*
X35448Y48610D01*
X36993Y44880D01*
X39237Y41522D01*
X42092Y38667D01*
X45450Y36423D01*
X49180Y34878D01*
X53141Y34090D01*
X57179D01*
X61140Y34878D01*
X64870Y36423D01*
X68228Y38667D01*
X71083Y41522D01*
X73327Y44880D01*
X74872Y48610D01*
X75660Y52571D01*
Y56609D01*
X74872Y60570D01*
X73327Y64300D01*
X71083Y67658D01*
X68228Y70513D01*
X64870Y72757D01*
X61140Y74302D01*
X57179Y75090D01*
D02*
G37*
%LPD*%
D13*
X459000Y143500D02*
X459700Y144200D01*
X795300D01*
X796000Y144900D01*
X478950Y170300D02*
X796000D01*
X219575Y393925D02*
X219750Y393750D01*
X186700Y394100D02*
X186875Y393925D01*
X219575D01*
X186700Y368700D02*
X207050D01*
X220750Y355000D01*
X359675Y140675D02*
X372500Y153500D01*
Y335500D01*
X187275Y140675D02*
X359675D01*
X186700Y190900D02*
X187335Y191535D01*
X201285D02*
X348000Y338250D01*
X187335Y191535D02*
X201285D01*
X186700Y140100D02*
X187275Y140675D01*
X655250Y697750D02*
X656000Y698500D01*
X655250Y656750D02*
Y697750D01*
X654500Y656000D02*
X655250Y656750D01*
X605475Y642025D02*
Y698225D01*
Y642025D02*
X606250Y641250D01*
X605200Y698500D02*
X605475Y698225D01*
X629800Y697700D02*
X630600Y698500D01*
X629800Y671800D02*
Y697700D01*
X629000Y671000D02*
X629800Y671800D01*
X186700Y495700D02*
X210200D01*
X220250Y505750D01*
X142000Y329500D02*
X155800Y343300D01*
X186700D01*
X682450Y366300D02*
X683500Y365250D01*
X681400Y448500D02*
X682450Y447450D01*
Y366300D02*
Y447450D01*
X144500Y199500D02*
X186700Y241700D01*
X113000Y199500D02*
X144500D01*
X156972Y180722D02*
Y186572D01*
X155250Y179000D02*
X156972Y180722D01*
Y186572D02*
X186700Y216300D01*
X136000Y238000D02*
Y252750D01*
X150350Y267100D02*
X186700D01*
X136000Y252750D02*
X150350Y267100D01*
X656250Y416250D02*
X657500Y415000D01*
X656250Y416250D02*
Y448250D01*
X630675Y392575D02*
Y448425D01*
X630600Y448500D02*
X630675Y448425D01*
Y392575D02*
X630750Y392500D01*
X656000Y448500D02*
X656250Y448250D01*
X706800Y412750D02*
Y448500D01*
D14*
X758250Y209250D02*
Y238500D01*
Y209250D02*
X771800Y195700D01*
X159750Y745500D02*
X168398Y736852D01*
X276000D01*
X276102Y736750D01*
X325250D01*
X337101Y748601D01*
Y763101D02*
X338000Y764000D01*
X283000D02*
X338000D01*
X337101Y748601D02*
Y763101D01*
X489150Y793150D02*
X538750D01*
X488750Y792750D02*
X489150Y793150D01*
X771800Y195700D02*
X796000D01*
D15*
X681450Y698550D02*
Y738200D01*
X681500Y738250D01*
X681400Y698500D02*
X681450Y698550D01*
D16*
X76000Y623000D02*
X186400D01*
X186700Y597300D02*
Y622700D01*
X186400Y623000D02*
X186700Y622700D01*
D17*
X26000Y623000D02*
D03*
D18*
X76000Y623000D02*
D03*
D19*
X571000Y293000D02*
D03*
Y73000D02*
D03*
X791000D02*
D03*
Y293000D02*
D03*
D20*
X796000Y144900D02*
D03*
Y170300D02*
D03*
Y195700D02*
D03*
X538750Y793150D02*
D03*
X283000Y764000D02*
D03*
D21*
X796000Y221100D02*
D03*
X538750Y767750D02*
D03*
X283000Y789400D02*
D03*
D22*
X159750Y745500D02*
D03*
D23*
Y694700D02*
D03*
D24*
X186700Y89300D02*
D03*
X415300D02*
D03*
X186700Y114700D02*
D03*
Y140100D02*
D03*
Y165500D02*
D03*
Y190900D02*
D03*
Y216300D02*
D03*
Y241700D02*
D03*
Y267100D02*
D03*
Y292500D02*
D03*
Y317900D02*
D03*
Y343300D02*
D03*
Y368700D02*
D03*
Y394100D02*
D03*
Y419500D02*
D03*
Y444900D02*
D03*
Y470300D02*
D03*
Y495700D02*
D03*
Y521100D02*
D03*
Y546500D02*
D03*
Y571900D02*
D03*
Y597300D02*
D03*
X415300Y114700D02*
D03*
Y140100D02*
D03*
Y165500D02*
D03*
Y190900D02*
D03*
Y216300D02*
D03*
Y241700D02*
D03*
Y267100D02*
D03*
Y292500D02*
D03*
Y317900D02*
D03*
Y343300D02*
D03*
Y368700D02*
D03*
Y394100D02*
D03*
Y419500D02*
D03*
Y444900D02*
D03*
Y470300D02*
D03*
Y495700D02*
D03*
Y521100D02*
D03*
Y546500D02*
D03*
Y571900D02*
D03*
Y597300D02*
D03*
Y622700D02*
D03*
D25*
X186700D02*
D03*
D26*
X732200Y448500D02*
D03*
X706800D02*
D03*
X681400D02*
D03*
X656000D02*
D03*
X630600D02*
D03*
X605200D02*
D03*
X579800D02*
D03*
X554400D02*
D03*
X605200Y698500D02*
D03*
X630600D02*
D03*
X656000D02*
D03*
X681400D02*
D03*
X706800D02*
D03*
X554400D02*
D03*
X579800D02*
D03*
D27*
X732200D02*
D03*
D28*
X758250Y238500D02*
D03*
X459000Y143500D02*
D03*
X127000Y623500D02*
D03*
X681500Y738250D02*
D03*
X220750Y355000D02*
D03*
X219750Y393750D02*
D03*
X478950Y170300D02*
D03*
X372500Y335500D02*
D03*
X348000Y338250D02*
D03*
X654500Y656000D02*
D03*
X606250Y641250D02*
D03*
X629000Y671000D02*
D03*
X220250Y505750D02*
D03*
X142000Y329500D02*
D03*
X683500Y365250D02*
D03*
X113000Y199500D02*
D03*
X155250Y179000D02*
D03*
X136000Y238000D02*
D03*
X657500Y415000D02*
D03*
X630750Y392500D02*
D03*
X706800Y412750D02*
D03*
D29*
X338000Y764000D02*
D03*
X382000Y729000D02*
D03*
Y800000D02*
D03*
X472000Y698000D02*
D03*
X489750Y792750D02*
D03*
M02*
