G04*
G04 #@! TF.GenerationSoftware,Altium Limited,Altium Designer,22.3.1 (43)*
G04*
G04 Layer_Color=8388736*
%FSLAX43Y43*%
%MOMM*%
G71*
G04*
G04 #@! TF.SameCoordinates,8C9F7EA6-DC28-4F61-B7EA-CFDFC9404C79*
G04*
G04*
G04 #@! TF.FilePolarity,Positive*
G04*
G01*
G75*
%ADD30C,0.254*%
D30*
X1083Y80950D02*
G03*
X600Y80750I0J-683D01*
G01*
D02*
G03*
X100Y79543I1207J-1207D01*
G01*
X82050Y80725D02*
G03*
X81507Y80950I-543J-543D01*
G01*
X82350Y80001D02*
G03*
X82050Y80725I-1024J0D01*
G01*
X81055Y150D02*
G03*
X82325Y1420I0J1270D01*
G01*
X516Y459D02*
G03*
X1262Y150I746J746D01*
G01*
X0Y1705D02*
G03*
X516Y459I1761J0D01*
G01*
X1083Y80950D02*
X1310D01*
X100Y79475D02*
Y79543D01*
Y78550D02*
Y79475D01*
X0Y1705D02*
X100Y78550D01*
X0Y1705D02*
Y44725D01*
X1310Y80950D02*
X1800D01*
X7625D01*
X23625D01*
X35900D01*
X38450D01*
X50100D01*
X73250D01*
X81507D01*
X82350Y79650D02*
Y80001D01*
Y11850D02*
Y79650D01*
X82325Y1420D02*
X82350Y11850D01*
X80400Y150D02*
X81055D01*
X26125D02*
X80400D01*
X1262D02*
X26125D01*
X0Y1705D02*
Y44725D01*
M02*
