G04*
G04 #@! TF.GenerationSoftware,Altium Limited,Altium Designer,22.3.1 (43)*
G04*
G04 Layer_Physical_Order=1*
G04 Layer_Color=255*
%FSLAX43Y43*%
%MOMM*%
G71*
G04*
G04 #@! TF.SameCoordinates,734E60B2-F3FE-465F-A17A-86E0D649303B*
G04*
G04*
G04 #@! TF.FilePolarity,Positive*
G04*
G01*
G75*
%ADD10R,1.470X1.020*%
%ADD11R,1.000X0.700*%
%ADD12C,0.800*%
%ADD13C,0.500*%
%ADD14C,0.300*%
G04:AMPARAMS|DCode=15|XSize=1.8mm|YSize=2mm|CornerRadius=0.45mm|HoleSize=0mm|Usage=FLASHONLY|Rotation=180.000|XOffset=0mm|YOffset=0mm|HoleType=Round|Shape=RoundedRectangle|*
%AMROUNDEDRECTD15*
21,1,1.800,1.100,0,0,180.0*
21,1,0.900,2.000,0,0,180.0*
1,1,0.900,-0.450,0.550*
1,1,0.900,0.450,0.550*
1,1,0.900,0.450,-0.550*
1,1,0.900,-0.450,-0.550*
%
%ADD15ROUNDEDRECTD15*%
%ADD16R,1.800X1.800*%
%ADD17C,3.000*%
G04:AMPARAMS|DCode=18|XSize=1.8mm|YSize=2.4mm|CornerRadius=0.81mm|HoleSize=0mm|Usage=FLASHONLY|Rotation=270.000|XOffset=0mm|YOffset=0mm|HoleType=Round|Shape=RoundedRectangle|*
%AMROUNDEDRECTD18*
21,1,1.800,0.780,0,0,270.0*
21,1,0.180,2.400,0,0,270.0*
1,1,1.620,-0.390,-0.090*
1,1,1.620,-0.390,0.090*
1,1,1.620,0.390,0.090*
1,1,1.620,0.390,-0.090*
%
%ADD18ROUNDEDRECTD18*%
%ADD19R,2.000X2.000*%
%ADD20R,2.600X2.600*%
%ADD21O,2.800X2.600*%
%ADD22C,1.530*%
%ADD23R,1.530X1.530*%
G04:AMPARAMS|DCode=24|XSize=1.8mm|YSize=2.4mm|CornerRadius=0.81mm|HoleSize=0mm|Usage=FLASHONLY|Rotation=180.000|XOffset=0mm|YOffset=0mm|HoleType=Round|Shape=RoundedRectangle|*
%AMROUNDEDRECTD24*
21,1,1.800,0.780,0,0,180.0*
21,1,0.180,2.400,0,0,180.0*
1,1,1.620,-0.090,0.390*
1,1,1.620,0.090,0.390*
1,1,1.620,0.090,-0.390*
1,1,1.620,-0.090,-0.390*
%
%ADD24ROUNDEDRECTD24*%
%ADD25R,2.000X2.000*%
%ADD26C,1.270*%
%ADD27C,1.200*%
D10*
X47200Y73825D02*
D03*
Y72225D02*
D03*
X38200Y76400D02*
D03*
Y78000D02*
D03*
D11*
X43000Y71925D02*
D03*
Y73825D02*
D03*
X40600Y71925D02*
D03*
Y72875D02*
D03*
Y73825D02*
D03*
D12*
X38200Y74900D02*
Y75200D01*
X39275Y73825D02*
X40500D01*
X38200Y74900D02*
X39275Y73825D01*
X38200Y75200D02*
Y76400D01*
X12700Y62350D02*
X12777Y62427D01*
Y64027D01*
X68150Y73825D02*
X73300D01*
X75775Y21833D02*
Y71350D01*
X73300Y73825D02*
X75775Y71350D01*
X47200Y73825D02*
X68150D01*
X12777Y64027D02*
X13850Y65100D01*
X22175D02*
X25550Y68475D01*
X13850Y65100D02*
X22175D01*
X75400Y21458D02*
X75775Y21833D01*
X75400Y21350D02*
Y21458D01*
X25550Y68475D02*
X44631D01*
X45100Y68944D01*
Y73825D01*
X47200D01*
X43000D02*
X45100D01*
X47125Y73900D02*
X47200Y73825D01*
X47125Y73900D02*
Y78806D01*
X47594Y79275D02*
X48975D01*
X47125Y78806D02*
X47594Y79275D01*
X33800Y76400D02*
X38200D01*
Y78000D02*
Y80000D01*
X47200Y69800D02*
Y72225D01*
D13*
X38225Y72875D02*
X40600D01*
X38200Y72900D02*
X38225Y72875D01*
D14*
X21950Y62325D02*
X26725Y67100D01*
X62900D01*
X21950Y50550D02*
Y62325D01*
X36500Y74300D02*
Y75000D01*
X39650Y71850D02*
X40525D01*
X39400Y71600D02*
X39650Y71850D01*
X40525D02*
X40600Y71925D01*
X36600Y71600D02*
X39400D01*
X36300Y71900D02*
X36600Y71600D01*
X36300Y71900D02*
Y74100D01*
X36500Y74300D01*
X36700Y75200D02*
X37900D01*
X38200Y74900D01*
X36500Y75000D02*
X36700Y75200D01*
X39200Y65600D02*
X65450D01*
X34700Y61100D02*
X39200Y65600D01*
X21706Y39494D02*
X33065Y28135D01*
X22112Y35537D02*
X37135Y20515D01*
X33065Y28135D02*
X41682D01*
X37250Y61925D02*
X39475Y64150D01*
X37250Y33550D02*
Y61925D01*
X41682Y28135D02*
X44650Y25167D01*
Y25000D02*
Y25167D01*
X45167Y17030D02*
X47895D01*
X41682Y20515D02*
X45167Y17030D01*
X37135Y20515D02*
X41682D01*
X34700Y33925D02*
Y61100D01*
Y33925D02*
X34800Y33825D01*
X39475Y64150D02*
X60600D01*
X60625Y64125D01*
X9475Y5550D02*
X12825Y2200D01*
X44650D02*
X70680Y28230D01*
X12825Y2200D02*
X44650D01*
X9475Y28225D02*
X14200Y32950D01*
X9475Y5550D02*
Y28225D01*
X70680Y28230D02*
Y41275D01*
X53725Y13150D02*
Y30800D01*
X44650Y4075D02*
X53725Y13150D01*
X13450Y4075D02*
X44650D01*
X59450Y36525D02*
X68350D01*
X53725Y30800D02*
X59450Y36525D01*
X60600Y39250D02*
X63075D01*
X52400Y14025D02*
Y31050D01*
X60600Y39250D01*
X43925Y5550D02*
X52400Y14025D01*
X11200Y19850D02*
X11300Y19950D01*
X11200Y6325D02*
Y19850D01*
Y6325D02*
X13450Y4075D01*
X15525Y9031D02*
X17706Y6850D01*
X43500D01*
X50725Y14075D01*
Y31075D02*
X61150Y41500D01*
X50725Y14075D02*
Y31075D01*
X13625Y8250D02*
Y23775D01*
X16325Y5550D02*
X43925D01*
X13625Y8250D02*
X16325Y5550D01*
X15525Y9031D02*
Y17900D01*
X13600Y23800D02*
X13625Y23775D01*
X61150Y41500D02*
X65750D01*
X60520Y69550D02*
Y69850D01*
D15*
X2600Y62300D02*
D03*
D16*
X7600Y62300D02*
D03*
D17*
X57100Y29300D02*
D03*
Y7300D02*
D03*
X79100D02*
D03*
Y29300D02*
D03*
D18*
X79600Y14490D02*
D03*
Y17030D02*
D03*
Y19570D02*
D03*
X53875Y79315D02*
D03*
X28300Y76400D02*
D03*
D19*
X79600Y22110D02*
D03*
X53875Y76775D02*
D03*
X28300Y78940D02*
D03*
D20*
X15975Y74550D02*
D03*
D21*
Y69470D02*
D03*
D22*
X18670Y8930D02*
D03*
X41530D02*
D03*
X18670Y11470D02*
D03*
Y14010D02*
D03*
Y16550D02*
D03*
Y19090D02*
D03*
Y21630D02*
D03*
Y24170D02*
D03*
Y26710D02*
D03*
Y29250D02*
D03*
Y31790D02*
D03*
Y34330D02*
D03*
Y36870D02*
D03*
Y39410D02*
D03*
Y41950D02*
D03*
Y44490D02*
D03*
Y47030D02*
D03*
Y49570D02*
D03*
Y52110D02*
D03*
Y54650D02*
D03*
Y57190D02*
D03*
Y59730D02*
D03*
X41530Y11470D02*
D03*
Y14010D02*
D03*
Y16550D02*
D03*
Y19090D02*
D03*
Y21630D02*
D03*
Y24170D02*
D03*
Y26710D02*
D03*
Y29250D02*
D03*
Y31790D02*
D03*
Y34330D02*
D03*
Y36870D02*
D03*
Y39410D02*
D03*
Y41950D02*
D03*
Y44490D02*
D03*
Y47030D02*
D03*
Y49570D02*
D03*
Y52110D02*
D03*
Y54650D02*
D03*
Y57190D02*
D03*
Y59730D02*
D03*
Y62270D02*
D03*
D23*
X18670D02*
D03*
D24*
X73220Y44850D02*
D03*
X70680D02*
D03*
X68140D02*
D03*
X65600D02*
D03*
X63060D02*
D03*
X60520D02*
D03*
X57980D02*
D03*
X55440D02*
D03*
X60520Y69850D02*
D03*
X63060D02*
D03*
X65600D02*
D03*
X68140D02*
D03*
X70680D02*
D03*
X55440D02*
D03*
X57980D02*
D03*
D25*
X73220D02*
D03*
D26*
X33800Y76400D02*
D03*
X38200Y72900D02*
D03*
Y80000D02*
D03*
X47200Y69800D02*
D03*
X48975Y79275D02*
D03*
D27*
X75400Y21350D02*
D03*
X12700Y62350D02*
D03*
X68150Y73825D02*
D03*
X22075Y35500D02*
D03*
X21975Y39375D02*
D03*
X44650Y25000D02*
D03*
X47895Y17030D02*
D03*
X37250Y33550D02*
D03*
X34800Y33825D02*
D03*
X65450Y65600D02*
D03*
X60625Y64125D02*
D03*
X62900Y67100D02*
D03*
X22025Y50575D02*
D03*
X14200Y32950D02*
D03*
X68350Y36525D02*
D03*
X11300Y19950D02*
D03*
X15525Y17900D02*
D03*
X13600Y23800D02*
D03*
X65750Y41500D02*
D03*
X63075Y39250D02*
D03*
X70680Y41275D02*
D03*
M02*
