M48
;Layer_Color=9474304
;FILE_FORMAT=4:3
METRIC,LZ
;TYPE=PLATED
T1F00S00C0.700
T2F00S00C1.000
T3F00S00C1.020
T4F00S00C1.600
T5F00S00C2.000
T6F00S00C3.500
%
T01
X00754Y002135
X006835Y0036525
X007068Y0041275
X006575Y00415
X0063075Y003925
X003725Y003355
X00348Y0033825
X0022075Y00355
X0021975Y0039375
X0022025Y0050575
X00142Y003295
X00136Y00238
X00113Y001995
X0015525Y00179
X0047895Y001703
X004465Y0025
X00472Y00698
X0048975Y0079275
X00382Y008
Y00729
X00338Y00764
X00127Y006235
X0060625Y0064125
X00629Y00671
X006545Y00656
X006815Y0073825
T02
X00796Y001449
Y001703
Y001957
Y002211
X007322Y004485
X007068
X006814
X00656
X006306
X006052
X005798
X005544
X00076Y00623
X00026Y00623
X00283Y00764
Y007894
X0053875Y0079315
Y0076775
X005544Y006985
X005798
X006052
X006306
X00656
X006814
X007068
X007322
T03
X001867Y000893
Y001147
X004153
Y000893
Y001401
Y001655
Y001909
Y002163
Y002417
Y002671
Y002925
Y003179
Y003433
Y003687
Y003941
Y004195
Y004449
Y004703
Y004957
Y005211
X001867
Y004957
Y004703
Y004449
Y004195
Y003941
Y003687
Y003433
Y003179
Y002925
Y002671
Y002417
Y002163
Y001909
Y001655
Y001401
Y005465
Y005719
Y005973
Y006227
X004153
Y005973
Y005719
Y005465
T04
X0015975Y006947
Y007455
T05
X00571Y00073
X00791
Y00293
X00571
T06
X0005516Y0005459
X00056Y007575
X007705Y0075725
M30
