G04*
G04 #@! TF.GenerationSoftware,Altium Limited,Altium Designer,22.3.1 (43)*
G04*
G04 Layer_Physical_Order=2*
G04 Layer_Color=16711680*
%FSLAX43Y43*%
%MOMM*%
G71*
G04*
G04 #@! TF.SameCoordinates,734E60B2-F3FE-465F-A17A-86E0D649303B*
G04*
G04*
G04 #@! TF.FilePolarity,Positive*
G04*
G01*
G75*
%ADD12C,0.800*%
%ADD13C,0.500*%
%ADD14C,0.300*%
G04:AMPARAMS|DCode=15|XSize=1.8mm|YSize=2mm|CornerRadius=0.45mm|HoleSize=0mm|Usage=FLASHONLY|Rotation=180.000|XOffset=0mm|YOffset=0mm|HoleType=Round|Shape=RoundedRectangle|*
%AMROUNDEDRECTD15*
21,1,1.800,1.100,0,0,180.0*
21,1,0.900,2.000,0,0,180.0*
1,1,0.900,-0.450,0.550*
1,1,0.900,0.450,0.550*
1,1,0.900,0.450,-0.550*
1,1,0.900,-0.450,-0.550*
%
%ADD15ROUNDEDRECTD15*%
%ADD16R,1.800X1.800*%
%ADD17C,3.000*%
G04:AMPARAMS|DCode=18|XSize=1.8mm|YSize=2.4mm|CornerRadius=0.81mm|HoleSize=0mm|Usage=FLASHONLY|Rotation=270.000|XOffset=0mm|YOffset=0mm|HoleType=Round|Shape=RoundedRectangle|*
%AMROUNDEDRECTD18*
21,1,1.800,0.780,0,0,270.0*
21,1,0.180,2.400,0,0,270.0*
1,1,1.620,-0.390,-0.090*
1,1,1.620,-0.390,0.090*
1,1,1.620,0.390,0.090*
1,1,1.620,0.390,-0.090*
%
%ADD18ROUNDEDRECTD18*%
%ADD19R,2.000X2.000*%
%ADD20R,2.600X2.600*%
%ADD21O,2.800X2.600*%
%ADD22C,1.530*%
%ADD23R,1.530X1.530*%
G04:AMPARAMS|DCode=24|XSize=1.8mm|YSize=2.4mm|CornerRadius=0.81mm|HoleSize=0mm|Usage=FLASHONLY|Rotation=180.000|XOffset=0mm|YOffset=0mm|HoleType=Round|Shape=RoundedRectangle|*
%AMROUNDEDRECTD24*
21,1,1.800,0.780,0,0,180.0*
21,1,0.180,2.400,0,0,180.0*
1,1,1.620,-0.090,0.390*
1,1,1.620,0.090,0.390*
1,1,1.620,0.090,-0.390*
1,1,1.620,-0.090,-0.390*
%
%ADD24ROUNDEDRECTD24*%
%ADD25R,2.000X2.000*%
%ADD26C,1.270*%
%ADD27C,1.200*%
G36*
X82425Y85D02*
X82400Y75D01*
X115D01*
X25Y165D01*
X50Y81065D01*
X75Y81075D01*
X82425D01*
Y85D01*
D02*
G37*
%LPC*%
G36*
X54265Y80424D02*
X53485D01*
X53221Y80389D01*
X52976Y80287D01*
X52765Y80125D01*
X52612Y79927D01*
X49504D01*
X49488Y79943D01*
X49297Y80053D01*
X49085Y80110D01*
X48865D01*
X48653Y80053D01*
X48462Y79943D01*
X48307Y79788D01*
X48197Y79597D01*
X48140Y79385D01*
Y79165D01*
X48197Y78953D01*
X48307Y78762D01*
X48462Y78607D01*
X48653Y78497D01*
X48865Y78440D01*
X49085D01*
X49297Y78497D01*
X49488Y78607D01*
X49584Y78703D01*
X52612D01*
X52765Y78505D01*
X52976Y78343D01*
X53221Y78241D01*
X53485Y78206D01*
X54265D01*
X54529Y78241D01*
X54774Y78343D01*
X54985Y78505D01*
X55147Y78716D01*
X55249Y78961D01*
X55284Y79225D01*
Y79405D01*
X55249Y79669D01*
X55147Y79914D01*
X54985Y80125D01*
X54774Y80287D01*
X54529Y80389D01*
X54265Y80424D01*
D02*
G37*
G36*
X28690Y77509D02*
X27910D01*
X27646Y77474D01*
X27401Y77372D01*
X27190Y77210D01*
X27028Y76999D01*
X26926Y76754D01*
X26891Y76490D01*
Y76310D01*
X26926Y76046D01*
X27028Y75801D01*
X27190Y75590D01*
X27401Y75428D01*
X27646Y75326D01*
X27910Y75291D01*
X28690D01*
X28954Y75326D01*
X29199Y75428D01*
X29410Y75590D01*
X29563Y75788D01*
X33098D01*
Y75113D01*
X32272Y74287D01*
X27651D01*
X27600Y74297D01*
X17475D01*
Y76050D01*
X14475D01*
Y73050D01*
X17475D01*
Y73073D01*
X27559D01*
X27610Y73063D01*
X32525D01*
X32759Y73110D01*
X32958Y73242D01*
X34143Y74427D01*
X34275Y74626D01*
X34322Y74860D01*
Y75741D01*
X34468Y75887D01*
X34578Y76078D01*
X34635Y76290D01*
Y76510D01*
X34578Y76722D01*
X34468Y76913D01*
X34313Y77068D01*
X34122Y77178D01*
X33910Y77235D01*
X33690D01*
X33478Y77178D01*
X33287Y77068D01*
X33231Y77012D01*
X29563D01*
X29410Y77210D01*
X29199Y77372D01*
X28954Y77474D01*
X28690Y77509D01*
D02*
G37*
G36*
X5792Y77700D02*
X5408D01*
X5031Y77625D01*
X4676Y77478D01*
X4357Y77265D01*
X4085Y76993D01*
X3872Y76674D01*
X3725Y76319D01*
X3650Y75942D01*
Y75558D01*
X3725Y75181D01*
X3872Y74826D01*
X4085Y74507D01*
X4357Y74235D01*
X4676Y74022D01*
X5031Y73875D01*
X5408Y73800D01*
X5792D01*
X6169Y73875D01*
X6524Y74022D01*
X6843Y74235D01*
X7115Y74507D01*
X7328Y74826D01*
X7475Y75181D01*
X7550Y75558D01*
Y75942D01*
X7475Y76319D01*
X7328Y76674D01*
X7115Y76993D01*
X6843Y77265D01*
X6524Y77478D01*
X6169Y77625D01*
X5792Y77700D01*
D02*
G37*
G36*
X77242Y77675D02*
X76858D01*
X76481Y77600D01*
X76126Y77453D01*
X75807Y77240D01*
X75535Y76968D01*
X75322Y76649D01*
X75175Y76294D01*
X75100Y75917D01*
Y75533D01*
X75175Y75156D01*
X75322Y74801D01*
X75535Y74482D01*
X75807Y74210D01*
X76126Y73997D01*
X76481Y73850D01*
X76858Y73775D01*
X77242D01*
X77619Y73850D01*
X77974Y73997D01*
X78293Y74210D01*
X78565Y74482D01*
X78778Y74801D01*
X78925Y75156D01*
X79000Y75533D01*
Y75917D01*
X78925Y76294D01*
X78778Y76649D01*
X78565Y76968D01*
X78293Y77240D01*
X77974Y77453D01*
X77619Y77600D01*
X77242Y77675D01*
D02*
G37*
G36*
X68255Y74625D02*
X68045D01*
X67841Y74570D01*
X67659Y74465D01*
X67510Y74316D01*
X67405Y74134D01*
X67350Y73930D01*
Y73720D01*
X67405Y73516D01*
X67510Y73334D01*
X67659Y73185D01*
X67686Y73169D01*
Y71183D01*
X67541Y71122D01*
X67330Y70960D01*
X67168Y70749D01*
X67066Y70504D01*
X67031Y70240D01*
Y69460D01*
X67066Y69196D01*
X67168Y68951D01*
X67330Y68740D01*
X67541Y68578D01*
X67786Y68476D01*
X68050Y68441D01*
X68230D01*
X68494Y68476D01*
X68739Y68578D01*
X68950Y68740D01*
X69112Y68951D01*
X69214Y69196D01*
X69249Y69460D01*
Y70240D01*
X69214Y70504D01*
X69112Y70749D01*
X68950Y70960D01*
X68739Y71122D01*
X68604Y71178D01*
Y73163D01*
X68641Y73185D01*
X68790Y73334D01*
X68895Y73516D01*
X68950Y73720D01*
Y73930D01*
X68895Y74134D01*
X68790Y74316D01*
X68641Y74465D01*
X68459Y74570D01*
X68255Y74625D01*
D02*
G37*
G36*
X58070Y71259D02*
X57890D01*
X57626Y71224D01*
X57381Y71122D01*
X57170Y70960D01*
X57008Y70749D01*
X56906Y70504D01*
X56871Y70240D01*
Y69460D01*
X56906Y69196D01*
X57008Y68951D01*
X57170Y68740D01*
X57381Y68578D01*
X57626Y68476D01*
X57890Y68441D01*
X58070D01*
X58334Y68476D01*
X58579Y68578D01*
X58790Y68740D01*
X58952Y68951D01*
X59054Y69196D01*
X59089Y69460D01*
Y70240D01*
X59054Y70504D01*
X58952Y70749D01*
X58790Y70960D01*
X58579Y71122D01*
X58334Y71224D01*
X58070Y71259D01*
D02*
G37*
G36*
X55530D02*
X55350D01*
X55086Y71224D01*
X54841Y71122D01*
X54630Y70960D01*
X54468Y70749D01*
X54366Y70504D01*
X54331Y70240D01*
Y69460D01*
X54366Y69196D01*
X54468Y68951D01*
X54630Y68740D01*
X54841Y68578D01*
X55086Y68476D01*
X55350Y68441D01*
X55530D01*
X55794Y68476D01*
X56039Y68578D01*
X56250Y68740D01*
X56412Y68951D01*
X56514Y69196D01*
X56549Y69460D01*
Y70240D01*
X56514Y70504D01*
X56412Y70749D01*
X56250Y70960D01*
X56039Y71122D01*
X55794Y71224D01*
X55530Y71259D01*
D02*
G37*
G36*
X63150D02*
X62970D01*
X62706Y71224D01*
X62461Y71122D01*
X62250Y70960D01*
X62088Y70749D01*
X61986Y70504D01*
X61951Y70240D01*
Y69460D01*
X61986Y69196D01*
X62088Y68951D01*
X62250Y68740D01*
X62461Y68578D01*
X62623Y68510D01*
Y67854D01*
X62591Y67845D01*
X62409Y67740D01*
X62260Y67591D01*
X62155Y67409D01*
X62100Y67205D01*
Y66995D01*
X62155Y66791D01*
X62260Y66609D01*
X62409Y66460D01*
X62591Y66355D01*
X62795Y66300D01*
X63005D01*
X63209Y66355D01*
X63391Y66460D01*
X63540Y66609D01*
X63645Y66791D01*
X63700Y66995D01*
Y67205D01*
X63645Y67409D01*
X63540Y67591D01*
X63391Y67740D01*
X63337Y67772D01*
Y68466D01*
X63414Y68476D01*
X63659Y68578D01*
X63870Y68740D01*
X64032Y68951D01*
X64134Y69196D01*
X64169Y69460D01*
Y70240D01*
X64134Y70504D01*
X64032Y70749D01*
X63870Y70960D01*
X63659Y71122D01*
X63414Y71224D01*
X63150Y71259D01*
D02*
G37*
G36*
X65690D02*
X65510D01*
X65246Y71224D01*
X65001Y71122D01*
X64790Y70960D01*
X64628Y70749D01*
X64526Y70504D01*
X64491Y70240D01*
Y69460D01*
X64526Y69196D01*
X64628Y68951D01*
X64790Y68740D01*
X65001Y68578D01*
X65168Y68508D01*
Y66353D01*
X65141Y66345D01*
X64959Y66240D01*
X64810Y66091D01*
X64705Y65909D01*
X64650Y65705D01*
Y65495D01*
X64705Y65291D01*
X64810Y65109D01*
X64959Y64960D01*
X65141Y64855D01*
X65345Y64800D01*
X65555D01*
X65759Y64855D01*
X65941Y64960D01*
X66090Y65109D01*
X66195Y65291D01*
X66250Y65495D01*
Y65705D01*
X66195Y65909D01*
X66090Y66091D01*
X65941Y66240D01*
X65882Y66274D01*
Y68467D01*
X65954Y68476D01*
X66199Y68578D01*
X66410Y68740D01*
X66572Y68951D01*
X66674Y69196D01*
X66709Y69460D01*
Y70240D01*
X66674Y70504D01*
X66572Y70749D01*
X66410Y70960D01*
X66199Y71122D01*
X65954Y71224D01*
X65690Y71259D01*
D02*
G37*
G36*
X60610D02*
X60430D01*
X60166Y71224D01*
X59921Y71122D01*
X59710Y70960D01*
X59548Y70749D01*
X59446Y70504D01*
X59411Y70240D01*
Y69460D01*
X59446Y69196D01*
X59548Y68951D01*
X59710Y68740D01*
X59921Y68578D01*
X60166Y68476D01*
X60191Y68473D01*
Y64798D01*
X60134Y64765D01*
X59985Y64616D01*
X59880Y64434D01*
X59825Y64230D01*
Y64020D01*
X59880Y63816D01*
X59985Y63634D01*
X60134Y63485D01*
X60316Y63380D01*
X60520Y63325D01*
X60730D01*
X60934Y63380D01*
X61116Y63485D01*
X61265Y63634D01*
X61370Y63816D01*
X61425Y64020D01*
Y64230D01*
X61370Y64434D01*
X61265Y64616D01*
X61116Y64765D01*
X60934Y64870D01*
X60904Y64878D01*
Y68489D01*
X61119Y68578D01*
X61330Y68740D01*
X61492Y68951D01*
X61594Y69196D01*
X61629Y69460D01*
Y70240D01*
X61594Y70504D01*
X61492Y70749D01*
X61330Y70960D01*
X61119Y71122D01*
X60874Y71224D01*
X60610Y71259D01*
D02*
G37*
G36*
X41657Y60695D02*
X41403D01*
X41158Y60629D01*
X40937Y60502D01*
X40758Y60323D01*
X40631Y60102D01*
X40565Y59857D01*
Y59603D01*
X40631Y59358D01*
X40758Y59137D01*
X40937Y58958D01*
X41158Y58831D01*
X41403Y58765D01*
X41657D01*
X41902Y58831D01*
X42123Y58958D01*
X42302Y59137D01*
X42429Y59358D01*
X42495Y59603D01*
Y59857D01*
X42429Y60102D01*
X42302Y60323D01*
X42123Y60502D01*
X41902Y60629D01*
X41657Y60695D01*
D02*
G37*
G36*
X8700Y63400D02*
X6500D01*
Y61200D01*
X8700D01*
Y61688D01*
X12246D01*
X12391Y61605D01*
X12595Y61550D01*
X12805D01*
X13009Y61605D01*
X13154Y61688D01*
X17705D01*
Y61305D01*
X18058D01*
Y60483D01*
X17898Y60323D01*
X17771Y60102D01*
X17705Y59857D01*
Y59603D01*
X17771Y59358D01*
X17898Y59137D01*
X18077Y58958D01*
X18298Y58831D01*
X18543Y58765D01*
X18797D01*
X19042Y58831D01*
X19263Y58958D01*
X19442Y59137D01*
X19569Y59358D01*
X19635Y59603D01*
Y59857D01*
X19569Y60102D01*
X19442Y60323D01*
X19282Y60483D01*
Y61305D01*
X19635D01*
Y63235D01*
X17705D01*
Y62912D01*
X13270D01*
X13191Y62990D01*
X13009Y63095D01*
X12805Y63150D01*
X12595D01*
X12391Y63095D01*
X12209Y62990D01*
X12130Y62912D01*
X8700D01*
Y63400D01*
D02*
G37*
G36*
X41657Y58155D02*
X41403D01*
X41158Y58089D01*
X40937Y57962D01*
X40758Y57783D01*
X40631Y57562D01*
X40565Y57317D01*
Y57063D01*
X40631Y56818D01*
X40758Y56597D01*
X40937Y56418D01*
X41158Y56291D01*
X41403Y56225D01*
X41657D01*
X41902Y56291D01*
X42123Y56418D01*
X42302Y56597D01*
X42429Y56818D01*
X42495Y57063D01*
Y57317D01*
X42429Y57562D01*
X42302Y57783D01*
X42123Y57962D01*
X41902Y58089D01*
X41657Y58155D01*
D02*
G37*
G36*
X18797D02*
X18543D01*
X18298Y58089D01*
X18077Y57962D01*
X17898Y57783D01*
X17771Y57562D01*
X17705Y57317D01*
Y57063D01*
X17771Y56818D01*
X17898Y56597D01*
X18077Y56418D01*
X18298Y56291D01*
X18543Y56225D01*
X18797D01*
X19042Y56291D01*
X19263Y56418D01*
X19442Y56597D01*
X19569Y56818D01*
X19635Y57063D01*
Y57317D01*
X19569Y57562D01*
X19442Y57783D01*
X19263Y57962D01*
X19042Y58089D01*
X18797Y58155D01*
D02*
G37*
G36*
X41657Y55615D02*
X41403D01*
X41158Y55549D01*
X40937Y55422D01*
X40758Y55243D01*
X40631Y55022D01*
X40565Y54777D01*
Y54523D01*
X40631Y54278D01*
X40758Y54057D01*
X40937Y53878D01*
X41158Y53751D01*
X41403Y53685D01*
X41657D01*
X41902Y53751D01*
X42123Y53878D01*
X42302Y54057D01*
X42429Y54278D01*
X42495Y54523D01*
Y54777D01*
X42429Y55022D01*
X42302Y55243D01*
X42123Y55422D01*
X41902Y55549D01*
X41657Y55615D01*
D02*
G37*
G36*
X18797D02*
X18543D01*
X18298Y55549D01*
X18077Y55422D01*
X17898Y55243D01*
X17771Y55022D01*
X17705Y54777D01*
Y54523D01*
X17771Y54278D01*
X17898Y54057D01*
X18077Y53878D01*
X18298Y53751D01*
X18543Y53685D01*
X18797D01*
X19042Y53751D01*
X19263Y53878D01*
X19442Y54057D01*
X19569Y54278D01*
X19635Y54523D01*
Y54777D01*
X19569Y55022D01*
X19442Y55243D01*
X19263Y55422D01*
X19042Y55549D01*
X18797Y55615D01*
D02*
G37*
G36*
X41657Y53075D02*
X41403D01*
X41158Y53009D01*
X40937Y52882D01*
X40758Y52703D01*
X40631Y52482D01*
X40565Y52237D01*
Y51983D01*
X40631Y51738D01*
X40758Y51517D01*
X40937Y51338D01*
X41158Y51211D01*
X41403Y51145D01*
X41657D01*
X41902Y51211D01*
X42123Y51338D01*
X42302Y51517D01*
X42429Y51738D01*
X42495Y51983D01*
Y52237D01*
X42429Y52482D01*
X42302Y52703D01*
X42123Y52882D01*
X41902Y53009D01*
X41657Y53075D01*
D02*
G37*
G36*
X18797D02*
X18543D01*
X18298Y53009D01*
X18077Y52882D01*
X17898Y52703D01*
X17771Y52482D01*
X17705Y52237D01*
Y51983D01*
X17771Y51738D01*
X17898Y51517D01*
X18077Y51338D01*
X18298Y51211D01*
X18543Y51145D01*
X18797D01*
X19042Y51211D01*
X19263Y51338D01*
X19442Y51517D01*
X19569Y51738D01*
X19635Y51983D01*
Y52237D01*
X19569Y52482D01*
X19442Y52703D01*
X19263Y52882D01*
X19042Y53009D01*
X18797Y53075D01*
D02*
G37*
G36*
X22130Y51375D02*
X21920D01*
X21716Y51320D01*
X21534Y51215D01*
X21385Y51066D01*
X21280Y50884D01*
X21225Y50680D01*
Y50470D01*
X21265Y50320D01*
X20872Y49927D01*
X19573D01*
X19569Y49942D01*
X19442Y50163D01*
X19263Y50342D01*
X19042Y50469D01*
X18797Y50535D01*
X18543D01*
X18298Y50469D01*
X18077Y50342D01*
X17898Y50163D01*
X17771Y49942D01*
X17705Y49697D01*
Y49443D01*
X17771Y49198D01*
X17898Y48977D01*
X18077Y48798D01*
X18298Y48671D01*
X18543Y48605D01*
X18797D01*
X19042Y48671D01*
X19263Y48798D01*
X19442Y48977D01*
X19569Y49198D01*
X19573Y49213D01*
X21020D01*
X21157Y49240D01*
X21272Y49318D01*
X21770Y49815D01*
X21920Y49775D01*
X22130D01*
X22334Y49830D01*
X22516Y49935D01*
X22665Y50084D01*
X22770Y50266D01*
X22825Y50470D01*
Y50680D01*
X22770Y50884D01*
X22665Y51066D01*
X22516Y51215D01*
X22334Y51320D01*
X22130Y51375D01*
D02*
G37*
G36*
X41657Y50535D02*
X41403D01*
X41158Y50469D01*
X40937Y50342D01*
X40758Y50163D01*
X40631Y49942D01*
X40565Y49697D01*
Y49443D01*
X40631Y49198D01*
X40758Y48977D01*
X40937Y48798D01*
X41158Y48671D01*
X41403Y48605D01*
X41657D01*
X41902Y48671D01*
X42123Y48798D01*
X42302Y48977D01*
X42429Y49198D01*
X42495Y49443D01*
Y49697D01*
X42429Y49942D01*
X42302Y50163D01*
X42123Y50342D01*
X41902Y50469D01*
X41657Y50535D01*
D02*
G37*
G36*
Y47995D02*
X41403D01*
X41158Y47929D01*
X40937Y47802D01*
X40758Y47623D01*
X40631Y47402D01*
X40565Y47157D01*
Y46903D01*
X40631Y46658D01*
X40758Y46437D01*
X40937Y46258D01*
X41158Y46131D01*
X41403Y46065D01*
X41657D01*
X41902Y46131D01*
X42123Y46258D01*
X42302Y46437D01*
X42429Y46658D01*
X42495Y46903D01*
Y47157D01*
X42429Y47402D01*
X42302Y47623D01*
X42123Y47802D01*
X41902Y47929D01*
X41657Y47995D01*
D02*
G37*
G36*
X18797D02*
X18543D01*
X18298Y47929D01*
X18077Y47802D01*
X17898Y47623D01*
X17771Y47402D01*
X17705Y47157D01*
Y46903D01*
X17771Y46658D01*
X17898Y46437D01*
X18077Y46258D01*
X18298Y46131D01*
X18543Y46065D01*
X18797D01*
X19042Y46131D01*
X19263Y46258D01*
X19442Y46437D01*
X19569Y46658D01*
X19635Y46903D01*
Y47157D01*
X19569Y47402D01*
X19442Y47623D01*
X19263Y47802D01*
X19042Y47929D01*
X18797Y47995D01*
D02*
G37*
G36*
X41657Y45455D02*
X41403D01*
X41158Y45389D01*
X40937Y45262D01*
X40758Y45083D01*
X40631Y44862D01*
X40565Y44617D01*
Y44363D01*
X40631Y44118D01*
X40758Y43897D01*
X40937Y43718D01*
X41158Y43591D01*
X41403Y43525D01*
X41657D01*
X41902Y43591D01*
X42123Y43718D01*
X42302Y43897D01*
X42429Y44118D01*
X42495Y44363D01*
Y44617D01*
X42429Y44862D01*
X42302Y45083D01*
X42123Y45262D01*
X41902Y45389D01*
X41657Y45455D01*
D02*
G37*
G36*
X18797D02*
X18543D01*
X18298Y45389D01*
X18077Y45262D01*
X17898Y45083D01*
X17771Y44862D01*
X17705Y44617D01*
Y44363D01*
X17771Y44118D01*
X17898Y43897D01*
X18077Y43718D01*
X18298Y43591D01*
X18543Y43525D01*
X18797D01*
X19042Y43591D01*
X19263Y43718D01*
X19442Y43897D01*
X19569Y44118D01*
X19635Y44363D01*
Y44617D01*
X19569Y44862D01*
X19442Y45083D01*
X19263Y45262D01*
X19042Y45389D01*
X18797Y45455D01*
D02*
G37*
G36*
X60610Y46259D02*
X60430D01*
X60166Y46224D01*
X59921Y46122D01*
X59710Y45960D01*
X59548Y45749D01*
X59446Y45504D01*
X59411Y45240D01*
Y44460D01*
X59446Y44196D01*
X59548Y43951D01*
X59710Y43740D01*
X59921Y43578D01*
X60166Y43476D01*
X60430Y43441D01*
X60610D01*
X60874Y43476D01*
X61119Y43578D01*
X61330Y43740D01*
X61492Y43951D01*
X61594Y44196D01*
X61629Y44460D01*
Y45240D01*
X61594Y45504D01*
X61492Y45749D01*
X61330Y45960D01*
X61119Y46122D01*
X60874Y46224D01*
X60610Y46259D01*
D02*
G37*
G36*
X58070D02*
X57890D01*
X57626Y46224D01*
X57381Y46122D01*
X57170Y45960D01*
X57008Y45749D01*
X56906Y45504D01*
X56871Y45240D01*
Y44460D01*
X56906Y44196D01*
X57008Y43951D01*
X57170Y43740D01*
X57381Y43578D01*
X57626Y43476D01*
X57890Y43441D01*
X58070D01*
X58334Y43476D01*
X58579Y43578D01*
X58790Y43740D01*
X58952Y43951D01*
X59054Y44196D01*
X59089Y44460D01*
Y45240D01*
X59054Y45504D01*
X58952Y45749D01*
X58790Y45960D01*
X58579Y46122D01*
X58334Y46224D01*
X58070Y46259D01*
D02*
G37*
G36*
X41657Y42915D02*
X41403D01*
X41158Y42849D01*
X40937Y42722D01*
X40758Y42543D01*
X40631Y42322D01*
X40565Y42077D01*
Y41823D01*
X40631Y41578D01*
X40758Y41357D01*
X40937Y41178D01*
X41158Y41051D01*
X41403Y40985D01*
X41657D01*
X41902Y41051D01*
X42123Y41178D01*
X42302Y41357D01*
X42429Y41578D01*
X42495Y41823D01*
Y42077D01*
X42429Y42322D01*
X42302Y42543D01*
X42123Y42722D01*
X41902Y42849D01*
X41657Y42915D01*
D02*
G37*
G36*
X18797D02*
X18543D01*
X18298Y42849D01*
X18077Y42722D01*
X17898Y42543D01*
X17771Y42322D01*
X17705Y42077D01*
Y41823D01*
X17771Y41578D01*
X17898Y41357D01*
X18077Y41178D01*
X18298Y41051D01*
X18543Y40985D01*
X18797D01*
X19042Y41051D01*
X19263Y41178D01*
X19442Y41357D01*
X19569Y41578D01*
X19635Y41823D01*
Y42077D01*
X19569Y42322D01*
X19442Y42543D01*
X19263Y42722D01*
X19042Y42849D01*
X18797Y42915D01*
D02*
G37*
G36*
X65690Y46259D02*
X65510D01*
X65246Y46224D01*
X65001Y46122D01*
X64790Y45960D01*
X64628Y45749D01*
X64526Y45504D01*
X64491Y45240D01*
Y44460D01*
X64526Y44196D01*
X64628Y43951D01*
X64790Y43740D01*
X65001Y43578D01*
X65246Y43476D01*
X65268Y43473D01*
Y42146D01*
X65259Y42140D01*
X65110Y41991D01*
X65005Y41809D01*
X64950Y41605D01*
Y41395D01*
X65005Y41191D01*
X65110Y41009D01*
X65259Y40860D01*
X65441Y40755D01*
X65645Y40700D01*
X65855D01*
X66059Y40755D01*
X66241Y40860D01*
X66390Y41009D01*
X66495Y41191D01*
X66550Y41395D01*
Y41605D01*
X66495Y41809D01*
X66390Y41991D01*
X66241Y42140D01*
X66059Y42245D01*
X65982Y42266D01*
Y43488D01*
X66199Y43578D01*
X66410Y43740D01*
X66572Y43951D01*
X66674Y44196D01*
X66709Y44460D01*
Y45240D01*
X66674Y45504D01*
X66572Y45749D01*
X66410Y45960D01*
X66199Y46122D01*
X65954Y46224D01*
X65690Y46259D01*
D02*
G37*
G36*
X70770D02*
X70590D01*
X70326Y46224D01*
X70081Y46122D01*
X69870Y45960D01*
X69708Y45749D01*
X69606Y45504D01*
X69571Y45240D01*
Y44460D01*
X69606Y44196D01*
X69708Y43951D01*
X69870Y43740D01*
X70081Y43578D01*
X70323Y43477D01*
Y41993D01*
X70189Y41915D01*
X70040Y41766D01*
X69935Y41584D01*
X69880Y41380D01*
Y41170D01*
X69935Y40966D01*
X70040Y40784D01*
X70189Y40635D01*
X70371Y40530D01*
X70575Y40475D01*
X70785D01*
X70989Y40530D01*
X71171Y40635D01*
X71320Y40784D01*
X71425Y40966D01*
X71480Y41170D01*
Y41380D01*
X71425Y41584D01*
X71320Y41766D01*
X71171Y41915D01*
X71037Y41993D01*
Y43477D01*
X71279Y43578D01*
X71490Y43740D01*
X71652Y43951D01*
X71754Y44196D01*
X71789Y44460D01*
Y45240D01*
X71754Y45504D01*
X71652Y45749D01*
X71490Y45960D01*
X71279Y46122D01*
X71034Y46224D01*
X70770Y46259D01*
D02*
G37*
G36*
X18797Y40375D02*
X18543D01*
X18298Y40309D01*
X18077Y40182D01*
X17898Y40003D01*
X17771Y39782D01*
X17705Y39537D01*
Y39283D01*
X17771Y39038D01*
X17898Y38817D01*
X18077Y38638D01*
X18298Y38511D01*
X18543Y38445D01*
X18797D01*
X19042Y38511D01*
X19263Y38638D01*
X19442Y38817D01*
X19568Y39036D01*
X21247D01*
X21335Y38884D01*
X21484Y38735D01*
X21666Y38630D01*
X21870Y38575D01*
X22080D01*
X22284Y38630D01*
X22466Y38735D01*
X22615Y38884D01*
X22720Y39066D01*
X22775Y39270D01*
Y39480D01*
X22720Y39684D01*
X22615Y39866D01*
X22466Y40015D01*
X22284Y40120D01*
X22080Y40175D01*
X21870D01*
X21666Y40120D01*
X21484Y40015D01*
X21335Y39866D01*
X21267Y39749D01*
X19578D01*
X19569Y39782D01*
X19442Y40003D01*
X19263Y40182D01*
X19042Y40309D01*
X18797Y40375D01*
D02*
G37*
G36*
X63150Y46259D02*
X62970D01*
X62706Y46224D01*
X62461Y46122D01*
X62250Y45960D01*
X62088Y45749D01*
X61986Y45504D01*
X61951Y45240D01*
Y44460D01*
X61986Y44196D01*
X62088Y43951D01*
X62250Y43740D01*
X62461Y43578D01*
X62706Y43476D01*
X62711Y43475D01*
Y39963D01*
X62584Y39890D01*
X62435Y39741D01*
X62330Y39559D01*
X62275Y39355D01*
Y39145D01*
X62330Y38941D01*
X62435Y38759D01*
X62584Y38610D01*
X62766Y38505D01*
X62970Y38450D01*
X63180D01*
X63384Y38505D01*
X63566Y38610D01*
X63715Y38759D01*
X63820Y38941D01*
X63875Y39145D01*
Y39355D01*
X63820Y39559D01*
X63715Y39741D01*
X63566Y39890D01*
X63424Y39972D01*
Y43480D01*
X63659Y43578D01*
X63870Y43740D01*
X64032Y43951D01*
X64134Y44196D01*
X64169Y44460D01*
Y45240D01*
X64134Y45504D01*
X64032Y45749D01*
X63870Y45960D01*
X63659Y46122D01*
X63414Y46224D01*
X63150Y46259D01*
D02*
G37*
G36*
X41657Y40375D02*
X41403D01*
X41158Y40309D01*
X40937Y40182D01*
X40758Y40003D01*
X40631Y39782D01*
X40565Y39537D01*
Y39283D01*
X40631Y39038D01*
X40758Y38817D01*
X40937Y38638D01*
X41158Y38511D01*
X41403Y38445D01*
X41657D01*
X41902Y38511D01*
X42123Y38638D01*
X42302Y38817D01*
X42429Y39038D01*
X42495Y39283D01*
Y39537D01*
X42429Y39782D01*
X42302Y40003D01*
X42123Y40182D01*
X41902Y40309D01*
X41657Y40375D01*
D02*
G37*
G36*
Y37835D02*
X41403D01*
X41158Y37769D01*
X40937Y37642D01*
X40758Y37463D01*
X40631Y37242D01*
X40565Y36997D01*
Y36743D01*
X40631Y36498D01*
X40758Y36277D01*
X40937Y36098D01*
X41158Y35971D01*
X41403Y35905D01*
X41657D01*
X41902Y35971D01*
X42123Y36098D01*
X42302Y36277D01*
X42429Y36498D01*
X42495Y36743D01*
Y36997D01*
X42429Y37242D01*
X42302Y37463D01*
X42123Y37642D01*
X41902Y37769D01*
X41657Y37835D01*
D02*
G37*
G36*
X68230Y46259D02*
X68050D01*
X67786Y46224D01*
X67541Y46122D01*
X67330Y45960D01*
X67168Y45749D01*
X67066Y45504D01*
X67031Y45240D01*
Y44460D01*
X67066Y44196D01*
X67168Y43951D01*
X67330Y43740D01*
X67541Y43578D01*
X67786Y43476D01*
X67888Y43463D01*
Y37182D01*
X67859Y37165D01*
X67710Y37016D01*
X67605Y36834D01*
X67550Y36630D01*
Y36420D01*
X67605Y36216D01*
X67710Y36034D01*
X67859Y35885D01*
X68041Y35780D01*
X68245Y35725D01*
X68455D01*
X68659Y35780D01*
X68841Y35885D01*
X68990Y36034D01*
X69095Y36216D01*
X69150Y36420D01*
Y36630D01*
X69095Y36834D01*
X68990Y37016D01*
X68841Y37165D01*
X68659Y37270D01*
X68602Y37286D01*
Y43521D01*
X68739Y43578D01*
X68950Y43740D01*
X69112Y43951D01*
X69214Y44196D01*
X69249Y44460D01*
Y45240D01*
X69214Y45504D01*
X69112Y45749D01*
X68950Y45960D01*
X68739Y46122D01*
X68494Y46224D01*
X68230Y46259D01*
D02*
G37*
G36*
X18797Y37835D02*
X18543D01*
X18298Y37769D01*
X18077Y37642D01*
X17898Y37463D01*
X17771Y37242D01*
X17705Y36997D01*
Y36743D01*
X17771Y36498D01*
X17898Y36277D01*
X18077Y36098D01*
X18298Y35971D01*
X18543Y35905D01*
X18797D01*
X19042Y35971D01*
X19263Y36098D01*
X19442Y36277D01*
X19569Y36498D01*
X19573Y36513D01*
X20557D01*
X21315Y35755D01*
X21275Y35605D01*
Y35395D01*
X21330Y35191D01*
X21435Y35009D01*
X21584Y34860D01*
X21766Y34755D01*
X21970Y34700D01*
X22180D01*
X22384Y34755D01*
X22566Y34860D01*
X22715Y35009D01*
X22820Y35191D01*
X22875Y35395D01*
Y35605D01*
X22820Y35809D01*
X22715Y35991D01*
X22566Y36140D01*
X22384Y36245D01*
X22180Y36300D01*
X21970D01*
X21820Y36260D01*
X20957Y37122D01*
X20842Y37200D01*
X20705Y37227D01*
X19573D01*
X19569Y37242D01*
X19442Y37463D01*
X19263Y37642D01*
X19042Y37769D01*
X18797Y37835D01*
D02*
G37*
G36*
X41657Y35295D02*
X41403D01*
X41158Y35229D01*
X40937Y35102D01*
X40758Y34923D01*
X40631Y34702D01*
X40565Y34457D01*
Y34203D01*
X40631Y33958D01*
X40758Y33737D01*
X40937Y33558D01*
X41158Y33431D01*
X41403Y33365D01*
X41657D01*
X41902Y33431D01*
X42123Y33558D01*
X42302Y33737D01*
X42429Y33958D01*
X42495Y34203D01*
Y34457D01*
X42429Y34702D01*
X42302Y34923D01*
X42123Y35102D01*
X41902Y35229D01*
X41657Y35295D01*
D02*
G37*
G36*
X18797D02*
X18543D01*
X18298Y35229D01*
X18077Y35102D01*
X17898Y34923D01*
X17771Y34702D01*
X17767Y34687D01*
X15580D01*
X15443Y34660D01*
X15328Y34582D01*
X14455Y33710D01*
X14305Y33750D01*
X14095D01*
X13891Y33695D01*
X13709Y33590D01*
X13560Y33441D01*
X13455Y33259D01*
X13400Y33055D01*
Y32845D01*
X13455Y32641D01*
X13560Y32459D01*
X13709Y32310D01*
X13891Y32205D01*
X14095Y32150D01*
X14305D01*
X14509Y32205D01*
X14691Y32310D01*
X14840Y32459D01*
X14945Y32641D01*
X15000Y32845D01*
Y33055D01*
X14960Y33205D01*
X15728Y33973D01*
X17767D01*
X17771Y33958D01*
X17898Y33737D01*
X18077Y33558D01*
X18298Y33431D01*
X18543Y33365D01*
X18797D01*
X19042Y33431D01*
X19263Y33558D01*
X19442Y33737D01*
X19569Y33958D01*
X19635Y34203D01*
Y34457D01*
X19569Y34702D01*
X19442Y34923D01*
X19263Y35102D01*
X19042Y35229D01*
X18797Y35295D01*
D02*
G37*
G36*
X34905Y34625D02*
X34695D01*
X34491Y34570D01*
X34309Y34465D01*
X34160Y34316D01*
X34055Y34134D01*
X34000Y33930D01*
Y33720D01*
X34040Y33570D01*
X19981Y19510D01*
X19542D01*
X19442Y19683D01*
X19263Y19862D01*
X19042Y19989D01*
X18797Y20055D01*
X18543D01*
X18298Y19989D01*
X18077Y19862D01*
X17898Y19683D01*
X17771Y19462D01*
X17705Y19217D01*
Y18963D01*
X17771Y18718D01*
X17898Y18497D01*
X18077Y18318D01*
X18298Y18191D01*
X18543Y18125D01*
X18797D01*
X19042Y18191D01*
X19263Y18318D01*
X19442Y18497D01*
X19569Y18718D01*
X19590Y18797D01*
X20129D01*
X20265Y18824D01*
X20381Y18901D01*
X34545Y33065D01*
X34695Y33025D01*
X34905D01*
X35109Y33080D01*
X35291Y33185D01*
X35440Y33334D01*
X35545Y33516D01*
X35600Y33720D01*
Y33930D01*
X35545Y34134D01*
X35440Y34316D01*
X35291Y34465D01*
X35109Y34570D01*
X34905Y34625D01*
D02*
G37*
G36*
X41657Y32755D02*
X41403D01*
X41158Y32689D01*
X40937Y32562D01*
X40758Y32383D01*
X40631Y32162D01*
X40565Y31917D01*
Y31663D01*
X40631Y31418D01*
X40758Y31197D01*
X40937Y31018D01*
X41158Y30891D01*
X41403Y30825D01*
X41657D01*
X41902Y30891D01*
X42123Y31018D01*
X42302Y31197D01*
X42429Y31418D01*
X42495Y31663D01*
Y31917D01*
X42429Y32162D01*
X42302Y32383D01*
X42123Y32562D01*
X41902Y32689D01*
X41657Y32755D01*
D02*
G37*
G36*
X18797D02*
X18543D01*
X18298Y32689D01*
X18077Y32562D01*
X17898Y32383D01*
X17771Y32162D01*
X17705Y31917D01*
Y31663D01*
X17771Y31418D01*
X17898Y31197D01*
X18077Y31018D01*
X18298Y30891D01*
X18543Y30825D01*
X18797D01*
X19042Y30891D01*
X19263Y31018D01*
X19442Y31197D01*
X19569Y31418D01*
X19635Y31663D01*
Y31917D01*
X19569Y32162D01*
X19442Y32383D01*
X19263Y32562D01*
X19042Y32689D01*
X18797Y32755D01*
D02*
G37*
G36*
X41657Y30215D02*
X41403D01*
X41158Y30149D01*
X40937Y30022D01*
X40758Y29843D01*
X40631Y29622D01*
X40565Y29377D01*
Y29123D01*
X40631Y28878D01*
X40758Y28657D01*
X40937Y28478D01*
X41158Y28351D01*
X41403Y28285D01*
X41657D01*
X41902Y28351D01*
X42123Y28478D01*
X42302Y28657D01*
X42429Y28878D01*
X42495Y29123D01*
Y29377D01*
X42429Y29622D01*
X42302Y29843D01*
X42123Y30022D01*
X41902Y30149D01*
X41657Y30215D01*
D02*
G37*
G36*
X18797D02*
X18543D01*
X18298Y30149D01*
X18077Y30022D01*
X17898Y29843D01*
X17771Y29622D01*
X17705Y29377D01*
Y29123D01*
X17771Y28878D01*
X17898Y28657D01*
X18077Y28478D01*
X18298Y28351D01*
X18543Y28285D01*
X18797D01*
X19042Y28351D01*
X19263Y28478D01*
X19442Y28657D01*
X19569Y28878D01*
X19635Y29123D01*
Y29377D01*
X19569Y29622D01*
X19442Y29843D01*
X19263Y30022D01*
X19042Y30149D01*
X18797Y30215D01*
D02*
G37*
G36*
X79267Y31000D02*
X78933D01*
X78604Y30935D01*
X78295Y30807D01*
X78016Y30620D01*
X77780Y30384D01*
X77593Y30105D01*
X77465Y29796D01*
X77400Y29467D01*
Y29133D01*
X77465Y28804D01*
X77593Y28495D01*
X77780Y28216D01*
X78016Y27980D01*
X78295Y27793D01*
X78604Y27665D01*
X78933Y27600D01*
X79267D01*
X79596Y27665D01*
X79905Y27793D01*
X80184Y27980D01*
X80420Y28216D01*
X80607Y28495D01*
X80735Y28804D01*
X80800Y29133D01*
Y29467D01*
X80735Y29796D01*
X80607Y30105D01*
X80420Y30384D01*
X80184Y30620D01*
X79905Y30807D01*
X79596Y30935D01*
X79267Y31000D01*
D02*
G37*
G36*
X57267D02*
X56933D01*
X56604Y30935D01*
X56295Y30807D01*
X56016Y30620D01*
X55780Y30384D01*
X55593Y30105D01*
X55465Y29796D01*
X55400Y29467D01*
Y29133D01*
X55465Y28804D01*
X55593Y28495D01*
X55780Y28216D01*
X56016Y27980D01*
X56295Y27793D01*
X56604Y27665D01*
X56933Y27600D01*
X57267D01*
X57596Y27665D01*
X57905Y27793D01*
X58184Y27980D01*
X58420Y28216D01*
X58607Y28495D01*
X58735Y28804D01*
X58800Y29133D01*
Y29467D01*
X58735Y29796D01*
X58607Y30105D01*
X58420Y30384D01*
X58184Y30620D01*
X57905Y30807D01*
X57596Y30935D01*
X57267Y31000D01*
D02*
G37*
G36*
X41657Y27675D02*
X41403D01*
X41158Y27609D01*
X40937Y27482D01*
X40758Y27303D01*
X40631Y27082D01*
X40565Y26837D01*
Y26583D01*
X40631Y26338D01*
X40758Y26117D01*
X40937Y25938D01*
X41158Y25811D01*
X41403Y25745D01*
X41657D01*
X41902Y25811D01*
X42123Y25938D01*
X42302Y26117D01*
X42429Y26338D01*
X42495Y26583D01*
Y26837D01*
X42429Y27082D01*
X42302Y27303D01*
X42123Y27482D01*
X41902Y27609D01*
X41657Y27675D01*
D02*
G37*
G36*
X18797D02*
X18543D01*
X18298Y27609D01*
X18077Y27482D01*
X17898Y27303D01*
X17771Y27082D01*
X17767Y27067D01*
X15035D01*
X14898Y27040D01*
X14783Y26962D01*
X13348Y25527D01*
X13270Y25412D01*
X13243Y25275D01*
Y24518D01*
X13109Y24440D01*
X12960Y24291D01*
X12855Y24109D01*
X12800Y23905D01*
Y23695D01*
X12855Y23491D01*
X12960Y23309D01*
X13109Y23160D01*
X13291Y23055D01*
X13495Y23000D01*
X13705D01*
X13909Y23055D01*
X14091Y23160D01*
X14240Y23309D01*
X14345Y23491D01*
X14400Y23695D01*
Y23905D01*
X14345Y24109D01*
X14240Y24291D01*
X14091Y24440D01*
X13957Y24518D01*
Y25127D01*
X15183Y26353D01*
X17767D01*
X17771Y26338D01*
X17898Y26117D01*
X18077Y25938D01*
X18298Y25811D01*
X18543Y25745D01*
X18797D01*
X19042Y25811D01*
X19263Y25938D01*
X19442Y26117D01*
X19569Y26338D01*
X19635Y26583D01*
Y26837D01*
X19569Y27082D01*
X19442Y27303D01*
X19263Y27482D01*
X19042Y27609D01*
X18797Y27675D01*
D02*
G37*
G36*
X41657Y25135D02*
X41403D01*
X41158Y25069D01*
X40937Y24942D01*
X40758Y24763D01*
X40631Y24542D01*
X40565Y24297D01*
Y24043D01*
X40631Y23798D01*
X40758Y23577D01*
X40937Y23398D01*
X41158Y23271D01*
X41403Y23205D01*
X41657D01*
X41902Y23271D01*
X42123Y23398D01*
X42302Y23577D01*
X42429Y23798D01*
X42495Y24043D01*
Y24297D01*
X42429Y24542D01*
X42302Y24763D01*
X42123Y24942D01*
X41902Y25069D01*
X41657Y25135D01*
D02*
G37*
G36*
X18797D02*
X18543D01*
X18298Y25069D01*
X18077Y24942D01*
X17898Y24763D01*
X17771Y24542D01*
X17705Y24297D01*
Y24043D01*
X17771Y23798D01*
X17779Y23784D01*
X14302Y20307D01*
X12018D01*
X11940Y20441D01*
X11791Y20590D01*
X11609Y20695D01*
X11405Y20750D01*
X11195D01*
X10991Y20695D01*
X10809Y20590D01*
X10660Y20441D01*
X10555Y20259D01*
X10500Y20055D01*
Y19845D01*
X10555Y19641D01*
X10660Y19459D01*
X10809Y19310D01*
X10991Y19205D01*
X11195Y19150D01*
X11405D01*
X11609Y19205D01*
X11791Y19310D01*
X11940Y19459D01*
X12018Y19593D01*
X14450D01*
X14587Y19620D01*
X14702Y19698D01*
X18284Y23279D01*
X18298Y23271D01*
X18543Y23205D01*
X18797D01*
X19042Y23271D01*
X19263Y23398D01*
X19442Y23577D01*
X19569Y23798D01*
X19635Y24043D01*
Y24297D01*
X19569Y24542D01*
X19442Y24763D01*
X19263Y24942D01*
X19042Y25069D01*
X18797Y25135D01*
D02*
G37*
G36*
X41657Y22595D02*
X41403D01*
X41158Y22529D01*
X40937Y22402D01*
X40758Y22223D01*
X40631Y22002D01*
X40565Y21757D01*
Y21503D01*
X40631Y21258D01*
X40758Y21037D01*
X40937Y20858D01*
X41158Y20731D01*
X41403Y20665D01*
X41657D01*
X41902Y20731D01*
X42123Y20858D01*
X42302Y21037D01*
X42429Y21258D01*
X42495Y21503D01*
Y21757D01*
X42429Y22002D01*
X42302Y22223D01*
X42123Y22402D01*
X41902Y22529D01*
X41657Y22595D01*
D02*
G37*
G36*
X18797D02*
X18543D01*
X18298Y22529D01*
X18077Y22402D01*
X17898Y22223D01*
X17771Y22002D01*
X17705Y21757D01*
Y21503D01*
X17771Y21258D01*
X17779Y21244D01*
X15445Y18910D01*
X15368Y18794D01*
X15345Y18680D01*
X15216Y18645D01*
X15034Y18540D01*
X14885Y18391D01*
X14780Y18209D01*
X14725Y18005D01*
Y17795D01*
X14780Y17591D01*
X14885Y17409D01*
X15034Y17260D01*
X15216Y17155D01*
X15420Y17100D01*
X15630D01*
X15834Y17155D01*
X16016Y17260D01*
X16165Y17409D01*
X16270Y17591D01*
X16325Y17795D01*
Y18005D01*
X16270Y18209D01*
X16165Y18391D01*
X16054Y18502D01*
Y18509D01*
X18284Y20739D01*
X18298Y20731D01*
X18543Y20665D01*
X18797D01*
X19042Y20731D01*
X19263Y20858D01*
X19442Y21037D01*
X19569Y21258D01*
X19635Y21503D01*
Y21757D01*
X19569Y22002D01*
X19442Y22223D01*
X19263Y22402D01*
X19042Y22529D01*
X18797Y22595D01*
D02*
G37*
G36*
X75505Y22150D02*
X75295D01*
X75091Y22095D01*
X74909Y21990D01*
X74760Y21841D01*
X74655Y21659D01*
X74600Y21455D01*
Y21245D01*
X74655Y21041D01*
X74760Y20859D01*
X74909Y20710D01*
X75091Y20605D01*
X75295Y20550D01*
X75335D01*
X76747Y19137D01*
X76946Y19005D01*
X77180Y18958D01*
X78337D01*
X78490Y18760D01*
X78701Y18598D01*
X78946Y18496D01*
X79210Y18461D01*
X79990D01*
X80254Y18496D01*
X80499Y18598D01*
X80710Y18760D01*
X80872Y18971D01*
X80974Y19216D01*
X81009Y19480D01*
Y19660D01*
X80974Y19924D01*
X80872Y20169D01*
X80710Y20380D01*
X80499Y20542D01*
X80254Y20644D01*
X79990Y20679D01*
X79210D01*
X78946Y20644D01*
X78701Y20542D01*
X78490Y20380D01*
X78337Y20182D01*
X77433D01*
X76200Y21415D01*
Y21455D01*
X76145Y21659D01*
X76040Y21841D01*
X75891Y21990D01*
X75709Y22095D01*
X75505Y22150D01*
D02*
G37*
G36*
X41657Y20055D02*
X41403D01*
X41158Y19989D01*
X40937Y19862D01*
X40758Y19683D01*
X40631Y19462D01*
X40565Y19217D01*
Y18963D01*
X40631Y18718D01*
X40758Y18497D01*
X40937Y18318D01*
X41158Y18191D01*
X41403Y18125D01*
X41657D01*
X41902Y18191D01*
X42123Y18318D01*
X42302Y18497D01*
X42429Y18718D01*
X42495Y18963D01*
Y19217D01*
X42429Y19462D01*
X42302Y19683D01*
X42123Y19862D01*
X41902Y19989D01*
X41657Y20055D01*
D02*
G37*
G36*
X79990Y18139D02*
X79210D01*
X78946Y18104D01*
X78701Y18002D01*
X78490Y17840D01*
X78328Y17629D01*
X78227Y17387D01*
X48613D01*
X48535Y17521D01*
X48386Y17670D01*
X48204Y17775D01*
X48000Y17830D01*
X47790D01*
X47586Y17775D01*
X47404Y17670D01*
X47255Y17521D01*
X47150Y17339D01*
X47095Y17135D01*
Y16925D01*
X47150Y16721D01*
X47255Y16539D01*
X47404Y16390D01*
X47586Y16285D01*
X47790Y16230D01*
X48000D01*
X48204Y16285D01*
X48386Y16390D01*
X48535Y16539D01*
X48613Y16673D01*
X78227D01*
X78328Y16431D01*
X78490Y16220D01*
X78701Y16058D01*
X78946Y15956D01*
X79210Y15921D01*
X79990D01*
X80254Y15956D01*
X80499Y16058D01*
X80710Y16220D01*
X80872Y16431D01*
X80974Y16676D01*
X81009Y16940D01*
Y17120D01*
X80974Y17384D01*
X80872Y17629D01*
X80710Y17840D01*
X80499Y18002D01*
X80254Y18104D01*
X79990Y18139D01*
D02*
G37*
G36*
X41657Y17515D02*
X41403D01*
X41158Y17449D01*
X40937Y17322D01*
X40758Y17143D01*
X40631Y16922D01*
X40565Y16677D01*
Y16423D01*
X40631Y16178D01*
X40758Y15957D01*
X40937Y15778D01*
X41158Y15651D01*
X41403Y15585D01*
X41657D01*
X41902Y15651D01*
X42123Y15778D01*
X42302Y15957D01*
X42429Y16178D01*
X42495Y16423D01*
Y16677D01*
X42429Y16922D01*
X42302Y17143D01*
X42123Y17322D01*
X41902Y17449D01*
X41657Y17515D01*
D02*
G37*
G36*
X18797D02*
X18543D01*
X18298Y17449D01*
X18077Y17322D01*
X17898Y17143D01*
X17771Y16922D01*
X17705Y16677D01*
Y16423D01*
X17771Y16178D01*
X17898Y15957D01*
X18077Y15778D01*
X18298Y15651D01*
X18543Y15585D01*
X18797D01*
X19042Y15651D01*
X19263Y15778D01*
X19442Y15957D01*
X19569Y16178D01*
X19635Y16423D01*
Y16677D01*
X19569Y16922D01*
X19442Y17143D01*
X19263Y17322D01*
X19042Y17449D01*
X18797Y17515D01*
D02*
G37*
G36*
X37355Y34350D02*
X37145D01*
X36941Y34295D01*
X36759Y34190D01*
X36610Y34041D01*
X36505Y33859D01*
X36450Y33655D01*
Y33445D01*
X36505Y33241D01*
X36610Y33059D01*
X36759Y32910D01*
X36893Y32832D01*
Y15498D01*
X35820Y14424D01*
X19545D01*
X19442Y14603D01*
X19263Y14782D01*
X19042Y14909D01*
X18797Y14975D01*
X18543D01*
X18298Y14909D01*
X18077Y14782D01*
X17898Y14603D01*
X17771Y14382D01*
X17705Y14137D01*
Y13883D01*
X17771Y13638D01*
X17898Y13417D01*
X18077Y13238D01*
X18298Y13111D01*
X18543Y13045D01*
X18797D01*
X19042Y13111D01*
X19263Y13238D01*
X19442Y13417D01*
X19569Y13638D01*
X19589Y13711D01*
X35967D01*
X36104Y13738D01*
X36220Y13815D01*
X37502Y15098D01*
X37580Y15213D01*
X37607Y15350D01*
Y32832D01*
X37741Y32910D01*
X37890Y33059D01*
X37995Y33241D01*
X38050Y33445D01*
Y33655D01*
X37995Y33859D01*
X37890Y34041D01*
X37741Y34190D01*
X37559Y34295D01*
X37355Y34350D01*
D02*
G37*
G36*
X44755Y25800D02*
X44545D01*
X44341Y25745D01*
X44159Y25640D01*
X44010Y25491D01*
X43905Y25309D01*
X43850Y25105D01*
Y24895D01*
X43905Y24691D01*
X44010Y24509D01*
X44159Y24360D01*
X44293Y24282D01*
Y17375D01*
X44320Y17238D01*
X44398Y17123D01*
X47283Y14238D01*
X47398Y14160D01*
X47535Y14133D01*
X78227D01*
X78328Y13891D01*
X78490Y13680D01*
X78701Y13518D01*
X78946Y13416D01*
X79210Y13381D01*
X79990D01*
X80254Y13416D01*
X80499Y13518D01*
X80710Y13680D01*
X80872Y13891D01*
X80974Y14136D01*
X81009Y14400D01*
Y14580D01*
X80974Y14844D01*
X80872Y15089D01*
X80710Y15300D01*
X80499Y15462D01*
X80254Y15564D01*
X79990Y15599D01*
X79210D01*
X78946Y15564D01*
X78701Y15462D01*
X78490Y15300D01*
X78328Y15089D01*
X78227Y14847D01*
X47683D01*
X45007Y17523D01*
Y24282D01*
X45141Y24360D01*
X45290Y24509D01*
X45395Y24691D01*
X45450Y24895D01*
Y25105D01*
X45395Y25309D01*
X45290Y25491D01*
X45141Y25640D01*
X44959Y25745D01*
X44755Y25800D01*
D02*
G37*
G36*
X41657Y14975D02*
X41403D01*
X41158Y14909D01*
X40937Y14782D01*
X40758Y14603D01*
X40631Y14382D01*
X40565Y14137D01*
Y13883D01*
X40631Y13638D01*
X40758Y13417D01*
X40937Y13238D01*
X41158Y13111D01*
X41403Y13045D01*
X41657D01*
X41902Y13111D01*
X42123Y13238D01*
X42302Y13417D01*
X42429Y13638D01*
X42495Y13883D01*
Y14137D01*
X42429Y14382D01*
X42302Y14603D01*
X42123Y14782D01*
X41902Y14909D01*
X41657Y14975D01*
D02*
G37*
G36*
X18797Y12435D02*
X18543D01*
X18298Y12369D01*
X18077Y12242D01*
X17898Y12063D01*
X17771Y11842D01*
X17705Y11597D01*
Y11343D01*
X17771Y11098D01*
X17898Y10877D01*
X18077Y10698D01*
X18298Y10571D01*
X18543Y10505D01*
X18797D01*
X19042Y10571D01*
X19263Y10698D01*
X19442Y10877D01*
X19569Y11098D01*
X19635Y11343D01*
Y11597D01*
X19569Y11842D01*
X19442Y12063D01*
X19263Y12242D01*
X19042Y12369D01*
X18797Y12435D01*
D02*
G37*
G36*
X79267Y9000D02*
X78933D01*
X78604Y8935D01*
X78295Y8807D01*
X78016Y8620D01*
X77780Y8384D01*
X77593Y8105D01*
X77465Y7796D01*
X77400Y7467D01*
Y7133D01*
X77465Y6804D01*
X77593Y6495D01*
X77780Y6216D01*
X78016Y5980D01*
X78295Y5793D01*
X78604Y5665D01*
X78933Y5600D01*
X79267D01*
X79596Y5665D01*
X79905Y5793D01*
X80184Y5980D01*
X80420Y6216D01*
X80607Y6495D01*
X80735Y6804D01*
X80800Y7133D01*
Y7467D01*
X80735Y7796D01*
X80607Y8105D01*
X80420Y8384D01*
X80184Y8620D01*
X79905Y8807D01*
X79596Y8935D01*
X79267Y9000D01*
D02*
G37*
G36*
X57267D02*
X56933D01*
X56604Y8935D01*
X56295Y8807D01*
X56016Y8620D01*
X55780Y8384D01*
X55593Y8105D01*
X55465Y7796D01*
X55400Y7467D01*
Y7133D01*
X55465Y6804D01*
X55593Y6495D01*
X55780Y6216D01*
X56016Y5980D01*
X56295Y5793D01*
X56604Y5665D01*
X56933Y5600D01*
X57267D01*
X57596Y5665D01*
X57905Y5793D01*
X58184Y5980D01*
X58420Y6216D01*
X58607Y6495D01*
X58735Y6804D01*
X58800Y7133D01*
Y7467D01*
X58735Y7796D01*
X58607Y8105D01*
X58420Y8384D01*
X58184Y8620D01*
X57905Y8807D01*
X57596Y8935D01*
X57267Y9000D01*
D02*
G37*
G36*
X5708Y7409D02*
X5324D01*
X4947Y7334D01*
X4592Y7187D01*
X4273Y6974D01*
X4001Y6702D01*
X3788Y6383D01*
X3641Y6028D01*
X3566Y5651D01*
Y5267D01*
X3641Y4890D01*
X3788Y4535D01*
X4001Y4216D01*
X4273Y3944D01*
X4592Y3731D01*
X4947Y3584D01*
X5324Y3509D01*
X5708D01*
X6085Y3584D01*
X6440Y3731D01*
X6759Y3944D01*
X7031Y4216D01*
X7244Y4535D01*
X7391Y4890D01*
X7466Y5267D01*
Y5651D01*
X7391Y6028D01*
X7244Y6383D01*
X7031Y6702D01*
X6759Y6974D01*
X6440Y7187D01*
X6085Y7334D01*
X5708Y7409D01*
D02*
G37*
%LPD*%
D12*
X15975Y74550D02*
X16840Y73685D01*
X27600D01*
X27610Y73675D01*
X32525D01*
X33710Y74860D01*
Y76310D02*
X33800Y76400D01*
X28300D02*
X33800D01*
X33710Y74860D02*
Y76310D01*
X7600Y62300D02*
X18640D01*
X48915Y79315D02*
X53875D01*
X48875Y79275D02*
X48915Y79315D01*
X18670Y59730D02*
Y62270D01*
X75400Y21350D02*
X77180Y19570D01*
X79600D01*
X18640Y62300D02*
X18670Y62270D01*
D13*
X68145Y69855D02*
Y73820D01*
X68150Y73825D01*
X68140Y69850D02*
X68145Y69855D01*
D14*
X47895Y17030D02*
X79600D01*
X21958Y39393D02*
X21975Y39375D01*
X18670Y39410D02*
X18688Y39393D01*
X21958D01*
X18670Y36870D02*
X20705D01*
X22075Y35500D01*
X44650Y17375D02*
Y24875D01*
Y17375D02*
X47535Y14490D01*
X79600D01*
X35967Y14068D02*
X37250Y15350D01*
Y33550D01*
X18728Y14068D02*
X35967D01*
X18670Y19090D02*
X18734Y19154D01*
X20129D02*
X34800Y33825D01*
X18734Y19154D02*
X20129D01*
X18670Y14010D02*
X18728Y14068D01*
X65525Y69775D02*
X65600Y69850D01*
X65525Y65675D02*
Y69775D01*
X65450Y65600D02*
X65525Y65675D01*
X60548Y64202D02*
Y69823D01*
Y64202D02*
X60625Y64125D01*
X60520Y69850D02*
X60548Y69823D01*
X62980Y69770D02*
X63060Y69850D01*
X62980Y67180D02*
Y69770D01*
X62900Y67100D02*
X62980Y67180D01*
X18670Y49570D02*
X21020D01*
X22025Y50575D01*
X14200Y32950D02*
X15580Y34330D01*
X18670D01*
X68245Y36630D02*
X68350Y36525D01*
X68140Y44850D02*
X68245Y44745D01*
Y36630D02*
Y44745D01*
X14450Y19950D02*
X18670Y24170D01*
X11300Y19950D02*
X14450D01*
X15697Y18072D02*
Y18657D01*
X15525Y17900D02*
X15697Y18072D01*
Y18657D02*
X18670Y21630D01*
X13600Y23800D02*
Y25275D01*
X15035Y26710D02*
X18670D01*
X13600Y25275D02*
X15035Y26710D01*
X65625Y41625D02*
X65750Y41500D01*
X65625Y41625D02*
Y44825D01*
X63068Y39257D02*
Y44842D01*
X63060Y44850D02*
X63068Y44842D01*
Y39257D02*
X63075Y39250D01*
X65600Y44850D02*
X65625Y44825D01*
X70680Y41275D02*
Y44850D01*
D15*
X2600Y62300D02*
D03*
D16*
X7600Y62300D02*
D03*
D17*
X57100Y29300D02*
D03*
Y7300D02*
D03*
X79100D02*
D03*
Y29300D02*
D03*
D18*
X79600Y14490D02*
D03*
Y17030D02*
D03*
Y19570D02*
D03*
X53875Y79315D02*
D03*
X28300Y76400D02*
D03*
D19*
X79600Y22110D02*
D03*
X53875Y76775D02*
D03*
X28300Y78940D02*
D03*
D20*
X15975Y74550D02*
D03*
D21*
Y69470D02*
D03*
D22*
X18670Y8930D02*
D03*
X41530D02*
D03*
X18670Y11470D02*
D03*
Y14010D02*
D03*
Y16550D02*
D03*
Y19090D02*
D03*
Y21630D02*
D03*
Y24170D02*
D03*
Y26710D02*
D03*
Y29250D02*
D03*
Y31790D02*
D03*
Y34330D02*
D03*
Y36870D02*
D03*
Y39410D02*
D03*
Y41950D02*
D03*
Y44490D02*
D03*
Y47030D02*
D03*
Y49570D02*
D03*
Y52110D02*
D03*
Y54650D02*
D03*
Y57190D02*
D03*
Y59730D02*
D03*
X41530Y11470D02*
D03*
Y14010D02*
D03*
Y16550D02*
D03*
Y19090D02*
D03*
Y21630D02*
D03*
Y24170D02*
D03*
Y26710D02*
D03*
Y29250D02*
D03*
Y31790D02*
D03*
Y34330D02*
D03*
Y36870D02*
D03*
Y39410D02*
D03*
Y41950D02*
D03*
Y44490D02*
D03*
Y47030D02*
D03*
Y49570D02*
D03*
Y52110D02*
D03*
Y54650D02*
D03*
Y57190D02*
D03*
Y59730D02*
D03*
Y62270D02*
D03*
D23*
X18670D02*
D03*
D24*
X73220Y44850D02*
D03*
X70680D02*
D03*
X68140D02*
D03*
X65600D02*
D03*
X63060D02*
D03*
X60520D02*
D03*
X57980D02*
D03*
X55440D02*
D03*
X60520Y69850D02*
D03*
X63060D02*
D03*
X65600D02*
D03*
X68140D02*
D03*
X70680D02*
D03*
X55440D02*
D03*
X57980D02*
D03*
D25*
X73220D02*
D03*
D26*
X33800Y76400D02*
D03*
X38200Y72900D02*
D03*
Y80000D02*
D03*
X47200Y69800D02*
D03*
X48975Y79275D02*
D03*
D27*
X75400Y21350D02*
D03*
X12700Y62350D02*
D03*
X68150Y73825D02*
D03*
X22075Y35500D02*
D03*
X21975Y39375D02*
D03*
X44650Y25000D02*
D03*
X47895Y17030D02*
D03*
X37250Y33550D02*
D03*
X34800Y33825D02*
D03*
X65450Y65600D02*
D03*
X60625Y64125D02*
D03*
X62900Y67100D02*
D03*
X22025Y50575D02*
D03*
X14200Y32950D02*
D03*
X68350Y36525D02*
D03*
X11300Y19950D02*
D03*
X15525Y17900D02*
D03*
X13600Y23800D02*
D03*
X65750Y41500D02*
D03*
X63075Y39250D02*
D03*
X70680Y41275D02*
D03*
M02*
