G04*
G04 #@! TF.GenerationSoftware,Altium Limited,Altium Designer,22.3.1 (43)*
G04*
G04 Layer_Physical_Order=2*
G04 Layer_Color=16711680*
%FSLAX43Y43*%
%MOMM*%
G71*
G04*
G04 #@! TF.SameCoordinates,41D4DEE2-B45B-4D41-A9CB-04150D2C2734*
G04*
G04*
G04 #@! TF.FilePolarity,Positive*
G04*
G01*
G75*
%ADD13C,0.300*%
%ADD14C,0.800*%
%ADD15C,0.500*%
%ADD16C,1.000*%
G04:AMPARAMS|DCode=17|XSize=1.8mm|YSize=2mm|CornerRadius=0.45mm|HoleSize=0mm|Usage=FLASHONLY|Rotation=180.000|XOffset=0mm|YOffset=0mm|HoleType=Round|Shape=RoundedRectangle|*
%AMROUNDEDRECTD17*
21,1,1.800,1.100,0,0,180.0*
21,1,0.900,2.000,0,0,180.0*
1,1,0.900,-0.450,0.550*
1,1,0.900,0.450,0.550*
1,1,0.900,0.450,-0.550*
1,1,0.900,-0.450,-0.550*
%
%ADD17ROUNDEDRECTD17*%
%ADD18R,1.800X1.800*%
%ADD19C,3.000*%
G04:AMPARAMS|DCode=20|XSize=1.8mm|YSize=2.4mm|CornerRadius=0.81mm|HoleSize=0mm|Usage=FLASHONLY|Rotation=270.000|XOffset=0mm|YOffset=0mm|HoleType=Round|Shape=RoundedRectangle|*
%AMROUNDEDRECTD20*
21,1,1.800,0.780,0,0,270.0*
21,1,0.180,2.400,0,0,270.0*
1,1,1.620,-0.390,-0.090*
1,1,1.620,-0.390,0.090*
1,1,1.620,0.390,0.090*
1,1,1.620,0.390,-0.090*
%
%ADD20ROUNDEDRECTD20*%
%ADD21R,2.000X2.000*%
%ADD22R,2.600X2.600*%
%ADD23O,2.800X2.600*%
%ADD24C,1.530*%
%ADD25R,1.530X1.530*%
G04:AMPARAMS|DCode=26|XSize=1.8mm|YSize=2.4mm|CornerRadius=0.81mm|HoleSize=0mm|Usage=FLASHONLY|Rotation=180.000|XOffset=0mm|YOffset=0mm|HoleType=Round|Shape=RoundedRectangle|*
%AMROUNDEDRECTD26*
21,1,1.800,0.780,0,0,180.0*
21,1,0.180,2.400,0,0,180.0*
1,1,1.620,-0.090,0.390*
1,1,1.620,0.090,0.390*
1,1,1.620,0.090,-0.390*
1,1,1.620,-0.090,-0.390*
%
%ADD26ROUNDEDRECTD26*%
%ADD27R,2.000X2.000*%
%ADD28C,1.200*%
%ADD29C,1.270*%
G36*
X82425Y60D02*
X82400Y50D01*
X115D01*
X25Y140D01*
X50Y81040D01*
X75Y81050D01*
X82425D01*
Y60D01*
D02*
G37*
%LPC*%
G36*
X54265Y80500D02*
X53485D01*
X53195Y80461D01*
X52925Y80350D01*
X52693Y80172D01*
X52559Y79996D01*
X49551D01*
X49549Y79998D01*
X49336Y80121D01*
X49098Y80185D01*
X48852D01*
X48614Y80121D01*
X48401Y79998D01*
X48227Y79824D01*
X48104Y79611D01*
X48040Y79373D01*
Y79127D01*
X48104Y78889D01*
X48227Y78676D01*
X48401Y78502D01*
X48614Y78379D01*
X48852Y78315D01*
X49098D01*
X49336Y78379D01*
X49549Y78502D01*
X49631Y78584D01*
X52559D01*
X52693Y78408D01*
X52925Y78230D01*
X53195Y78119D01*
X53485Y78080D01*
X54265D01*
X54555Y78119D01*
X54825Y78230D01*
X55057Y78408D01*
X55235Y78640D01*
X55346Y78910D01*
X55385Y79200D01*
Y79380D01*
X55346Y79670D01*
X55235Y79940D01*
X55057Y80172D01*
X54825Y80350D01*
X54555Y80461D01*
X54265Y80500D01*
D02*
G37*
G36*
X28690Y77585D02*
X27910D01*
X27620Y77546D01*
X27350Y77435D01*
X27118Y77257D01*
X26940Y77025D01*
X26829Y76755D01*
X26790Y76465D01*
Y76285D01*
X26829Y75995D01*
X26940Y75725D01*
X27118Y75493D01*
X27350Y75315D01*
X27620Y75204D01*
X27910Y75165D01*
X28690D01*
X28980Y75204D01*
X29250Y75315D01*
X29482Y75493D01*
X29616Y75669D01*
X33004D01*
Y75128D01*
X32233Y74356D01*
X27678D01*
X27600Y74366D01*
X17575D01*
Y76125D01*
X14375D01*
Y72925D01*
X17575D01*
Y72954D01*
X27533D01*
X27610Y72944D01*
X32525D01*
X32708Y72968D01*
X32878Y73039D01*
X33024Y73151D01*
X34209Y74336D01*
X34322Y74482D01*
X34392Y74652D01*
X34416Y74835D01*
Y75669D01*
X34548Y75801D01*
X34671Y76014D01*
X34735Y76252D01*
Y76498D01*
X34671Y76736D01*
X34548Y76949D01*
X34374Y77123D01*
X34161Y77246D01*
X33923Y77310D01*
X33677D01*
X33439Y77246D01*
X33226Y77123D01*
X33184Y77081D01*
X29616D01*
X29482Y77257D01*
X29250Y77435D01*
X28980Y77546D01*
X28690Y77585D01*
D02*
G37*
G36*
X5802Y77775D02*
X5398D01*
X5002Y77696D01*
X4629Y77542D01*
X4293Y77317D01*
X4008Y77032D01*
X3783Y76696D01*
X3629Y76323D01*
X3550Y75927D01*
Y75523D01*
X3629Y75127D01*
X3783Y74754D01*
X4008Y74418D01*
X4293Y74133D01*
X4629Y73908D01*
X5002Y73754D01*
X5398Y73675D01*
X5802D01*
X6198Y73754D01*
X6571Y73908D01*
X6907Y74133D01*
X7192Y74418D01*
X7417Y74754D01*
X7571Y75127D01*
X7650Y75523D01*
Y75927D01*
X7571Y76323D01*
X7417Y76696D01*
X7192Y77032D01*
X6907Y77317D01*
X6571Y77542D01*
X6198Y77696D01*
X5802Y77775D01*
D02*
G37*
G36*
X77252Y77750D02*
X76848D01*
X76452Y77671D01*
X76079Y77517D01*
X75743Y77292D01*
X75458Y77007D01*
X75233Y76671D01*
X75079Y76298D01*
X75000Y75902D01*
Y75498D01*
X75079Y75102D01*
X75233Y74729D01*
X75458Y74393D01*
X75743Y74108D01*
X76079Y73883D01*
X76452Y73729D01*
X76848Y73650D01*
X77252D01*
X77648Y73729D01*
X78021Y73883D01*
X78357Y74108D01*
X78642Y74393D01*
X78867Y74729D01*
X79021Y75102D01*
X79100Y75498D01*
Y75902D01*
X79021Y76298D01*
X78867Y76671D01*
X78642Y77007D01*
X78357Y77292D01*
X78021Y77517D01*
X77648Y77671D01*
X77252Y77750D01*
D02*
G37*
G36*
X68268Y74700D02*
X68032D01*
X67803Y74639D01*
X67597Y74520D01*
X67430Y74353D01*
X67311Y74147D01*
X67250Y73918D01*
Y73682D01*
X67311Y73453D01*
X67430Y73247D01*
X67584Y73093D01*
Y71224D01*
X67490Y71185D01*
X67258Y71007D01*
X67080Y70775D01*
X66969Y70505D01*
X66934Y70243D01*
X66806D01*
X66771Y70505D01*
X66660Y70775D01*
X66482Y71007D01*
X66250Y71185D01*
X65980Y71296D01*
X65690Y71335D01*
X65510D01*
X65220Y71296D01*
X64950Y71185D01*
X64718Y71007D01*
X64540Y70775D01*
X64429Y70505D01*
X64394Y70243D01*
X64266D01*
X64231Y70505D01*
X64120Y70775D01*
X63942Y71007D01*
X63710Y71185D01*
X63440Y71296D01*
X63150Y71335D01*
X62970D01*
X62680Y71296D01*
X62410Y71185D01*
X62178Y71007D01*
X62000Y70775D01*
X61889Y70505D01*
X61854Y70243D01*
X61726D01*
X61691Y70505D01*
X61580Y70775D01*
X61402Y71007D01*
X61170Y71185D01*
X60900Y71296D01*
X60610Y71335D01*
X60430D01*
X60140Y71296D01*
X59870Y71185D01*
X59638Y71007D01*
X59460Y70775D01*
X59349Y70505D01*
X59314Y70243D01*
X59186D01*
X59151Y70505D01*
X59040Y70775D01*
X58862Y71007D01*
X58630Y71185D01*
X58360Y71296D01*
X58070Y71335D01*
X57890D01*
X57600Y71296D01*
X57330Y71185D01*
X57098Y71007D01*
X56920Y70775D01*
X56809Y70505D01*
X56774Y70243D01*
X56646D01*
X56611Y70505D01*
X56500Y70775D01*
X56322Y71007D01*
X56090Y71185D01*
X55820Y71296D01*
X55530Y71335D01*
X55350D01*
X55060Y71296D01*
X54790Y71185D01*
X54558Y71007D01*
X54380Y70775D01*
X54269Y70505D01*
X54230Y70215D01*
Y69435D01*
X54269Y69145D01*
X54380Y68875D01*
X54558Y68643D01*
X54790Y68465D01*
X55060Y68354D01*
X55350Y68315D01*
X55530D01*
X55820Y68354D01*
X56090Y68465D01*
X56322Y68643D01*
X56500Y68875D01*
X56611Y69145D01*
X56646Y69407D01*
X56774D01*
X56809Y69145D01*
X56920Y68875D01*
X57098Y68643D01*
X57330Y68465D01*
X57600Y68354D01*
X57890Y68315D01*
X58070D01*
X58360Y68354D01*
X58630Y68465D01*
X58862Y68643D01*
X59040Y68875D01*
X59151Y69145D01*
X59186Y69407D01*
X59314D01*
X59349Y69145D01*
X59460Y68875D01*
X59638Y68643D01*
X59870Y68465D01*
X60089Y68375D01*
Y64830D01*
X60072Y64820D01*
X59905Y64653D01*
X59786Y64447D01*
X59725Y64218D01*
Y63982D01*
X59786Y63753D01*
X59905Y63547D01*
X60072Y63380D01*
X60278Y63261D01*
X60507Y63200D01*
X60743D01*
X60972Y63261D01*
X61178Y63380D01*
X61345Y63547D01*
X61464Y63753D01*
X61525Y63982D01*
Y64218D01*
X61464Y64447D01*
X61345Y64653D01*
X61178Y64820D01*
X61006Y64919D01*
Y68398D01*
X61170Y68465D01*
X61402Y68643D01*
X61580Y68875D01*
X61691Y69145D01*
X61726Y69407D01*
X61854D01*
X61889Y69145D01*
X62000Y68875D01*
X62178Y68643D01*
X62410Y68465D01*
X62521Y68419D01*
Y67896D01*
X62347Y67795D01*
X62180Y67628D01*
X62061Y67422D01*
X62000Y67193D01*
Y66957D01*
X62061Y66728D01*
X62180Y66522D01*
X62347Y66355D01*
X62553Y66236D01*
X62782Y66175D01*
X63018D01*
X63247Y66236D01*
X63453Y66355D01*
X63620Y66522D01*
X63739Y66728D01*
X63800Y66957D01*
Y67193D01*
X63739Y67422D01*
X63620Y67628D01*
X63453Y67795D01*
X63439Y67803D01*
Y68353D01*
X63440Y68354D01*
X63710Y68465D01*
X63942Y68643D01*
X64120Y68875D01*
X64231Y69145D01*
X64266Y69407D01*
X64394D01*
X64429Y69145D01*
X64540Y68875D01*
X64718Y68643D01*
X64950Y68465D01*
X65066Y68417D01*
Y66393D01*
X64897Y66295D01*
X64730Y66128D01*
X64611Y65922D01*
X64550Y65693D01*
Y65457D01*
X64611Y65228D01*
X64730Y65022D01*
X64897Y64855D01*
X65103Y64736D01*
X65332Y64675D01*
X65568D01*
X65797Y64736D01*
X66003Y64855D01*
X66170Y65022D01*
X66289Y65228D01*
X66350Y65457D01*
Y65693D01*
X66289Y65922D01*
X66170Y66128D01*
X66003Y66295D01*
X65984Y66306D01*
Y68355D01*
X66250Y68465D01*
X66482Y68643D01*
X66660Y68875D01*
X66771Y69145D01*
X66806Y69407D01*
X66934D01*
X66969Y69145D01*
X67080Y68875D01*
X67258Y68643D01*
X67490Y68465D01*
X67760Y68354D01*
X68050Y68315D01*
X68230D01*
X68520Y68354D01*
X68790Y68465D01*
X69022Y68643D01*
X69200Y68875D01*
X69311Y69145D01*
X69350Y69435D01*
Y70215D01*
X69311Y70505D01*
X69200Y70775D01*
X69022Y71007D01*
X68790Y71185D01*
X68706Y71219D01*
Y73083D01*
X68870Y73247D01*
X68989Y73453D01*
X69050Y73682D01*
Y73918D01*
X68989Y74147D01*
X68870Y74353D01*
X68703Y74520D01*
X68497Y74639D01*
X68268Y74700D01*
D02*
G37*
G36*
X41670Y60770D02*
X41390D01*
X41119Y60697D01*
X40876Y60557D01*
X40678Y60359D01*
X40538Y60116D01*
X40465Y59845D01*
Y59565D01*
X40538Y59294D01*
X40678Y59051D01*
X40876Y58853D01*
X41119Y58713D01*
X41390Y58640D01*
X41670D01*
X41941Y58713D01*
X42184Y58853D01*
X42382Y59051D01*
X42522Y59294D01*
X42595Y59565D01*
Y59845D01*
X42522Y60116D01*
X42382Y60359D01*
X42184Y60557D01*
X41941Y60697D01*
X41670Y60770D01*
D02*
G37*
G36*
X8800Y63475D02*
X6400D01*
Y61075D01*
X8800D01*
Y61468D01*
X12421D01*
X12582Y61425D01*
X12818D01*
X12979Y61468D01*
X17605D01*
Y61180D01*
X17863D01*
Y60404D01*
X17818Y60359D01*
X17678Y60116D01*
X17605Y59845D01*
Y59565D01*
X17678Y59294D01*
X17818Y59051D01*
X18016Y58853D01*
X18259Y58713D01*
X18530Y58640D01*
X18810D01*
X19081Y58713D01*
X19324Y58853D01*
X19522Y59051D01*
X19662Y59294D01*
X19735Y59565D01*
Y59845D01*
X19662Y60116D01*
X19522Y60359D01*
X19477Y60404D01*
Y61180D01*
X19735D01*
Y63310D01*
X17605D01*
Y63082D01*
X13189D01*
X13047Y63164D01*
X12818Y63225D01*
X12582D01*
X12353Y63164D01*
X12211Y63082D01*
X8800D01*
Y63475D01*
D02*
G37*
G36*
X41670Y58230D02*
X41390D01*
X41119Y58157D01*
X40876Y58017D01*
X40678Y57819D01*
X40538Y57576D01*
X40465Y57305D01*
Y57025D01*
X40538Y56754D01*
X40678Y56511D01*
X40876Y56313D01*
X41119Y56173D01*
X41390Y56100D01*
X41670D01*
X41941Y56173D01*
X42184Y56313D01*
X42382Y56511D01*
X42522Y56754D01*
X42595Y57025D01*
Y57305D01*
X42522Y57576D01*
X42382Y57819D01*
X42184Y58017D01*
X41941Y58157D01*
X41670Y58230D01*
D02*
G37*
G36*
X18810D02*
X18530D01*
X18259Y58157D01*
X18016Y58017D01*
X17818Y57819D01*
X17678Y57576D01*
X17605Y57305D01*
Y57025D01*
X17678Y56754D01*
X17818Y56511D01*
X18016Y56313D01*
X18259Y56173D01*
X18530Y56100D01*
X18810D01*
X19081Y56173D01*
X19324Y56313D01*
X19522Y56511D01*
X19662Y56754D01*
X19735Y57025D01*
Y57305D01*
X19662Y57576D01*
X19522Y57819D01*
X19324Y58017D01*
X19081Y58157D01*
X18810Y58230D01*
D02*
G37*
G36*
X41670Y55690D02*
X41390D01*
X41119Y55617D01*
X40876Y55477D01*
X40678Y55279D01*
X40538Y55036D01*
X40465Y54765D01*
Y54485D01*
X40538Y54214D01*
X40678Y53971D01*
X40876Y53773D01*
X41119Y53633D01*
X41390Y53560D01*
X41670D01*
X41941Y53633D01*
X42184Y53773D01*
X42382Y53971D01*
X42522Y54214D01*
X42595Y54485D01*
Y54765D01*
X42522Y55036D01*
X42382Y55279D01*
X42184Y55477D01*
X41941Y55617D01*
X41670Y55690D01*
D02*
G37*
G36*
X18810D02*
X18530D01*
X18259Y55617D01*
X18016Y55477D01*
X17818Y55279D01*
X17678Y55036D01*
X17605Y54765D01*
Y54485D01*
X17678Y54214D01*
X17818Y53971D01*
X18016Y53773D01*
X18259Y53633D01*
X18530Y53560D01*
X18810D01*
X19081Y53633D01*
X19324Y53773D01*
X19522Y53971D01*
X19662Y54214D01*
X19735Y54485D01*
Y54765D01*
X19662Y55036D01*
X19522Y55279D01*
X19324Y55477D01*
X19081Y55617D01*
X18810Y55690D01*
D02*
G37*
G36*
X41670Y53150D02*
X41390D01*
X41119Y53077D01*
X40876Y52937D01*
X40678Y52739D01*
X40538Y52496D01*
X40465Y52225D01*
Y51945D01*
X40538Y51674D01*
X40678Y51431D01*
X40876Y51233D01*
X41119Y51093D01*
X41390Y51020D01*
X41670D01*
X41941Y51093D01*
X42184Y51233D01*
X42382Y51431D01*
X42522Y51674D01*
X42595Y51945D01*
Y52225D01*
X42522Y52496D01*
X42382Y52739D01*
X42184Y52937D01*
X41941Y53077D01*
X41670Y53150D01*
D02*
G37*
G36*
X18810D02*
X18530D01*
X18259Y53077D01*
X18016Y52937D01*
X17818Y52739D01*
X17678Y52496D01*
X17605Y52225D01*
Y51945D01*
X17678Y51674D01*
X17818Y51431D01*
X18016Y51233D01*
X18259Y51093D01*
X18530Y51020D01*
X18810D01*
X19081Y51093D01*
X19324Y51233D01*
X19522Y51431D01*
X19662Y51674D01*
X19735Y51945D01*
Y52225D01*
X19662Y52496D01*
X19522Y52739D01*
X19324Y52937D01*
X19081Y53077D01*
X18810Y53150D01*
D02*
G37*
G36*
X22143Y51450D02*
X21907D01*
X21678Y51389D01*
X21472Y51270D01*
X21305Y51103D01*
X21186Y50897D01*
X21125Y50668D01*
Y50432D01*
X21153Y50327D01*
X20830Y50004D01*
X19635D01*
X19522Y50199D01*
X19324Y50397D01*
X19081Y50537D01*
X18810Y50610D01*
X18530D01*
X18259Y50537D01*
X18016Y50397D01*
X17818Y50199D01*
X17678Y49956D01*
X17605Y49685D01*
Y49405D01*
X17678Y49134D01*
X17818Y48891D01*
X18016Y48693D01*
X18259Y48553D01*
X18530Y48480D01*
X18810D01*
X19081Y48553D01*
X19324Y48693D01*
X19522Y48891D01*
X19635Y49086D01*
X21020D01*
X21196Y49121D01*
X21344Y49221D01*
X21802Y49678D01*
X21907Y49650D01*
X22143D01*
X22372Y49711D01*
X22578Y49830D01*
X22745Y49997D01*
X22864Y50203D01*
X22925Y50432D01*
Y50668D01*
X22864Y50897D01*
X22745Y51103D01*
X22578Y51270D01*
X22372Y51389D01*
X22143Y51450D01*
D02*
G37*
G36*
X41670Y50610D02*
X41390D01*
X41119Y50537D01*
X40876Y50397D01*
X40678Y50199D01*
X40538Y49956D01*
X40465Y49685D01*
Y49405D01*
X40538Y49134D01*
X40678Y48891D01*
X40876Y48693D01*
X41119Y48553D01*
X41390Y48480D01*
X41670D01*
X41941Y48553D01*
X42184Y48693D01*
X42382Y48891D01*
X42522Y49134D01*
X42595Y49405D01*
Y49685D01*
X42522Y49956D01*
X42382Y50199D01*
X42184Y50397D01*
X41941Y50537D01*
X41670Y50610D01*
D02*
G37*
G36*
Y48070D02*
X41390D01*
X41119Y47997D01*
X40876Y47857D01*
X40678Y47659D01*
X40538Y47416D01*
X40465Y47145D01*
Y46865D01*
X40538Y46594D01*
X40678Y46351D01*
X40876Y46153D01*
X41119Y46013D01*
X41390Y45940D01*
X41670D01*
X41941Y46013D01*
X42184Y46153D01*
X42382Y46351D01*
X42522Y46594D01*
X42595Y46865D01*
Y47145D01*
X42522Y47416D01*
X42382Y47659D01*
X42184Y47857D01*
X41941Y47997D01*
X41670Y48070D01*
D02*
G37*
G36*
X18810D02*
X18530D01*
X18259Y47997D01*
X18016Y47857D01*
X17818Y47659D01*
X17678Y47416D01*
X17605Y47145D01*
Y46865D01*
X17678Y46594D01*
X17818Y46351D01*
X18016Y46153D01*
X18259Y46013D01*
X18530Y45940D01*
X18810D01*
X19081Y46013D01*
X19324Y46153D01*
X19522Y46351D01*
X19662Y46594D01*
X19735Y46865D01*
Y47145D01*
X19662Y47416D01*
X19522Y47659D01*
X19324Y47857D01*
X19081Y47997D01*
X18810Y48070D01*
D02*
G37*
G36*
X70770Y46335D02*
X70590D01*
X70300Y46296D01*
X70030Y46185D01*
X69798Y46007D01*
X69620Y45775D01*
X69509Y45505D01*
X69474Y45243D01*
X69346D01*
X69311Y45505D01*
X69200Y45775D01*
X69022Y46007D01*
X68790Y46185D01*
X68520Y46296D01*
X68230Y46335D01*
X68050D01*
X67760Y46296D01*
X67490Y46185D01*
X67258Y46007D01*
X67080Y45775D01*
X66969Y45505D01*
X66934Y45243D01*
X66806D01*
X66771Y45505D01*
X66660Y45775D01*
X66482Y46007D01*
X66250Y46185D01*
X65980Y46296D01*
X65690Y46335D01*
X65510D01*
X65220Y46296D01*
X64950Y46185D01*
X64718Y46007D01*
X64540Y45775D01*
X64429Y45505D01*
X64394Y45243D01*
X64266D01*
X64231Y45505D01*
X64120Y45775D01*
X63942Y46007D01*
X63710Y46185D01*
X63440Y46296D01*
X63150Y46335D01*
X62970D01*
X62680Y46296D01*
X62410Y46185D01*
X62178Y46007D01*
X62000Y45775D01*
X61889Y45505D01*
X61854Y45243D01*
X61726D01*
X61691Y45505D01*
X61580Y45775D01*
X61402Y46007D01*
X61170Y46185D01*
X60900Y46296D01*
X60610Y46335D01*
X60430D01*
X60140Y46296D01*
X59870Y46185D01*
X59638Y46007D01*
X59460Y45775D01*
X59349Y45505D01*
X59314Y45243D01*
X59186D01*
X59151Y45505D01*
X59040Y45775D01*
X58862Y46007D01*
X58630Y46185D01*
X58360Y46296D01*
X58070Y46335D01*
X57890D01*
X57600Y46296D01*
X57330Y46185D01*
X57098Y46007D01*
X56920Y45775D01*
X56809Y45505D01*
X56770Y45215D01*
Y44435D01*
X56809Y44145D01*
X56920Y43875D01*
X57098Y43643D01*
X57330Y43465D01*
X57600Y43354D01*
X57890Y43315D01*
X58070D01*
X58360Y43354D01*
X58630Y43465D01*
X58862Y43643D01*
X59040Y43875D01*
X59151Y44145D01*
X59186Y44407D01*
X59314D01*
X59349Y44145D01*
X59460Y43875D01*
X59638Y43643D01*
X59870Y43465D01*
X60140Y43354D01*
X60430Y43315D01*
X60610D01*
X60900Y43354D01*
X61170Y43465D01*
X61402Y43643D01*
X61580Y43875D01*
X61691Y44145D01*
X61726Y44407D01*
X61854D01*
X61889Y44145D01*
X62000Y43875D01*
X62178Y43643D01*
X62410Y43465D01*
X62609Y43383D01*
Y39995D01*
X62522Y39945D01*
X62355Y39778D01*
X62236Y39572D01*
X62175Y39343D01*
Y39107D01*
X62236Y38878D01*
X62355Y38672D01*
X62522Y38505D01*
X62728Y38386D01*
X62957Y38325D01*
X63193D01*
X63422Y38386D01*
X63628Y38505D01*
X63795Y38672D01*
X63914Y38878D01*
X63975Y39107D01*
Y39343D01*
X63914Y39572D01*
X63795Y39778D01*
X63628Y39945D01*
X63526Y40004D01*
Y43389D01*
X63710Y43465D01*
X63942Y43643D01*
X64120Y43875D01*
X64231Y44145D01*
X64266Y44407D01*
X64394D01*
X64429Y44145D01*
X64540Y43875D01*
X64718Y43643D01*
X64950Y43465D01*
X65166Y43376D01*
Y42164D01*
X65030Y42028D01*
X64911Y41822D01*
X64850Y41593D01*
Y41357D01*
X64911Y41128D01*
X65030Y40922D01*
X65197Y40755D01*
X65403Y40636D01*
X65632Y40575D01*
X65868D01*
X66097Y40636D01*
X66303Y40755D01*
X66470Y40922D01*
X66589Y41128D01*
X66650Y41357D01*
Y41593D01*
X66589Y41822D01*
X66470Y42028D01*
X66303Y42195D01*
X66097Y42314D01*
X66084Y42317D01*
Y43397D01*
X66250Y43465D01*
X66482Y43643D01*
X66660Y43875D01*
X66771Y44145D01*
X66806Y44407D01*
X66934D01*
X66969Y44145D01*
X67080Y43875D01*
X67258Y43643D01*
X67490Y43465D01*
X67760Y43354D01*
X67786Y43350D01*
Y37209D01*
X67630Y37053D01*
X67511Y36847D01*
X67450Y36618D01*
Y36382D01*
X67511Y36153D01*
X67630Y35947D01*
X67797Y35780D01*
X68003Y35661D01*
X68232Y35600D01*
X68468D01*
X68697Y35661D01*
X68903Y35780D01*
X69070Y35947D01*
X69189Y36153D01*
X69250Y36382D01*
Y36618D01*
X69189Y36847D01*
X69070Y37053D01*
X68903Y37220D01*
X68704Y37335D01*
Y43430D01*
X68790Y43465D01*
X69022Y43643D01*
X69200Y43875D01*
X69311Y44145D01*
X69346Y44407D01*
X69474D01*
X69509Y44145D01*
X69620Y43875D01*
X69798Y43643D01*
X70030Y43465D01*
X70221Y43386D01*
Y42024D01*
X70127Y41970D01*
X69960Y41803D01*
X69841Y41597D01*
X69780Y41368D01*
Y41132D01*
X69841Y40903D01*
X69960Y40697D01*
X70127Y40530D01*
X70333Y40411D01*
X70562Y40350D01*
X70798D01*
X71027Y40411D01*
X71233Y40530D01*
X71400Y40697D01*
X71519Y40903D01*
X71580Y41132D01*
Y41368D01*
X71519Y41597D01*
X71400Y41803D01*
X71233Y41970D01*
X71139Y42024D01*
Y43386D01*
X71330Y43465D01*
X71562Y43643D01*
X71740Y43875D01*
X71851Y44145D01*
X71890Y44435D01*
Y45215D01*
X71851Y45505D01*
X71740Y45775D01*
X71562Y46007D01*
X71330Y46185D01*
X71060Y46296D01*
X70770Y46335D01*
D02*
G37*
G36*
X41670Y45530D02*
X41390D01*
X41119Y45457D01*
X40876Y45317D01*
X40678Y45119D01*
X40538Y44876D01*
X40465Y44605D01*
Y44325D01*
X40538Y44054D01*
X40678Y43811D01*
X40876Y43613D01*
X41119Y43473D01*
X41390Y43400D01*
X41670D01*
X41941Y43473D01*
X42184Y43613D01*
X42382Y43811D01*
X42522Y44054D01*
X42595Y44325D01*
Y44605D01*
X42522Y44876D01*
X42382Y45119D01*
X42184Y45317D01*
X41941Y45457D01*
X41670Y45530D01*
D02*
G37*
G36*
X18810D02*
X18530D01*
X18259Y45457D01*
X18016Y45317D01*
X17818Y45119D01*
X17678Y44876D01*
X17605Y44605D01*
Y44325D01*
X17678Y44054D01*
X17818Y43811D01*
X18016Y43613D01*
X18259Y43473D01*
X18530Y43400D01*
X18810D01*
X19081Y43473D01*
X19324Y43613D01*
X19522Y43811D01*
X19662Y44054D01*
X19735Y44325D01*
Y44605D01*
X19662Y44876D01*
X19522Y45119D01*
X19324Y45317D01*
X19081Y45457D01*
X18810Y45530D01*
D02*
G37*
G36*
X41670Y42990D02*
X41390D01*
X41119Y42917D01*
X40876Y42777D01*
X40678Y42579D01*
X40538Y42336D01*
X40465Y42065D01*
Y41785D01*
X40538Y41514D01*
X40678Y41271D01*
X40876Y41073D01*
X41119Y40933D01*
X41390Y40860D01*
X41670D01*
X41941Y40933D01*
X42184Y41073D01*
X42382Y41271D01*
X42522Y41514D01*
X42595Y41785D01*
Y42065D01*
X42522Y42336D01*
X42382Y42579D01*
X42184Y42777D01*
X41941Y42917D01*
X41670Y42990D01*
D02*
G37*
G36*
X18810D02*
X18530D01*
X18259Y42917D01*
X18016Y42777D01*
X17818Y42579D01*
X17678Y42336D01*
X17605Y42065D01*
Y41785D01*
X17678Y41514D01*
X17818Y41271D01*
X18016Y41073D01*
X18259Y40933D01*
X18530Y40860D01*
X18810D01*
X19081Y40933D01*
X19324Y41073D01*
X19522Y41271D01*
X19662Y41514D01*
X19735Y41785D01*
Y42065D01*
X19662Y42336D01*
X19522Y42579D01*
X19324Y42777D01*
X19081Y42917D01*
X18810Y42990D01*
D02*
G37*
G36*
Y40450D02*
X18530D01*
X18259Y40377D01*
X18016Y40237D01*
X17818Y40039D01*
X17678Y39796D01*
X17605Y39525D01*
Y39245D01*
X17678Y38974D01*
X17818Y38731D01*
X18016Y38533D01*
X18259Y38393D01*
X18530Y38320D01*
X18810D01*
X19081Y38393D01*
X19324Y38533D01*
X19522Y38731D01*
X19625Y38909D01*
X21191D01*
X21255Y38797D01*
X21422Y38630D01*
X21628Y38511D01*
X21857Y38450D01*
X22093D01*
X22322Y38511D01*
X22528Y38630D01*
X22695Y38797D01*
X22814Y39003D01*
X22875Y39232D01*
Y39468D01*
X22814Y39697D01*
X22695Y39903D01*
X22528Y40070D01*
X22322Y40189D01*
X22093Y40250D01*
X21857D01*
X21628Y40189D01*
X21422Y40070D01*
X21255Y39903D01*
X21211Y39826D01*
X19645D01*
X19522Y40039D01*
X19324Y40237D01*
X19081Y40377D01*
X18810Y40450D01*
D02*
G37*
G36*
X41670D02*
X41390D01*
X41119Y40377D01*
X40876Y40237D01*
X40678Y40039D01*
X40538Y39796D01*
X40465Y39525D01*
Y39245D01*
X40538Y38974D01*
X40678Y38731D01*
X40876Y38533D01*
X41119Y38393D01*
X41390Y38320D01*
X41670D01*
X41941Y38393D01*
X42184Y38533D01*
X42382Y38731D01*
X42522Y38974D01*
X42595Y39245D01*
Y39525D01*
X42522Y39796D01*
X42382Y40039D01*
X42184Y40237D01*
X41941Y40377D01*
X41670Y40450D01*
D02*
G37*
G36*
Y37910D02*
X41390D01*
X41119Y37837D01*
X40876Y37697D01*
X40678Y37499D01*
X40538Y37256D01*
X40465Y36985D01*
Y36705D01*
X40538Y36434D01*
X40678Y36191D01*
X40876Y35993D01*
X41119Y35853D01*
X41390Y35780D01*
X41670D01*
X41941Y35853D01*
X42184Y35993D01*
X42382Y36191D01*
X42522Y36434D01*
X42595Y36705D01*
Y36985D01*
X42522Y37256D01*
X42382Y37499D01*
X42184Y37697D01*
X41941Y37837D01*
X41670Y37910D01*
D02*
G37*
G36*
X18810D02*
X18530D01*
X18259Y37837D01*
X18016Y37697D01*
X17818Y37499D01*
X17678Y37256D01*
X17605Y36985D01*
Y36705D01*
X17678Y36434D01*
X17818Y36191D01*
X18016Y35993D01*
X18259Y35853D01*
X18530Y35780D01*
X18810D01*
X19081Y35853D01*
X19324Y35993D01*
X19522Y36191D01*
X19635Y36386D01*
X20515D01*
X21203Y35698D01*
X21175Y35593D01*
Y35357D01*
X21236Y35128D01*
X21355Y34922D01*
X21522Y34755D01*
X21728Y34636D01*
X21957Y34575D01*
X22193D01*
X22422Y34636D01*
X22628Y34755D01*
X22795Y34922D01*
X22914Y35128D01*
X22975Y35357D01*
Y35593D01*
X22914Y35822D01*
X22795Y36028D01*
X22628Y36195D01*
X22422Y36314D01*
X22193Y36375D01*
X21957D01*
X21852Y36347D01*
X21029Y37169D01*
X20881Y37269D01*
X20705Y37304D01*
X19635D01*
X19522Y37499D01*
X19324Y37697D01*
X19081Y37837D01*
X18810Y37910D01*
D02*
G37*
G36*
X41670Y35370D02*
X41390D01*
X41119Y35297D01*
X40876Y35157D01*
X40678Y34959D01*
X40538Y34716D01*
X40465Y34445D01*
Y34165D01*
X40538Y33894D01*
X40678Y33651D01*
X40876Y33453D01*
X41119Y33313D01*
X41390Y33240D01*
X41670D01*
X41941Y33313D01*
X42184Y33453D01*
X42382Y33651D01*
X42522Y33894D01*
X42595Y34165D01*
Y34445D01*
X42522Y34716D01*
X42382Y34959D01*
X42184Y35157D01*
X41941Y35297D01*
X41670Y35370D01*
D02*
G37*
G36*
X18810D02*
X18530D01*
X18259Y35297D01*
X18016Y35157D01*
X17818Y34959D01*
X17705Y34764D01*
X15580D01*
X15404Y34729D01*
X15256Y34629D01*
X14423Y33797D01*
X14318Y33825D01*
X14082D01*
X13853Y33764D01*
X13647Y33645D01*
X13480Y33478D01*
X13361Y33272D01*
X13300Y33043D01*
Y32807D01*
X13361Y32578D01*
X13480Y32372D01*
X13647Y32205D01*
X13853Y32086D01*
X14082Y32025D01*
X14318D01*
X14547Y32086D01*
X14753Y32205D01*
X14920Y32372D01*
X15039Y32578D01*
X15100Y32807D01*
Y33043D01*
X15072Y33148D01*
X15770Y33846D01*
X17705D01*
X17818Y33651D01*
X18016Y33453D01*
X18259Y33313D01*
X18530Y33240D01*
X18810D01*
X19081Y33313D01*
X19324Y33453D01*
X19522Y33651D01*
X19662Y33894D01*
X19735Y34165D01*
Y34445D01*
X19662Y34716D01*
X19522Y34959D01*
X19324Y35157D01*
X19081Y35297D01*
X18810Y35370D01*
D02*
G37*
G36*
X34918Y34700D02*
X34682D01*
X34453Y34639D01*
X34247Y34520D01*
X34080Y34353D01*
X33961Y34147D01*
X33900Y33918D01*
Y33682D01*
X33928Y33577D01*
X19938Y19587D01*
X19598D01*
X19522Y19719D01*
X19324Y19917D01*
X19081Y20057D01*
X18810Y20130D01*
X18530D01*
X18259Y20057D01*
X18016Y19917D01*
X17818Y19719D01*
X17678Y19476D01*
X17605Y19205D01*
Y18925D01*
X17678Y18654D01*
X17818Y18411D01*
X18016Y18213D01*
X18259Y18073D01*
X18530Y18000D01*
X18810D01*
X19081Y18073D01*
X19324Y18213D01*
X19522Y18411D01*
X19662Y18654D01*
X19667Y18670D01*
X20129D01*
X20304Y18705D01*
X20453Y18804D01*
X34577Y32928D01*
X34682Y32900D01*
X34918D01*
X35147Y32961D01*
X35353Y33080D01*
X35520Y33247D01*
X35639Y33453D01*
X35700Y33682D01*
Y33918D01*
X35639Y34147D01*
X35520Y34353D01*
X35353Y34520D01*
X35147Y34639D01*
X34918Y34700D01*
D02*
G37*
G36*
X41670Y32830D02*
X41390D01*
X41119Y32757D01*
X40876Y32617D01*
X40678Y32419D01*
X40538Y32176D01*
X40465Y31905D01*
Y31625D01*
X40538Y31354D01*
X40678Y31111D01*
X40876Y30913D01*
X41119Y30773D01*
X41390Y30700D01*
X41670D01*
X41941Y30773D01*
X42184Y30913D01*
X42382Y31111D01*
X42522Y31354D01*
X42595Y31625D01*
Y31905D01*
X42522Y32176D01*
X42382Y32419D01*
X42184Y32617D01*
X41941Y32757D01*
X41670Y32830D01*
D02*
G37*
G36*
X18810D02*
X18530D01*
X18259Y32757D01*
X18016Y32617D01*
X17818Y32419D01*
X17678Y32176D01*
X17605Y31905D01*
Y31625D01*
X17678Y31354D01*
X17818Y31111D01*
X18016Y30913D01*
X18259Y30773D01*
X18530Y30700D01*
X18810D01*
X19081Y30773D01*
X19324Y30913D01*
X19522Y31111D01*
X19662Y31354D01*
X19735Y31625D01*
Y31905D01*
X19662Y32176D01*
X19522Y32419D01*
X19324Y32617D01*
X19081Y32757D01*
X18810Y32830D01*
D02*
G37*
G36*
X41670Y30290D02*
X41390D01*
X41119Y30217D01*
X40876Y30077D01*
X40678Y29879D01*
X40538Y29636D01*
X40465Y29365D01*
Y29085D01*
X40538Y28814D01*
X40678Y28571D01*
X40876Y28373D01*
X41119Y28233D01*
X41390Y28160D01*
X41670D01*
X41941Y28233D01*
X42184Y28373D01*
X42382Y28571D01*
X42522Y28814D01*
X42595Y29085D01*
Y29365D01*
X42522Y29636D01*
X42382Y29879D01*
X42184Y30077D01*
X41941Y30217D01*
X41670Y30290D01*
D02*
G37*
G36*
X18810D02*
X18530D01*
X18259Y30217D01*
X18016Y30077D01*
X17818Y29879D01*
X17678Y29636D01*
X17605Y29365D01*
Y29085D01*
X17678Y28814D01*
X17818Y28571D01*
X18016Y28373D01*
X18259Y28233D01*
X18530Y28160D01*
X18810D01*
X19081Y28233D01*
X19324Y28373D01*
X19522Y28571D01*
X19662Y28814D01*
X19735Y29085D01*
Y29365D01*
X19662Y29636D01*
X19522Y29879D01*
X19324Y30077D01*
X19081Y30217D01*
X18810Y30290D01*
D02*
G37*
G36*
X79277Y31075D02*
X78923D01*
X78575Y31006D01*
X78247Y30870D01*
X77953Y30673D01*
X77702Y30422D01*
X77505Y30128D01*
X77369Y29800D01*
X77300Y29452D01*
Y29098D01*
X77369Y28750D01*
X77505Y28422D01*
X77702Y28128D01*
X77953Y27877D01*
X78247Y27680D01*
X78575Y27544D01*
X78923Y27475D01*
X79277D01*
X79625Y27544D01*
X79953Y27680D01*
X80247Y27877D01*
X80498Y28128D01*
X80695Y28422D01*
X80831Y28750D01*
X80900Y29098D01*
Y29452D01*
X80831Y29800D01*
X80695Y30128D01*
X80498Y30422D01*
X80247Y30673D01*
X79953Y30870D01*
X79625Y31006D01*
X79277Y31075D01*
D02*
G37*
G36*
X57277D02*
X56923D01*
X56575Y31006D01*
X56247Y30870D01*
X55953Y30673D01*
X55702Y30422D01*
X55505Y30128D01*
X55369Y29800D01*
X55300Y29452D01*
Y29098D01*
X55369Y28750D01*
X55505Y28422D01*
X55702Y28128D01*
X55953Y27877D01*
X56247Y27680D01*
X56575Y27544D01*
X56923Y27475D01*
X57277D01*
X57625Y27544D01*
X57953Y27680D01*
X58247Y27877D01*
X58498Y28128D01*
X58695Y28422D01*
X58831Y28750D01*
X58900Y29098D01*
Y29452D01*
X58831Y29800D01*
X58695Y30128D01*
X58498Y30422D01*
X58247Y30673D01*
X57953Y30870D01*
X57625Y31006D01*
X57277Y31075D01*
D02*
G37*
G36*
X41670Y27750D02*
X41390D01*
X41119Y27677D01*
X40876Y27537D01*
X40678Y27339D01*
X40538Y27096D01*
X40465Y26825D01*
Y26545D01*
X40538Y26274D01*
X40678Y26031D01*
X40876Y25833D01*
X41119Y25693D01*
X41390Y25620D01*
X41670D01*
X41941Y25693D01*
X42184Y25833D01*
X42382Y26031D01*
X42522Y26274D01*
X42595Y26545D01*
Y26825D01*
X42522Y27096D01*
X42382Y27339D01*
X42184Y27537D01*
X41941Y27677D01*
X41670Y27750D01*
D02*
G37*
G36*
X18810D02*
X18530D01*
X18259Y27677D01*
X18016Y27537D01*
X17818Y27339D01*
X17705Y27144D01*
X15035D01*
X14859Y27109D01*
X14711Y27009D01*
X13276Y25574D01*
X13176Y25426D01*
X13141Y25250D01*
Y24549D01*
X13047Y24495D01*
X12880Y24328D01*
X12761Y24122D01*
X12700Y23893D01*
Y23657D01*
X12761Y23428D01*
X12880Y23222D01*
X13047Y23055D01*
X13253Y22936D01*
X13482Y22875D01*
X13718D01*
X13947Y22936D01*
X14153Y23055D01*
X14320Y23222D01*
X14439Y23428D01*
X14500Y23657D01*
Y23893D01*
X14439Y24122D01*
X14320Y24328D01*
X14153Y24495D01*
X14059Y24549D01*
Y25060D01*
X15225Y26226D01*
X17705D01*
X17818Y26031D01*
X18016Y25833D01*
X18259Y25693D01*
X18530Y25620D01*
X18810D01*
X19081Y25693D01*
X19324Y25833D01*
X19522Y26031D01*
X19662Y26274D01*
X19735Y26545D01*
Y26825D01*
X19662Y27096D01*
X19522Y27339D01*
X19324Y27537D01*
X19081Y27677D01*
X18810Y27750D01*
D02*
G37*
G36*
X41670Y25210D02*
X41390D01*
X41119Y25137D01*
X40876Y24997D01*
X40678Y24799D01*
X40538Y24556D01*
X40465Y24285D01*
Y24005D01*
X40538Y23734D01*
X40678Y23491D01*
X40876Y23293D01*
X41119Y23153D01*
X41390Y23080D01*
X41670D01*
X41941Y23153D01*
X42184Y23293D01*
X42382Y23491D01*
X42522Y23734D01*
X42595Y24005D01*
Y24285D01*
X42522Y24556D01*
X42382Y24799D01*
X42184Y24997D01*
X41941Y25137D01*
X41670Y25210D01*
D02*
G37*
G36*
X18810D02*
X18530D01*
X18259Y25137D01*
X18016Y24997D01*
X17818Y24799D01*
X17678Y24556D01*
X17605Y24285D01*
Y24005D01*
X17663Y23787D01*
X14260Y20384D01*
X12074D01*
X12020Y20478D01*
X11853Y20645D01*
X11647Y20764D01*
X11418Y20825D01*
X11182D01*
X10953Y20764D01*
X10747Y20645D01*
X10580Y20478D01*
X10461Y20272D01*
X10400Y20043D01*
Y19807D01*
X10461Y19578D01*
X10580Y19372D01*
X10747Y19205D01*
X10953Y19086D01*
X11182Y19025D01*
X11418D01*
X11647Y19086D01*
X11853Y19205D01*
X12020Y19372D01*
X12074Y19466D01*
X14450D01*
X14626Y19501D01*
X14774Y19601D01*
X18312Y23138D01*
X18530Y23080D01*
X18810D01*
X19081Y23153D01*
X19324Y23293D01*
X19522Y23491D01*
X19662Y23734D01*
X19735Y24005D01*
Y24285D01*
X19662Y24556D01*
X19522Y24799D01*
X19324Y24997D01*
X19081Y25137D01*
X18810Y25210D01*
D02*
G37*
G36*
X41670Y22670D02*
X41390D01*
X41119Y22597D01*
X40876Y22457D01*
X40678Y22259D01*
X40538Y22016D01*
X40465Y21745D01*
Y21465D01*
X40538Y21194D01*
X40678Y20951D01*
X40876Y20753D01*
X41119Y20613D01*
X41390Y20540D01*
X41670D01*
X41941Y20613D01*
X42184Y20753D01*
X42382Y20951D01*
X42522Y21194D01*
X42595Y21465D01*
Y21745D01*
X42522Y22016D01*
X42382Y22259D01*
X42184Y22457D01*
X41941Y22597D01*
X41670Y22670D01*
D02*
G37*
G36*
X18810D02*
X18530D01*
X18259Y22597D01*
X18016Y22457D01*
X17818Y22259D01*
X17678Y22016D01*
X17605Y21745D01*
Y21465D01*
X17663Y21247D01*
X15373Y18957D01*
X15273Y18808D01*
X15259Y18735D01*
X15178Y18714D01*
X14972Y18595D01*
X14805Y18428D01*
X14686Y18222D01*
X14625Y17993D01*
Y17757D01*
X14686Y17528D01*
X14805Y17322D01*
X14972Y17155D01*
X15178Y17036D01*
X15407Y16975D01*
X15643D01*
X15872Y17036D01*
X16078Y17155D01*
X16245Y17322D01*
X16364Y17528D01*
X16425Y17757D01*
Y17993D01*
X16364Y18222D01*
X16245Y18428D01*
X16193Y18479D01*
X18312Y20598D01*
X18530Y20540D01*
X18810D01*
X19081Y20613D01*
X19324Y20753D01*
X19522Y20951D01*
X19662Y21194D01*
X19735Y21465D01*
Y21745D01*
X19662Y22016D01*
X19522Y22259D01*
X19324Y22457D01*
X19081Y22597D01*
X18810Y22670D01*
D02*
G37*
G36*
X41670Y20130D02*
X41390D01*
X41119Y20057D01*
X40876Y19917D01*
X40678Y19719D01*
X40538Y19476D01*
X40465Y19205D01*
Y18925D01*
X40538Y18654D01*
X40678Y18411D01*
X40876Y18213D01*
X41119Y18073D01*
X41390Y18000D01*
X41670D01*
X41941Y18073D01*
X42184Y18213D01*
X42382Y18411D01*
X42522Y18654D01*
X42595Y18925D01*
Y19205D01*
X42522Y19476D01*
X42382Y19719D01*
X42184Y19917D01*
X41941Y20057D01*
X41670Y20130D01*
D02*
G37*
G36*
X75943Y24725D02*
X75707D01*
X75478Y24664D01*
X75272Y24545D01*
X75105Y24378D01*
X74986Y24172D01*
X74925Y23943D01*
Y23707D01*
X74986Y23478D01*
X75105Y23272D01*
X75119Y23258D01*
Y20900D01*
X75143Y20717D01*
X75214Y20547D01*
X75326Y20401D01*
X76681Y19046D01*
X76827Y18934D01*
X76997Y18863D01*
X77180Y18839D01*
X78284D01*
X78418Y18663D01*
X78650Y18485D01*
X78920Y18374D01*
X79182Y18339D01*
Y18211D01*
X78920Y18176D01*
X78650Y18065D01*
X78418Y17887D01*
X78240Y17655D01*
X78161Y17464D01*
X48669D01*
X48615Y17558D01*
X48448Y17725D01*
X48242Y17844D01*
X48013Y17905D01*
X47777D01*
X47548Y17844D01*
X47342Y17725D01*
X47175Y17558D01*
X47056Y17352D01*
X46995Y17123D01*
Y16887D01*
X47056Y16658D01*
X47175Y16452D01*
X47342Y16285D01*
X47548Y16166D01*
X47777Y16105D01*
X48013D01*
X48242Y16166D01*
X48448Y16285D01*
X48615Y16452D01*
X48669Y16546D01*
X78161D01*
X78240Y16355D01*
X78418Y16123D01*
X78650Y15945D01*
X78920Y15834D01*
X79182Y15799D01*
Y15671D01*
X78920Y15636D01*
X78650Y15525D01*
X78418Y15347D01*
X78240Y15115D01*
X78132Y14854D01*
X46634D01*
X46620Y14878D01*
X46453Y15045D01*
X46247Y15164D01*
X46018Y15225D01*
X45782D01*
X45553Y15164D01*
X45347Y15045D01*
X45180Y14878D01*
X45061Y14672D01*
X45000Y14443D01*
Y14207D01*
X45061Y13978D01*
X45180Y13772D01*
X45347Y13605D01*
X45553Y13486D01*
X45782Y13425D01*
X46018D01*
X46247Y13486D01*
X46453Y13605D01*
X46620Y13772D01*
X46715Y13936D01*
X78190D01*
X78240Y13815D01*
X78418Y13583D01*
X78650Y13405D01*
X78920Y13294D01*
X79210Y13255D01*
X79990D01*
X80280Y13294D01*
X80550Y13405D01*
X80782Y13583D01*
X80960Y13815D01*
X81071Y14085D01*
X81110Y14375D01*
Y14555D01*
X81071Y14845D01*
X80960Y15115D01*
X80782Y15347D01*
X80550Y15525D01*
X80280Y15636D01*
X80018Y15671D01*
Y15799D01*
X80280Y15834D01*
X80550Y15945D01*
X80782Y16123D01*
X80960Y16355D01*
X81071Y16625D01*
X81110Y16915D01*
Y17095D01*
X81071Y17385D01*
X80960Y17655D01*
X80782Y17887D01*
X80550Y18065D01*
X80280Y18176D01*
X80018Y18211D01*
Y18339D01*
X80280Y18374D01*
X80550Y18485D01*
X80782Y18663D01*
X80960Y18895D01*
X81071Y19165D01*
X81110Y19455D01*
Y19635D01*
X81071Y19925D01*
X80960Y20195D01*
X80782Y20427D01*
X80550Y20605D01*
X80280Y20716D01*
X79990Y20755D01*
X79210D01*
X78920Y20716D01*
X78650Y20605D01*
X78418Y20427D01*
X78284Y20251D01*
X77472D01*
X76531Y21192D01*
Y23258D01*
X76545Y23272D01*
X76664Y23478D01*
X76725Y23707D01*
Y23943D01*
X76664Y24172D01*
X76545Y24378D01*
X76378Y24545D01*
X76172Y24664D01*
X75943Y24725D01*
D02*
G37*
G36*
X41670Y17590D02*
X41390D01*
X41119Y17517D01*
X40876Y17377D01*
X40678Y17179D01*
X40538Y16936D01*
X40465Y16665D01*
Y16385D01*
X40538Y16114D01*
X40678Y15871D01*
X40876Y15673D01*
X41119Y15533D01*
X41390Y15460D01*
X41670D01*
X41941Y15533D01*
X42184Y15673D01*
X42382Y15871D01*
X42522Y16114D01*
X42595Y16385D01*
Y16665D01*
X42522Y16936D01*
X42382Y17179D01*
X42184Y17377D01*
X41941Y17517D01*
X41670Y17590D01*
D02*
G37*
G36*
X18810D02*
X18530D01*
X18259Y17517D01*
X18016Y17377D01*
X17818Y17179D01*
X17678Y16936D01*
X17605Y16665D01*
Y16385D01*
X17678Y16114D01*
X17818Y15871D01*
X18016Y15673D01*
X18259Y15533D01*
X18530Y15460D01*
X18810D01*
X19081Y15533D01*
X19324Y15673D01*
X19522Y15871D01*
X19662Y16114D01*
X19735Y16385D01*
Y16665D01*
X19662Y16936D01*
X19522Y17179D01*
X19324Y17377D01*
X19081Y17517D01*
X18810Y17590D01*
D02*
G37*
G36*
X37368Y34425D02*
X37132D01*
X36903Y34364D01*
X36697Y34245D01*
X36530Y34078D01*
X36411Y33872D01*
X36350Y33643D01*
Y33407D01*
X36411Y33178D01*
X36530Y32972D01*
X36697Y32805D01*
X36791Y32751D01*
Y32440D01*
X19238Y14887D01*
X19081Y14977D01*
X18810Y15050D01*
X18530D01*
X18259Y14977D01*
X18016Y14837D01*
X17818Y14639D01*
X17678Y14396D01*
X17605Y14125D01*
Y13845D01*
X17678Y13574D01*
X17818Y13331D01*
X18016Y13133D01*
X18259Y12993D01*
X18530Y12920D01*
X18810D01*
X19081Y12993D01*
X19324Y13133D01*
X19522Y13331D01*
X19662Y13574D01*
X19735Y13845D01*
Y14086D01*
X37574Y31926D01*
X37674Y32074D01*
X37709Y32250D01*
Y32751D01*
X37803Y32805D01*
X37970Y32972D01*
X38089Y33178D01*
X38150Y33407D01*
Y33643D01*
X38089Y33872D01*
X37970Y34078D01*
X37803Y34245D01*
X37597Y34364D01*
X37368Y34425D01*
D02*
G37*
G36*
X41670Y15050D02*
X41390D01*
X41119Y14977D01*
X40876Y14837D01*
X40678Y14639D01*
X40538Y14396D01*
X40465Y14125D01*
Y13845D01*
X40538Y13574D01*
X40678Y13331D01*
X40876Y13133D01*
X41119Y12993D01*
X41390Y12920D01*
X41670D01*
X41941Y12993D01*
X42184Y13133D01*
X42382Y13331D01*
X42522Y13574D01*
X42595Y13845D01*
Y14125D01*
X42522Y14396D01*
X42382Y14639D01*
X42184Y14837D01*
X41941Y14977D01*
X41670Y15050D01*
D02*
G37*
G36*
X18810Y12510D02*
X18530D01*
X18259Y12437D01*
X18016Y12297D01*
X17818Y12099D01*
X17678Y11856D01*
X17605Y11585D01*
Y11305D01*
X17678Y11034D01*
X17818Y10791D01*
X18016Y10593D01*
X18259Y10453D01*
X18530Y10380D01*
X18810D01*
X19081Y10453D01*
X19324Y10593D01*
X19522Y10791D01*
X19662Y11034D01*
X19735Y11305D01*
Y11585D01*
X19662Y11856D01*
X19522Y12099D01*
X19324Y12297D01*
X19081Y12437D01*
X18810Y12510D01*
D02*
G37*
G36*
X79277Y9075D02*
X78923D01*
X78575Y9006D01*
X78247Y8870D01*
X77953Y8673D01*
X77702Y8422D01*
X77505Y8128D01*
X77369Y7800D01*
X77300Y7452D01*
Y7098D01*
X77369Y6750D01*
X77505Y6422D01*
X77702Y6128D01*
X77953Y5877D01*
X78247Y5680D01*
X78575Y5544D01*
X78923Y5475D01*
X79277D01*
X79625Y5544D01*
X79953Y5680D01*
X80247Y5877D01*
X80498Y6128D01*
X80695Y6422D01*
X80831Y6750D01*
X80900Y7098D01*
Y7452D01*
X80831Y7800D01*
X80695Y8128D01*
X80498Y8422D01*
X80247Y8673D01*
X79953Y8870D01*
X79625Y9006D01*
X79277Y9075D01*
D02*
G37*
G36*
X57277D02*
X56923D01*
X56575Y9006D01*
X56247Y8870D01*
X55953Y8673D01*
X55702Y8422D01*
X55505Y8128D01*
X55369Y7800D01*
X55300Y7452D01*
Y7098D01*
X55369Y6750D01*
X55505Y6422D01*
X55702Y6128D01*
X55953Y5877D01*
X56247Y5680D01*
X56575Y5544D01*
X56923Y5475D01*
X57277D01*
X57625Y5544D01*
X57953Y5680D01*
X58247Y5877D01*
X58498Y6128D01*
X58695Y6422D01*
X58831Y6750D01*
X58900Y7098D01*
Y7452D01*
X58831Y7800D01*
X58695Y8128D01*
X58498Y8422D01*
X58247Y8673D01*
X57953Y8870D01*
X57625Y9006D01*
X57277Y9075D01*
D02*
G37*
G36*
X5718Y7484D02*
X5314D01*
X4918Y7405D01*
X4545Y7251D01*
X4209Y7026D01*
X3924Y6741D01*
X3699Y6405D01*
X3545Y6032D01*
X3466Y5636D01*
Y5232D01*
X3545Y4836D01*
X3699Y4463D01*
X3924Y4127D01*
X4209Y3842D01*
X4545Y3617D01*
X4918Y3463D01*
X5314Y3384D01*
X5718D01*
X6114Y3463D01*
X6487Y3617D01*
X6823Y3842D01*
X7108Y4127D01*
X7333Y4463D01*
X7487Y4836D01*
X7566Y5232D01*
Y5636D01*
X7487Y6032D01*
X7333Y6405D01*
X7108Y6741D01*
X6823Y7026D01*
X6487Y7251D01*
X6114Y7405D01*
X5718Y7484D01*
D02*
G37*
%LPD*%
D13*
X18670Y13985D02*
X18985D01*
X37250Y32250D02*
Y33525D01*
X18985Y13985D02*
X37250Y32250D01*
X45900Y14325D02*
X45970Y14395D01*
X79530D01*
X79600Y14465D01*
X47895Y17005D02*
X79600D01*
X21958Y39368D02*
X21975Y39350D01*
X18670Y39385D02*
X18688Y39368D01*
X21958D01*
X18670Y36845D02*
X20705D01*
X22075Y35475D01*
X18670Y19065D02*
X18734Y19129D01*
X20129D02*
X34800Y33800D01*
X18734Y19129D02*
X20129D01*
X65525Y69750D02*
X65600Y69825D01*
X65525Y65650D02*
Y69750D01*
X65450Y65575D02*
X65525Y65650D01*
X60548Y64177D02*
Y69798D01*
Y64177D02*
X60625Y64100D01*
X60520Y69825D02*
X60548Y69798D01*
X62980Y69745D02*
X63060Y69825D01*
X62980Y67155D02*
Y69745D01*
X62900Y67075D02*
X62980Y67155D01*
X18670Y49545D02*
X21020D01*
X22025Y50550D01*
X14200Y32925D02*
X15580Y34305D01*
X18670D01*
X68245Y36605D02*
X68350Y36500D01*
X68140Y44825D02*
X68245Y44720D01*
Y36605D02*
Y44720D01*
X14450Y19925D02*
X18670Y24145D01*
X11300Y19925D02*
X14450D01*
X15697Y18047D02*
Y18632D01*
X15525Y17875D02*
X15697Y18047D01*
Y18632D02*
X18670Y21605D01*
X13600Y23775D02*
Y25250D01*
X15035Y26685D02*
X18670D01*
X13600Y25250D02*
X15035Y26685D01*
X65625Y41600D02*
X65750Y41475D01*
X65625Y41600D02*
Y44800D01*
X63068Y39232D02*
Y44818D01*
X63060Y44825D02*
X63068Y44818D01*
Y39232D02*
X63075Y39225D01*
X65600Y44825D02*
X65625Y44800D01*
X70680Y41250D02*
Y44825D01*
D14*
X75825Y20900D02*
Y23825D01*
Y20900D02*
X77180Y19545D01*
X15975Y74525D02*
X16840Y73660D01*
X27600D01*
X27610Y73650D01*
X32525D01*
X33710Y74835D01*
Y76285D02*
X33800Y76375D01*
X28300D02*
X33800D01*
X33710Y74835D02*
Y76285D01*
X48915Y79290D02*
X53875D01*
X48875Y79250D02*
X48915Y79290D01*
X77180Y19545D02*
X79600D01*
D15*
X68145Y69830D02*
Y73795D01*
X68150Y73800D01*
X68140Y69825D02*
X68145Y69830D01*
D16*
X7600Y62275D02*
X18640D01*
X18670Y59705D02*
Y62245D01*
X18640Y62275D02*
X18670Y62245D01*
D17*
X2600Y62275D02*
D03*
D18*
X7600Y62275D02*
D03*
D19*
X57100Y29275D02*
D03*
Y7275D02*
D03*
X79100D02*
D03*
Y29275D02*
D03*
D20*
X79600Y14465D02*
D03*
Y17005D02*
D03*
Y19545D02*
D03*
X53875Y79290D02*
D03*
X28300Y76375D02*
D03*
D21*
X79600Y22085D02*
D03*
X53875Y76750D02*
D03*
X28300Y78915D02*
D03*
D22*
X15975Y74525D02*
D03*
D23*
Y69445D02*
D03*
D24*
X18670Y8905D02*
D03*
X41530D02*
D03*
X18670Y11445D02*
D03*
Y13985D02*
D03*
Y16525D02*
D03*
Y19065D02*
D03*
Y21605D02*
D03*
Y24145D02*
D03*
Y26685D02*
D03*
Y29225D02*
D03*
Y31765D02*
D03*
Y34305D02*
D03*
Y36845D02*
D03*
Y39385D02*
D03*
Y41925D02*
D03*
Y44465D02*
D03*
Y47005D02*
D03*
Y49545D02*
D03*
Y52085D02*
D03*
Y54625D02*
D03*
Y57165D02*
D03*
Y59705D02*
D03*
X41530Y11445D02*
D03*
Y13985D02*
D03*
Y16525D02*
D03*
Y19065D02*
D03*
Y21605D02*
D03*
Y24145D02*
D03*
Y26685D02*
D03*
Y29225D02*
D03*
Y31765D02*
D03*
Y34305D02*
D03*
Y36845D02*
D03*
Y39385D02*
D03*
Y41925D02*
D03*
Y44465D02*
D03*
Y47005D02*
D03*
Y49545D02*
D03*
Y52085D02*
D03*
Y54625D02*
D03*
Y57165D02*
D03*
Y59705D02*
D03*
Y62245D02*
D03*
D25*
X18670D02*
D03*
D26*
X73220Y44825D02*
D03*
X70680D02*
D03*
X68140D02*
D03*
X65600D02*
D03*
X63060D02*
D03*
X60520D02*
D03*
X57980D02*
D03*
X55440D02*
D03*
X60520Y69825D02*
D03*
X63060D02*
D03*
X65600D02*
D03*
X68140D02*
D03*
X70680D02*
D03*
X55440D02*
D03*
X57980D02*
D03*
D27*
X73220D02*
D03*
D28*
X75825Y23825D02*
D03*
X45900Y14325D02*
D03*
X12700Y62325D02*
D03*
X68150Y73800D02*
D03*
X22075Y35475D02*
D03*
X21975Y39350D02*
D03*
X47895Y17005D02*
D03*
X37250Y33525D02*
D03*
X34800Y33800D02*
D03*
X65450Y65575D02*
D03*
X60625Y64100D02*
D03*
X62900Y67075D02*
D03*
X22025Y50550D02*
D03*
X14200Y32925D02*
D03*
X68350Y36500D02*
D03*
X11300Y19925D02*
D03*
X15525Y17875D02*
D03*
X13600Y23775D02*
D03*
X65750Y41475D02*
D03*
X63075Y39225D02*
D03*
X70680Y41250D02*
D03*
D29*
X33800Y76375D02*
D03*
X38200Y72875D02*
D03*
Y79975D02*
D03*
X47200Y69775D02*
D03*
X48975Y79250D02*
D03*
M02*
