M48
;Layer_Color=9474304
;FILE_FORMAT=2:5
INCH,LZ
;TYPE=PLATED
T1F00S00C0.02756
T2F00S00C0.03937
T3F00S00C0.04016
T4F00S00C0.06299
T5F00S00C0.07874
T6F00S00C0.13780
%
T01
X0298524Y0093799
X0269094Y0143701
X0278268Y0162402
X0258858Y0163287
X0248327Y0154429
X0146653Y0131988
X0137008Y0133071
X0086909Y0139665
X0086516Y0154921
X0086713Y0199016
X0055905Y0129626
X0053543Y0093602
X0044488Y0078445
X0061122Y0070374
X0188563Y0066949
X0180709Y0056398
X0185827Y0274705
X0192815Y0312008
X0150394Y0314862
Y0286909
X0133071Y0300689
X005Y0245374
X0238681Y0252362
X0247638Y0264075
X0257677Y0258169
X0268307Y0290551
T02
X0313386Y0056949
Y0066949
Y0076949
Y0086949
X0288268Y0176476
X0278268
X0268268
X0258268
X0248268
X0238268
X0228268
X0218268
X0029921Y0245177
X0010236Y0245177
X0111417Y0300689
Y0310689
X0212106Y0312165
Y0302165
X0218268Y0274902
X0228268
X0238268
X0248268
X0258268
X0268268
X0278268
X0288268
T03
X0073504Y0035059
Y0045059
X0163504
Y0035059
Y0055059
Y0065059
Y0075059
Y0085059
Y0095059
Y0105059
Y0115059
Y0125059
Y0135059
Y0145059
Y0155059
Y0165059
Y0175059
Y0185059
Y0195059
Y0205059
X0073504
Y0195059
Y0185059
Y0175059
Y0165059
Y0155059
Y0145059
Y0135059
Y0125059
Y0115059
Y0105059
Y0095059
Y0085059
Y0075059
Y0065059
Y0055059
Y0215059
Y0225059
Y0235059
Y0245059
X0163504
Y0235059
Y0225059
Y0215059
T04
X0062894Y0273406
Y0293406
T05
X0224803Y0028642
X0311417
Y0115256
X0224803
T06
X0021716Y0021394
X0022047Y029813
X0303346Y0298031
M30
