G04*
G04 #@! TF.GenerationSoftware,Altium Limited,Altium Designer,22.3.1 (43)*
G04*
G04 Layer_Physical_Order=1*
G04 Layer_Color=255*
%FSLAX43Y43*%
%MOMM*%
G71*
G04*
G04 #@! TF.SameCoordinates,41D4DEE2-B45B-4D41-A9CB-04150D2C2734*
G04*
G04*
G04 #@! TF.FilePolarity,Positive*
G04*
G01*
G75*
%ADD10R,1.470X1.020*%
%ADD11R,1.000X0.700*%
%ADD12C,1.200*%
%ADD13C,0.300*%
%ADD14C,0.800*%
%ADD15C,0.500*%
%ADD16C,1.000*%
G04:AMPARAMS|DCode=17|XSize=1.8mm|YSize=2mm|CornerRadius=0.45mm|HoleSize=0mm|Usage=FLASHONLY|Rotation=180.000|XOffset=0mm|YOffset=0mm|HoleType=Round|Shape=RoundedRectangle|*
%AMROUNDEDRECTD17*
21,1,1.800,1.100,0,0,180.0*
21,1,0.900,2.000,0,0,180.0*
1,1,0.900,-0.450,0.550*
1,1,0.900,0.450,0.550*
1,1,0.900,0.450,-0.550*
1,1,0.900,-0.450,-0.550*
%
%ADD17ROUNDEDRECTD17*%
%ADD18R,1.800X1.800*%
%ADD19C,3.000*%
G04:AMPARAMS|DCode=20|XSize=1.8mm|YSize=2.4mm|CornerRadius=0.81mm|HoleSize=0mm|Usage=FLASHONLY|Rotation=270.000|XOffset=0mm|YOffset=0mm|HoleType=Round|Shape=RoundedRectangle|*
%AMROUNDEDRECTD20*
21,1,1.800,0.780,0,0,270.0*
21,1,0.180,2.400,0,0,270.0*
1,1,1.620,-0.390,-0.090*
1,1,1.620,-0.390,0.090*
1,1,1.620,0.390,0.090*
1,1,1.620,0.390,-0.090*
%
%ADD20ROUNDEDRECTD20*%
%ADD21R,2.000X2.000*%
%ADD22R,2.600X2.600*%
%ADD23O,2.800X2.600*%
%ADD24C,1.530*%
%ADD25R,1.530X1.530*%
G04:AMPARAMS|DCode=26|XSize=1.8mm|YSize=2.4mm|CornerRadius=0.81mm|HoleSize=0mm|Usage=FLASHONLY|Rotation=180.000|XOffset=0mm|YOffset=0mm|HoleType=Round|Shape=RoundedRectangle|*
%AMROUNDEDRECTD26*
21,1,1.800,0.780,0,0,180.0*
21,1,0.180,2.400,0,0,180.0*
1,1,1.620,-0.090,0.390*
1,1,1.620,0.090,0.390*
1,1,1.620,0.090,-0.390*
1,1,1.620,-0.090,-0.390*
%
%ADD26ROUNDEDRECTD26*%
%ADD27R,2.000X2.000*%
%ADD28C,1.200*%
%ADD29C,1.270*%
D10*
X47200Y73800D02*
D03*
Y72200D02*
D03*
X38200Y76375D02*
D03*
Y77975D02*
D03*
D11*
X43000Y71900D02*
D03*
Y73800D02*
D03*
X40600Y71900D02*
D03*
Y72850D02*
D03*
Y73800D02*
D03*
D12*
X75825Y23825D02*
Y71275D01*
X73300Y73800D02*
X75825Y71275D01*
X68150Y73800D02*
X73300D01*
X47200D02*
X68150D01*
X22175Y65075D02*
X25550Y68450D01*
X13850Y65075D02*
X22175D01*
X47594Y79250D02*
X48975D01*
X47125Y78781D02*
X47594Y79250D01*
D13*
X24138Y19212D02*
X36325Y7025D01*
X42200D01*
X45900Y10725D01*
Y14325D01*
X47895Y11095D02*
Y17005D01*
X42850Y6050D02*
X47895Y11095D01*
X35600Y6050D02*
X42850D01*
X19306Y5225D02*
X43225D01*
X50725Y12725D01*
Y31050D01*
X52400Y13150D02*
Y31025D01*
X17500Y4350D02*
X43600D01*
X52400Y13150D01*
X22075Y19575D02*
Y35475D01*
Y19575D02*
X35600Y6050D01*
X21706Y39469D02*
X24138Y37037D01*
Y19212D02*
Y37037D01*
X15525Y9006D02*
X19306Y5225D01*
X13625Y8225D02*
X17500Y4350D01*
X11200Y6300D02*
X14225Y3275D01*
X43875D02*
X53725Y13125D01*
X14225Y3275D02*
X43875D01*
X21950Y62300D02*
X26725Y67075D01*
X62900D01*
X21950Y50525D02*
Y62300D01*
X36500Y74275D02*
Y74975D01*
X39650Y71825D02*
X40525D01*
X39400Y71575D02*
X39650Y71825D01*
X40525D02*
X40600Y71900D01*
X36600Y71575D02*
X39400D01*
X36300Y71875D02*
X36600Y71575D01*
X36300Y71875D02*
Y74075D01*
X36500Y74275D01*
X36700Y75175D02*
X37900D01*
X38200Y74875D01*
X36500Y74975D02*
X36700Y75175D01*
X39200Y65575D02*
X65450D01*
X34700Y61075D02*
X39200Y65575D01*
X37250Y61900D02*
X39475Y64125D01*
X37250Y33525D02*
Y61900D01*
X34700Y33900D02*
Y61075D01*
Y33900D02*
X34800Y33800D01*
X39475Y64125D02*
X60600D01*
X60625Y64100D01*
X9475Y5525D02*
X12825Y2175D01*
X44650D02*
X70680Y28205D01*
X12825Y2175D02*
X44650D01*
X9475Y28200D02*
X14200Y32925D01*
X9475Y5525D02*
Y28200D01*
X70680Y28205D02*
Y41250D01*
X53725Y13125D02*
Y30775D01*
X59450Y36500D02*
X68350D01*
X53725Y30775D02*
X59450Y36500D01*
X60600Y39225D02*
X63075D01*
X52400Y31025D02*
X60600Y39225D01*
X11200Y19825D02*
X11300Y19925D01*
X11200Y6300D02*
Y19825D01*
X50725Y31050D02*
X61150Y41475D01*
X13625Y8225D02*
Y23750D01*
X15525Y9006D02*
Y17875D01*
X13600Y23775D02*
X13625Y23750D01*
X61150Y41475D02*
X65750D01*
X60520Y69525D02*
Y69825D01*
D14*
X38200Y74875D02*
Y75175D01*
X39275Y73800D02*
X40500D01*
X38200Y74875D02*
X39275Y73800D01*
X38200Y75175D02*
Y76375D01*
X12700Y62325D02*
X12777Y62402D01*
X45100Y68919D02*
Y73800D01*
X47200D01*
X43000D02*
X45100D01*
X47125Y73875D02*
X47200Y73800D01*
X33800Y76375D02*
X38200D01*
Y77975D02*
Y79975D01*
X47200Y69775D02*
Y72200D01*
D15*
X38225Y72850D02*
X40600D01*
X38200Y72875D02*
X38225Y72850D01*
D16*
X12777Y62402D02*
Y64002D01*
X13850Y65075D01*
X25550Y68450D02*
X44631D01*
X45100Y68919D01*
X47125Y73875D02*
Y78781D01*
D17*
X2600Y62275D02*
D03*
D18*
X7600Y62275D02*
D03*
D19*
X57100Y29275D02*
D03*
Y7275D02*
D03*
X79100D02*
D03*
Y29275D02*
D03*
D20*
X79600Y14465D02*
D03*
Y17005D02*
D03*
Y19545D02*
D03*
X53875Y79290D02*
D03*
X28300Y76375D02*
D03*
D21*
X79600Y22085D02*
D03*
X53875Y76750D02*
D03*
X28300Y78915D02*
D03*
D22*
X15975Y74525D02*
D03*
D23*
Y69445D02*
D03*
D24*
X18670Y8905D02*
D03*
X41530D02*
D03*
X18670Y11445D02*
D03*
Y13985D02*
D03*
Y16525D02*
D03*
Y19065D02*
D03*
Y21605D02*
D03*
Y24145D02*
D03*
Y26685D02*
D03*
Y29225D02*
D03*
Y31765D02*
D03*
Y34305D02*
D03*
Y36845D02*
D03*
Y39385D02*
D03*
Y41925D02*
D03*
Y44465D02*
D03*
Y47005D02*
D03*
Y49545D02*
D03*
Y52085D02*
D03*
Y54625D02*
D03*
Y57165D02*
D03*
Y59705D02*
D03*
X41530Y11445D02*
D03*
Y13985D02*
D03*
Y16525D02*
D03*
Y19065D02*
D03*
Y21605D02*
D03*
Y24145D02*
D03*
Y26685D02*
D03*
Y29225D02*
D03*
Y31765D02*
D03*
Y34305D02*
D03*
Y36845D02*
D03*
Y39385D02*
D03*
Y41925D02*
D03*
Y44465D02*
D03*
Y47005D02*
D03*
Y49545D02*
D03*
Y52085D02*
D03*
Y54625D02*
D03*
Y57165D02*
D03*
Y59705D02*
D03*
Y62245D02*
D03*
D25*
X18670D02*
D03*
D26*
X73220Y44825D02*
D03*
X70680D02*
D03*
X68140D02*
D03*
X65600D02*
D03*
X63060D02*
D03*
X60520D02*
D03*
X57980D02*
D03*
X55440D02*
D03*
X60520Y69825D02*
D03*
X63060D02*
D03*
X65600D02*
D03*
X68140D02*
D03*
X70680D02*
D03*
X55440D02*
D03*
X57980D02*
D03*
D27*
X73220D02*
D03*
D28*
X75825Y23825D02*
D03*
X45900Y14325D02*
D03*
X12700Y62325D02*
D03*
X68150Y73800D02*
D03*
X22075Y35475D02*
D03*
X21975Y39350D02*
D03*
X47895Y17005D02*
D03*
X37250Y33525D02*
D03*
X34800Y33800D02*
D03*
X65450Y65575D02*
D03*
X60625Y64100D02*
D03*
X62900Y67075D02*
D03*
X22025Y50550D02*
D03*
X14200Y32925D02*
D03*
X68350Y36500D02*
D03*
X11300Y19925D02*
D03*
X15525Y17875D02*
D03*
X13600Y23775D02*
D03*
X65750Y41475D02*
D03*
X63075Y39225D02*
D03*
X70680Y41250D02*
D03*
D29*
X33800Y76375D02*
D03*
X38200Y72875D02*
D03*
Y79975D02*
D03*
X47200Y69775D02*
D03*
X48975Y79250D02*
D03*
M02*
