G04*
G04 #@! TF.GenerationSoftware,Altium Limited,Altium Designer,22.3.1 (43)*
G04*
G04 Layer_Color=65535*
%FSLAX25Y25*%
%MOIN*%
G70*
G04*
G04 #@! TF.SameCoordinates,6F27DF24-6875-432B-A67F-BF56C2FC00E1*
G04*
G04*
G04 #@! TF.FilePolarity,Positive*
G04*
G01*
G75*
%ADD10C,0.00787*%
%ADD11C,0.00500*%
%ADD12C,0.01000*%
D10*
X321654Y87795D02*
G03*
X321654Y87795I-394J0D01*
G01*
X39665Y273504D02*
G03*
X39665Y273504I-394J0D01*
G01*
X64898Y245165D02*
G03*
X64898Y245165I-394J0D01*
G01*
X26719Y249508D02*
G03*
X12918Y248550I-6640J-4232D01*
G01*
Y242001D02*
G03*
X26719Y241043I7161J3274D01*
G01*
D11*
X216043Y298642D02*
G03*
X216043Y298642I-394J0D01*
G01*
X108268Y314409D02*
G03*
X108268Y314409I-394J0D01*
G01*
X292284Y278543D02*
G03*
X292284Y278543I-394J0D01*
G01*
X216929Y123228D02*
X319291D01*
X216929Y99606D02*
Y123228D01*
Y99606D02*
X224803D01*
Y44488D02*
Y99606D01*
X216929Y44488D02*
X224803D01*
X216929Y20866D02*
Y44488D01*
Y20866D02*
X319291D01*
Y123228D01*
X84941Y263504D02*
Y303504D01*
X43209Y263504D02*
Y303504D01*
X84941D01*
X43209Y263504D02*
X84941D01*
X207106Y297264D02*
X217106D01*
X207106D02*
Y317264D01*
X217106D01*
Y297264D02*
Y317264D01*
X68504Y3661D02*
Y250669D01*
X168504D01*
Y3661D02*
Y250669D01*
X68504Y3661D02*
X168504D01*
X106417Y315787D02*
X116417D01*
Y295787D02*
Y315787D01*
X106417Y295787D02*
X116417D01*
X106417D02*
Y315787D01*
X160630Y281004D02*
X168504D01*
X160630Y292815D02*
X168504D01*
X160630Y281004D02*
Y292815D01*
X168504Y281004D02*
Y292815D01*
X214331Y170650D02*
X293071D01*
Y280886D01*
X214331Y170650D02*
Y280886D01*
X293071D01*
D12*
X43482Y314880D02*
X41483D01*
X42483D01*
Y309882D01*
X41483Y308882D01*
X40483D01*
X39483Y309882D01*
X48480Y308882D02*
Y314880D01*
X45482Y311881D01*
X49480D01*
X111182Y325019D02*
X109183D01*
X110182D01*
Y320020D01*
X109183Y319021D01*
X108183D01*
X107184Y320020D01*
X113181Y324019D02*
X114181Y325019D01*
X116181D01*
X117180Y324019D01*
Y323019D01*
X116181Y322020D01*
X115181D01*
X116181D01*
X117180Y321020D01*
Y320020D01*
X116181Y319021D01*
X114181D01*
X113181Y320020D01*
X211882Y326480D02*
X209883D01*
X210882D01*
Y321482D01*
X209883Y320482D01*
X208883D01*
X207884Y321482D01*
X213881Y320482D02*
X215881D01*
X214881D01*
Y326480D01*
X213881Y325480D01*
X158484Y302028D02*
Y297030D01*
X159483Y296030D01*
X161483D01*
X162482Y297030D01*
Y302028D01*
X167481Y296030D02*
Y302028D01*
X164481Y299029D01*
X168480D01*
X187182Y301360D02*
X186182Y302360D01*
X184183D01*
X183184Y301360D01*
Y297361D01*
X184183Y296361D01*
X186182D01*
X187182Y297361D01*
X193180Y296361D02*
X189181D01*
X193180Y300360D01*
Y301360D01*
X192181Y302360D01*
X190181D01*
X189181Y301360D01*
X11282Y261580D02*
X10283Y262580D01*
X8283D01*
X7283Y261580D01*
Y257582D01*
X8283Y256582D01*
X10283D01*
X11282Y257582D01*
X13282Y261580D02*
X14281Y262580D01*
X16281D01*
X17280Y261580D01*
Y260581D01*
X16281Y259581D01*
X15281D01*
X16281D01*
X17280Y258581D01*
Y257582D01*
X16281Y256582D01*
X14281D01*
X13282Y257582D01*
X216883Y133280D02*
Y128282D01*
X217883Y127282D01*
X219882D01*
X220882Y128282D01*
Y133280D01*
X222882Y132280D02*
X223881Y133280D01*
X225881D01*
X226880Y132280D01*
Y131281D01*
X225881Y130281D01*
X224881D01*
X225881D01*
X226880Y129281D01*
Y128282D01*
X225881Y127282D01*
X223881D01*
X222882Y128282D01*
X214483Y290180D02*
Y285182D01*
X215483Y284182D01*
X217482D01*
X218482Y285182D01*
Y290180D01*
X224480Y284182D02*
X220481D01*
X224480Y288181D01*
Y289180D01*
X223481Y290180D01*
X221481D01*
X220481Y289180D01*
X64684Y260780D02*
Y255782D01*
X65683Y254782D01*
X67682D01*
X68682Y255782D01*
Y260780D01*
X70682Y254782D02*
X72681D01*
X71681D01*
Y260780D01*
X70682Y259780D01*
M02*
