G04*
G04 #@! TF.GenerationSoftware,Altium Limited,Altium Designer,22.3.1 (43)*
G04*
G04 Layer_Color=8388736*
%FSLAX25Y25*%
%MOIN*%
G70*
G04*
G04 #@! TF.SameCoordinates,6F27DF24-6875-432B-A67F-BF56C2FC00E1*
G04*
G04*
G04 #@! TF.FilePolarity,Positive*
G04*
G01*
G75*
%ADD12C,0.01000*%
D12*
X4263Y318701D02*
G03*
X2362Y317913I0J-2688D01*
G01*
D02*
G03*
X394Y313161I4752J-4752D01*
G01*
X323031Y317815D02*
G03*
X320893Y318701I-2139J-2139D01*
G01*
X324213Y314964D02*
G03*
X323031Y317815I-4033J0D01*
G01*
X319114Y591D02*
G03*
X324114Y5591I0J5000D01*
G01*
X2031Y1808D02*
G03*
X4969Y591I2938J2938D01*
G01*
X0Y6711D02*
G03*
X2031Y1808I6935J0D01*
G01*
X4263Y318701D02*
X5156D01*
X394Y312894D02*
Y313161D01*
Y309252D02*
Y312894D01*
X0Y6711D02*
X394Y309252D01*
X0Y6711D02*
Y176083D01*
X5156Y318701D02*
X7087D01*
X30020D01*
X93012D01*
X141339D01*
X151378D01*
X197244D01*
X288386D01*
X320893D01*
X324213Y313583D02*
Y314964D01*
Y46654D02*
Y313583D01*
X324114Y5591D02*
X324213Y46654D01*
X316535Y591D02*
X319114D01*
X102854D02*
X316535D01*
X4969D02*
X102854D01*
X0Y6711D02*
Y176083D01*
M02*
