G04*
G04 #@! TF.GenerationSoftware,Altium Limited,Altium Designer,22.3.1 (43)*
G04*
G04 Layer_Color=8388736*
%FSLAX25Y25*%
%MOIN*%
G70*
G04*
G04 #@! TF.SameCoordinates,6F27DF24-6875-432B-A67F-BF56C2FC00E1*
G04*
G04*
G04 #@! TF.FilePolarity,Negative*
G04*
G01*
G75*
%ADD15R,0.06587X0.04816*%
%ADD16R,0.04737X0.03556*%
%ADD17C,0.12611*%
G04:AMPARAMS|DCode=18|XSize=78.87mil|YSize=102.49mil|CornerRadius=35.89mil|HoleSize=0mil|Usage=FLASHONLY|Rotation=270.000|XOffset=0mil|YOffset=0mil|HoleType=Round|Shape=RoundedRectangle|*
%AMROUNDEDRECTD18*
21,1,0.07887,0.03071,0,0,270.0*
21,1,0.00709,0.10249,0,0,270.0*
1,1,0.07178,-0.01535,-0.00354*
1,1,0.07178,-0.01535,0.00354*
1,1,0.07178,0.01535,0.00354*
1,1,0.07178,0.01535,-0.00354*
%
%ADD18ROUNDEDRECTD18*%
%ADD19R,0.08674X0.08674*%
%ADD20C,0.00800*%
%ADD21R,0.11036X0.11036*%
%ADD22O,0.11824X0.11036*%
%ADD23C,0.06824*%
%ADD24R,0.06824X0.06824*%
%ADD25R,0.07887X0.07887*%
G04:AMPARAMS|DCode=26|XSize=78.87mil|YSize=86.74mil|CornerRadius=21.72mil|HoleSize=0mil|Usage=FLASHONLY|Rotation=180.000|XOffset=0mil|YOffset=0mil|HoleType=Round|Shape=RoundedRectangle|*
%AMROUNDEDRECTD26*
21,1,0.07887,0.04331,0,0,180.0*
21,1,0.03543,0.08674,0,0,180.0*
1,1,0.04343,-0.01772,0.02165*
1,1,0.04343,0.01772,0.02165*
1,1,0.04343,0.01772,-0.02165*
1,1,0.04343,-0.01772,-0.02165*
%
%ADD26ROUNDEDRECTD26*%
G04:AMPARAMS|DCode=27|XSize=78.87mil|YSize=102.49mil|CornerRadius=35.89mil|HoleSize=0mil|Usage=FLASHONLY|Rotation=180.000|XOffset=0mil|YOffset=0mil|HoleType=Round|Shape=RoundedRectangle|*
%AMROUNDEDRECTD27*
21,1,0.07887,0.03071,0,0,180.0*
21,1,0.00709,0.10249,0,0,180.0*
1,1,0.07178,-0.00354,0.01535*
1,1,0.07178,0.00354,0.01535*
1,1,0.07178,0.00354,-0.01535*
1,1,0.07178,-0.00354,-0.01535*
%
%ADD27ROUNDEDRECTD27*%
%ADD28R,0.08674X0.08674*%
%ADD29C,0.05800*%
%ADD30C,0.05524*%
D15*
X185827Y290650D02*
D03*
Y284350D02*
D03*
X150394Y300787D02*
D03*
Y307087D02*
D03*
D16*
X169291Y283169D02*
D03*
Y290650D02*
D03*
X159843Y283169D02*
D03*
Y286910D02*
D03*
Y290650D02*
D03*
D17*
X224803Y115354D02*
D03*
Y28740D02*
D03*
X311417D02*
D03*
Y115354D02*
D03*
D18*
X313386Y57047D02*
D03*
Y67047D02*
D03*
Y77047D02*
D03*
X212106Y312264D02*
D03*
X111417Y300787D02*
D03*
D19*
X313386Y87047D02*
D03*
X212106Y302264D02*
D03*
X111417Y310787D02*
D03*
D20*
X21716Y21492D02*
D03*
X303346Y298130D02*
D03*
X22047Y298228D02*
D03*
D21*
X62894Y293504D02*
D03*
D22*
Y273504D02*
D03*
D23*
X73504Y35157D02*
D03*
X163504D02*
D03*
X73504Y45158D02*
D03*
Y55158D02*
D03*
Y65158D02*
D03*
Y75157D02*
D03*
Y85158D02*
D03*
Y95157D02*
D03*
Y105157D02*
D03*
Y115157D02*
D03*
Y125157D02*
D03*
Y135158D02*
D03*
Y145158D02*
D03*
Y155157D02*
D03*
Y165157D02*
D03*
Y175157D02*
D03*
Y185158D02*
D03*
Y195158D02*
D03*
Y205157D02*
D03*
Y215158D02*
D03*
Y225157D02*
D03*
Y235157D02*
D03*
X163504Y45158D02*
D03*
Y55158D02*
D03*
Y65158D02*
D03*
Y75157D02*
D03*
Y85158D02*
D03*
Y95157D02*
D03*
Y105157D02*
D03*
Y115157D02*
D03*
Y125157D02*
D03*
Y135158D02*
D03*
Y145158D02*
D03*
Y155157D02*
D03*
Y165157D02*
D03*
Y175157D02*
D03*
Y185158D02*
D03*
Y195158D02*
D03*
Y205157D02*
D03*
Y215158D02*
D03*
Y225157D02*
D03*
Y235157D02*
D03*
Y245158D02*
D03*
D24*
X73504D02*
D03*
D25*
X29921Y245276D02*
D03*
D26*
X10236Y245276D02*
D03*
D27*
X288268Y176575D02*
D03*
X278268D02*
D03*
X268268D02*
D03*
X258268D02*
D03*
X248268D02*
D03*
X238268D02*
D03*
X228268D02*
D03*
X218268D02*
D03*
X238268Y275000D02*
D03*
X248268D02*
D03*
X258268D02*
D03*
X268268D02*
D03*
X278268D02*
D03*
X218268D02*
D03*
X228268D02*
D03*
D28*
X288268D02*
D03*
D29*
X133071Y300787D02*
D03*
X150394Y287008D02*
D03*
Y314961D02*
D03*
X185827Y274803D02*
D03*
X192815Y312106D02*
D03*
D30*
X296850Y84055D02*
D03*
X50000Y245472D02*
D03*
X268307Y290650D02*
D03*
X86909Y139764D02*
D03*
X86516Y155020D02*
D03*
X175787Y98425D02*
D03*
X188563Y67047D02*
D03*
X146653Y132087D02*
D03*
X137008Y133169D02*
D03*
X257677Y258268D02*
D03*
X238681Y252461D02*
D03*
X247638Y264173D02*
D03*
X86713Y199114D02*
D03*
X55905Y129724D02*
D03*
X269094Y143799D02*
D03*
X44488Y78543D02*
D03*
X61122Y70472D02*
D03*
X53543Y93701D02*
D03*
X258858Y163386D02*
D03*
X248327Y154528D02*
D03*
X278268Y162500D02*
D03*
M02*
